<?xml version="1.0" standalone="no"?>
<!DOCTYPE svg PUBLIC "-//W3C//DTD SVG 20010904//EN"
 "http://www.w3.org/TR/2001/REC-SVG-20010904/DTD/svg10.dtd">
<svg version="1.0" xmlns="http://www.w3.org/2000/svg"
 width="700.000000pt" height="700.000000pt" viewBox="0 0 700.000000 700.000000"
 preserveAspectRatio="xMidYMid meet">
<metadata>
Created by potrace 1.14, written by Peter Selinger 2001-2017
</metadata>
<g transform="translate(0.000000,700.000000) scale(0.100000,-0.100000)"
fill="#000000" stroke="none">
<path d="M3278 6995 c-1 -1 -42 -5 -89 -9 -47 -4 -95 -8 -105 -10 -10 -2 -41
-7 -69 -10 -414 -54 -855 -204 -1243 -423 -85 -48 -298 -184 -341 -219 -244
-193 -267 -212 -405 -350 -276 -275 -505 -597 -677 -951 -32 -68 -59 -125 -59
-127 0 -3 -11 -29 -24 -58 -43 -96 -112 -298 -142 -413 -4 -16 -8 -34 -10 -40
-5 -16 -25 -98 -30 -120 -39 -194 -47 -242 -60 -350 -26 -230 -26 -667 1 -826
2 -13 6 -46 9 -74 9 -78 22 -152 51 -285 21 -96 91 -339 114 -395 5 -11 25
-65 46 -120 50 -132 181 -398 250 -508 30 -49 55 -90 55 -93 0 -3 4 -10 10
-17 5 -7 46 -64 91 -126 271 -385 631 -718 1049 -973 193 -117 476 -247 690
-316 197 -63 240 -75 395 -108 47 -10 231 -42 245 -42 8 0 31 -3 50 -6 177
-28 626 -28 848 0 83 10 293 47 347 61 33 8 69 17 79 19 78 15 367 110 461
150 22 10 42 18 45 19 40 12 336 159 398 199 23 14 44 26 47 26 3 0 11 5 18
10 7 6 64 44 127 86 242 161 473 362 659 573 31 35 64 72 74 83 47 50 215 283
285 396 232 374 380 749 466 1183 14 70 28 155 32 190 3 35 8 67 10 70 25 43
24 708 -1 834 -2 11 -7 40 -10 65 -3 25 -7 56 -10 70 -3 14 -7 39 -10 55 -51
296 -155 621 -291 902 -216 446 -533 854 -899 1158 -33 28 -62 53 -65 56 -4 5
-154 114 -270 196 -177 126 -551 307 -810 393 -172 56 -426 119 -550 135 -19
3 -46 7 -60 10 -13 2 -52 7 -86 11 -33 3 -74 8 -90 10 -33 5 -540 14 -546 9z"/>
</g>
</svg>
