<?xml version="1.0" standalone="no"?>
<!DOCTYPE svg PUBLIC "-//W3C//DTD SVG 20010904//EN"
 "http://www.w3.org/TR/2001/REC-SVG-20010904/DTD/svg10.dtd">
<svg version="1.0" xmlns="http://www.w3.org/2000/svg"
 width="714.000000pt" height="714.000000pt" viewBox="0 0 714.000000 714.000000"
 preserveAspectRatio="xMidYMid meet">
<metadata>
Created by potrace 1.14, written by Peter Selinger 2001-2017
</metadata>
<g transform="translate(0.000000,714.000000) scale(0.100000,-0.100000)"
fill="#000000" stroke="none">
<path d="M385 7134 c-98 -21 -195 -62 -240 -101 -34 -31 -82 -96 -99 -136 -48
-116 -46 40 -45 -3334 1 -3430 -3 -3219 56 -3339 52 -107 174 -191 308 -213
38 -6 1210 -10 3215 -10 3317 0 3199 -2 3304 40 37 15 116 67 134 88 48 57 84
129 101 198 19 76 20 157 18 3258 -1 1749 -6 3194 -10 3210 -24 95 -65 173
-119 225 -38 36 -127 84 -178 96 -19 4 -42 10 -50 13 -17 6 -6365 11 -6395 5z"/>
</g>
</svg>
