<svg xmlns="http://www.w3.org/2000/svg" viewBox="0 0 76.24 92.26"><defs><style>.cls-1{fill:#f9e21f;}.cls-2{fill:#f89a28;}.cls-3{opacity:0.4;}.cls-4{fill:#fff;}.cls-5{opacity:0.3;}.cls-6{fill:#6b184e;}.cls-7{fill:#e99528;}.cls-8{fill:#ff6c6c;}.cls-9{fill:#972e20;}path{fill: #000;.cls-10{fill:#ec2e7a;}</style></defs><g id="Layer_2" data-name="Layer 2"><g id="Layer_1-2" data-name="Layer 1"><circle class="cls-1" cx="38.12" cy="46.29" r="38.12"/><path d="M6.52,91.54a21.58,21.58,0,0,1,3.83-.36c1.28,0,2.55,0,3.83,0s2.55,0,3.83,0H62.06c.64,0,1.28,0,1.92,0a13.12,13.12,0,0,1,3.83.37.18.18,0,0,1,.12.22.16.16,0,0,1-.12.12,13.48,13.48,0,0,1-3.83.38c-.64,0-1.28,0-1.92,0H18l-3.83,0c-1.28,0-2.55,0-3.83,0a19.86,19.86,0,0,1-3.83-.36.18.18,0,0,1-.14-.2A.2.2,0,0,1,6.52,91.54Z"/><path class="cls-2" d="M18.47,56.42s-4-2.27-3.26-6.61c.65-3.68,3.89-4.68,5.67-5a.91.91,0,0,1,1,1c-.2,2.31-.08,7.76,4.9,10.59Z"/><g class="cls-3"><path class="cls-4" d="M26.82,56.42H24.57c-3.65-3-3.73-7.59-3.55-9.67a.91.91,0,0,0-1-1,7.77,7.77,0,0,0-3.7,1.52,7,7,0,0,1,4.6-2.44.91.91,0,0,1,1,1C21.72,48.14,21.84,53.59,26.82,56.42Z"/></g><path class="cls-4" d="M26.82,56.42H18.47s-4-2.27-3.26-6.62a5.53,5.53,0,0,1,2-3.45A5.53,5.53,0,0,0,17,49.7c1,4.31,5.56,4.85,5.56,4.85L24,54A9.27,9.27,0,0,0,26.82,56.42Z"/><path d="M28.68,56.91H18.34l-.11-.06c-.05,0-4.32-2.49-3.5-7.13.7-4,4.11-5,6.08-5.35a1.41,1.41,0,0,1,1.16.36,1.44,1.44,0,0,1,.44,1.14C22.22,48,22.31,53.3,27.06,56Zm-10.08-1h6.62c-3.9-3.12-4-8-3.79-10.14a.43.43,0,0,0-.13-.34.44.44,0,0,0-.35-.11c-1.71.26-4.66,1.2-5.25,4.55C15.06,53.5,18,55.55,18.6,55.93Z"/><g class="cls-5"><path class="cls-6" d="M26.82,56.42H18.47s-4-2.27-3.26-6.62a5.74,5.74,0,0,1,.91-2.28c0,.06,0,.12,0,.18.33,4.4,4.8,5.6,4.8,5.6l2.25-.57A9.17,9.17,0,0,0,26.82,56.42Z"/><path d="M27.11,56.5H18.43s-4.06-2.35-3.29-6.7a5.7,5.7,0,0,1,.92-2.31l.13-.19v.23a1,1,0,0,0,0,.17c.31,4.16,4.4,5.44,4.72,5.53l2.29-.58,0,0a9.17,9.17,0,0,0,3.61,3.67Zm-8.62-.15h8.05a9.36,9.36,0,0,1-3.4-3.53l-2.21.56h0c-.05,0-4.49-1.26-4.85-5.63a5.66,5.66,0,0,0-.77,2.07C14.56,53.92,18.21,56.18,18.49,56.35Z"/></g><path class="cls-2" d="M52.16,65h-30s-2.59,1-.85-9.11c.69-4,2.69-6.11,4-9a12.79,12.79,0,0,0,.51-1.36h0a12.84,12.84,0,0,0,.57-3.14c0-.25,0-.51,0-.79H47.94c0,.24,0,.48,0,.7a12.67,12.67,0,0,0,.61,3.32,11.16,11.16,0,0,0,.48,1.27c1.27,2.9,3.27,5,4,9C54.74,66.06,52.16,65,52.16,65Z"/><path class="cls-4" d="M46.69,50.41c-2.58,3-2.33,8-2.33,8H30s.24-5-2.33-8a7.31,7.31,0,0,1-1.88-4.87h0a12.84,12.84,0,0,0,.57-3.13,6.56,6.56,0,0,1,.35-.8H47.65a6.77,6.77,0,0,1,.31.7,12.67,12.67,0,0,0,.61,3.32A7.32,7.32,0,0,1,46.69,50.41Z"/><path d="M52.35,65.54a.9.9,0,0,1-.38-.07l.37-.91h0s.1,0,.21-.08c.29-.27,1.16-1.67,0-8.47a17.64,17.64,0,0,0-2.47-6.14,15.59,15.59,0,0,1-2.59-7.76H26.87a15.59,15.59,0,0,1-2.59,7.76A17.45,17.45,0,0,0,21.81,56c-1.17,6.8-.3,8.2,0,8.47.11.1.19.09.21.08h0l.36.91a1.13,1.13,0,0,1-1.14-.21c-1.18-1-1.3-4-.37-9.43a18.45,18.45,0,0,1,2.59-6.46,14.4,14.4,0,0,0,2.47-7.76v-.49H48.43v.49a14.4,14.4,0,0,0,2.47,7.76,18.45,18.45,0,0,1,2.59,6.46c.92,5.4.81,8.48-.37,9.43A1.22,1.22,0,0,1,52.35,65.54Z"/><g class="cls-5"><path d="M49.05,46.9a21.2,21.2,0,0,1-23.77,0,12.79,12.79,0,0,0,.51-1.36h0c.07-.21.13-.43.19-.65a10.61,10.61,0,0,0,.24-1.2,22.82,22.82,0,0,0,21.91.16,10.6,10.6,0,0,0,.22,1c.07.25.14.5.22.74A11.16,11.16,0,0,0,49.05,46.9Z"/></g><g class="cls-5"><path class="cls-6" d="M27.69,53.55a1.32,1.32,0,0,0-.6,1.05c-.19,1.25,0,3.24-1.38,4.75-2,2.16-7.12,2.68-8.71-.07a7.81,7.81,0,0,1-.74-5.73Z"/><path d="M21,61.24c-.25,0-.5,0-.74,0a4.16,4.16,0,0,1-3.29-1.88,7.87,7.87,0,0,1-.76-5.79l0-.05H28l-.29.14a1.22,1.22,0,0,0-.56,1q-.06.39-.09.87a6.1,6.1,0,0,1-1.32,3.92A6.79,6.79,0,0,1,21,61.24Zm-4.66-7.61a7.79,7.79,0,0,0,.76,5.61A4,4,0,0,0,20.24,61a6.81,6.81,0,0,0,5.41-1.74,5.9,5.9,0,0,0,1.28-3.82c0-.32,0-.62.08-.89a1.57,1.57,0,0,1,.44-1Z"/></g><g class="cls-5"><path class="cls-6" d="M46.48,53.55a1.35,1.35,0,0,1,.61,1.05c.18,1.25,0,3.24,1.38,4.75,2,2.16,7.12,2.68,8.7-.07a7.77,7.77,0,0,0,.75-5.73Z"/><path d="M53.21,61.24a6.83,6.83,0,0,1-4.8-1.83,6.15,6.15,0,0,1-1.32-3.92c0-.32,0-.61-.08-.87a1.24,1.24,0,0,0-.56-1l-.29-.14H58v.05a7.91,7.91,0,0,1-.75,5.79A4.16,4.16,0,0,1,54,61.2C53.71,61.22,53.46,61.24,53.21,61.24Zm-6.48-7.61a1.57,1.57,0,0,1,.43,1c0,.27.06.57.09.89a6,6,0,0,0,1.27,3.82A6.82,6.82,0,0,0,53.93,61a4,4,0,0,0,3.17-1.8,7.69,7.69,0,0,0,.76-5.61Z"/></g><path class="cls-7" d="M59,54.15h0a118.61,118.61,0,0,1,0,37.42H15.29a118.61,118.61,0,0,1,0-37.42H59Z"/><path d="M15.29,91.65h-.06v-.07a118.15,118.15,0,0,1,0-37.44v-.06H59.1v.06a118.15,118.15,0,0,1,0,37.44v.07Zm.07-.16H59a118.19,118.19,0,0,0,0-37.26H15.36A118.19,118.19,0,0,0,15.36,91.49Z"/><path class="cls-7" d="M60.52,72.59a118.45,118.45,0,0,1-1.48,19H15.29a118.59,118.59,0,0,1-1.48-18.71v-.27c0-3.38.16-6.75.45-10.11.25-2.79.59-5.56,1-8.33H59c.44,2.77.78,5.54,1,8.33C60.36,65.84,60.52,69.21,60.52,72.59Z"/><path d="M59.1,91.65H15.23v-.07a118.54,118.54,0,0,1-1.49-18.72v-.27c0-3.37.16-6.77.46-10.12.24-2.77.59-5.58,1-8.33v-.06H59.1v.06c.44,2.75.79,5.56,1,8.33.3,3.35.45,6.75.46,10.12a119.57,119.57,0,0,1-1.49,19Zm-43.74-.16H59a119.61,119.61,0,0,0,1.48-18.9h0c0-3.36-.16-6.76-.46-10.1-.24-2.76-.58-5.53-1-8.26H15.36c-.44,2.73-.78,5.5-1,8.26-.3,3.34-.45,6.74-.46,10.1v.27A118.59,118.59,0,0,0,15.36,91.49Z"/><g class="cls-5"><path d="M60.52,72.59a118.45,118.45,0,0,1-1.48,19H15.29c-.15-.93-.28-1.87-.41-2.8l-.58-5.12A14.91,14.91,0,0,0,21,87.38c11.89,3,25.67,1.83,30.56-.26,3.2-1.37,5.13-3.17,5.81-6,1-4.21-.89-8.53-5.22-8.53H13.81c0-3.38.16-6.75.45-10.11l1-3.67H59l1,3.67C60.36,65.84,60.52,69.21,60.52,72.59Z"/></g><path d="M15.29,92.06a.48.48,0,0,1-.48-.41,118.38,118.38,0,0,1,0-37.57.49.49,0,0,1,.48-.42H59a.49.49,0,0,1,.48.42,118.38,118.38,0,0,1,0,37.57.48.48,0,0,1-.48.41Zm.42-1H58.62a117.74,117.74,0,0,0,0-36.43H15.71A117.74,117.74,0,0,0,15.71,91.08Z"/><polygon class="cls-7" points="62.9 67.93 11.43 67.93 14.86 55.68 14.86 55.68 14.86 55.68 15.29 54.15 59.04 54.15 62.9 67.93"/><path d="M63,68H11.33l3.9-13.93H59.1Zm-51.47-.16H62.8L59,54.23H15.35Z"/><g class="cls-3"><polygon class="cls-4" points="14.86 56.91 14.86 56.91 14.86 56.91 15.29 55.38 59.04 55.38 62.56 67.93 62.9 67.93 59.04 54.15 15.29 54.15 14.86 55.68 14.86 55.68 14.86 55.68 11.43 67.93 11.77 67.93 14.86 56.91"/></g><g class="cls-3"><path class="cls-4" d="M62.9,67.93H11.43l3.43-12.25c0,.22-1.42,9.61-.41,10.31,1.21.85,13.86.71,25.69.59,9.21-.1,18.16,0,19.27-.59,1.69-.85-.21-9.29-.82-11.84H59Z"/></g><path d="M62.9,68.42H11.43a.48.48,0,0,1-.39-.19A.45.45,0,0,1,11,67.8L14.82,54a.49.49,0,0,1,.47-.36H59a.49.49,0,0,1,.47.36L63.37,67.8a.45.45,0,0,1-.08.43A.49.49,0,0,1,62.9,68.42Zm-50.82-1H62.25L58.67,54.65h-43Z"/><path class="cls-4" d="M27.13,53.54c-.54,0-.81.36-.9.89-.16,1,0,2.51-1.17,3.68-1.67,1.67-6,2.07-7.38-.06-1.13-1.78-1.11-4.26-.09-5.45,2.17-2.56,5.88-2.68,8.54-1.37a17.66,17.66,0,0,1,2.81,2.31Z"/><g class="cls-5"><path d="M28.94,53.54H27.13c-.54,0-.81.36-.9.89-.16,1,0,2.51-1.17,3.68-1.67,1.67-6,2.07-7.38-.06a5.53,5.53,0,0,1-.76-2l.1.16c1.34,2.13,5.72,1.73,7.39.06,1.17-1.17,1-2.71,1.17-3.68h0a.83.83,0,0,1,1.36-.49l1.43,1.21L28,52.62C28.5,53.11,28.94,53.54,28.94,53.54Z"/></g><path d="M21.06,60a6.62,6.62,0,0,1-.77,0,4,4,0,0,1-3-1.64c-1.21-1.93-1.23-4.64-.05-6,2.35-2.78,6.38-2.85,9.13-1.49a17.28,17.28,0,0,1,2.94,2.4l.85.84h-3c-.13,0-.34,0-.41.48,0,.19,0,.41-.07.64a4.91,4.91,0,0,1-1.24,3.31A6.42,6.42,0,0,1,21.06,60Zm1.52-9.09a5.94,5.94,0,0,0-4.62,2c-.9,1.07-.84,3.35.13,4.88A3,3,0,0,0,20.4,59a5.7,5.7,0,0,0,4.31-1.22,3.92,3.92,0,0,0,1-2.69c0-.25,0-.49.08-.72a1.36,1.36,0,0,1,1.38-1.3h.57a10.84,10.84,0,0,0-1.79-1.38A7.71,7.71,0,0,0,22.58,50.91Z"/><path class="cls-4" d="M47.19,53.54c.54,0,.81.36.9.89.16,1,0,2.51,1.17,3.68,1.67,1.67,6.05,2.07,7.39-.06,1.12-1.78,1.1-4.26.09-5.45-2.17-2.56-5.89-2.68-8.54-1.37a17.66,17.66,0,0,0-2.81,2.31Z"/><path d="M53.26,60a6.4,6.4,0,0,1-4.34-1.54,4.81,4.81,0,0,1-1.24-3.31c0-.23,0-.45-.07-.64-.08-.48-.28-.48-.42-.48h-3l.85-.84A17.71,17.71,0,0,1,48,50.79c2.76-1.36,6.78-1.29,9.13,1.49,1.19,1.4,1.17,4.11,0,6A4,4,0,0,1,54,60,6.51,6.51,0,0,1,53.26,60Zm-6.63-7h.56a1.37,1.37,0,0,1,1.39,1.3c0,.23.05.47.07.72a4,4,0,0,0,1,2.69A5.72,5.72,0,0,0,53.92,59a3,3,0,0,0,2.31-1.19c1-1.53,1-3.81.13-4.88-2-2.39-5.53-2.43-7.94-1.24A10.44,10.44,0,0,0,46.63,53.05Z"/><g class="cls-5"><path d="M45.43,53.54h1.81c.54,0,.81.36.9.89.15,1,0,2.51,1.17,3.68,1.67,1.67,6,2.07,7.38-.06a5.72,5.72,0,0,0,.76-2,1.4,1.4,0,0,0-.1.16C56,58.37,51.63,58,50,56.3c-1.17-1.17-1-2.71-1.17-3.68h0a.83.83,0,0,0-1.36-.49L46,53.33l.42-.71C45.87,53.11,45.43,53.54,45.43,53.54Z"/></g><g class="cls-5"><path class="cls-4" d="M55.52,1.88a2.24,2.24,0,0,0-1.46.1C47.75,4.5,43.65,10.81,41.9,14.05a1.93,1.93,0,0,1-2.75.7h0S43.63,4.14,52.3.68C53.49.21,54.6.72,55.52,1.88Z"/><path d="M40.21,15.13a1.92,1.92,0,0,1-1.09-.33.06.06,0,0,1,0-.08c0-.11,4.59-10.68,13.18-14.1,1.17-.46,2.31,0,3.3,1.22a.08.08,0,0,1,0,.08.08.08,0,0,1-.08,0A2.18,2.18,0,0,0,54.08,2c-6.22,2.48-10.26,8.61-12.12,12a2,2,0,0,1-1.75,1.05Zm-1-.41a1.87,1.87,0,0,0,2.6-.7C43.71,10.57,47.77,4.41,54,1.92a2.3,2.3,0,0,1,1.31-.15,2.56,2.56,0,0,0-3-1C44.09,4,39.6,13.91,39.24,14.72Z"/></g><path class="cls-8" d="M51.64,19.61c-.78-1.43-3-3-4.8-4.09a3.35,3.35,0,0,1-1-4.79,25.43,25.43,0,0,1,6.17-6,1.74,1.74,0,0,1,2.69,1,18.67,18.67,0,0,1,.07,8.1,11.36,11.36,0,0,1-2.95,5.67"/><path d="M51.64,19.67a.06.06,0,0,1-.06,0c-.78-1.43-3-3-4.78-4.06a3.36,3.36,0,0,1-1.55-2.21,3.46,3.46,0,0,1,.55-2.67,25.45,25.45,0,0,1,6.19-6,1.8,1.8,0,0,1,1.68-.21,1.84,1.84,0,0,1,1.12,1.29,19.09,19.09,0,0,1,.07,8.13,11.58,11.58,0,0,1-3,5.7.06.06,0,0,1-.09,0,.07.07,0,0,1,0-.1,11.5,11.5,0,0,0,2.94-5.63,19,19,0,0,0-.07-8.07,1.69,1.69,0,0,0-1-1.19,1.65,1.65,0,0,0-1.55.19,25.31,25.31,0,0,0-6.15,6,3.31,3.31,0,0,0-.54,2.57,3.24,3.24,0,0,0,1.49,2.12c1.77,1.07,4,2.66,4.83,4.11a.09.09,0,0,1,0,.1Z"/><path class="cls-8" d="M49.83,15.46a11.52,11.52,0,0,1-.5,1.74,28.64,28.64,0,0,0-2.49-1.68,3.35,3.35,0,0,1-1-4.79,23.3,23.3,0,0,1,3.62-4,1.91,1.91,0,0,1,.29.63A18.86,18.86,0,0,1,49.83,15.46Z"/><path d="M49.33,17.27h0a26.1,26.1,0,0,0-2.49-1.68,3.36,3.36,0,0,1-1.55-2.21,3.46,3.46,0,0,1,.55-2.67,23,23,0,0,1,3.64-4h.05l0,0a1.78,1.78,0,0,1,.29.66,18.88,18.88,0,0,1,.07,8.12h0a11.34,11.34,0,0,1-.51,1.76.08.08,0,0,1,0,0Zm.14-10.43a23.19,23.19,0,0,0-3.56,3.93,3.35,3.35,0,0,0-.53,2.57,3.24,3.24,0,0,0,1.49,2.12c.92.56,1.74,1.11,2.43,1.63a13.86,13.86,0,0,0,.47-1.64h0a18.81,18.81,0,0,0-.07-8.07A1.45,1.45,0,0,0,49.47,6.84Z"/><g class="cls-5"><path class="cls-4" d="M16.12,3.36a2.28,2.28,0,0,1,1.46,0c6.49,2,11,8,13,11.13a1.92,1.92,0,0,0,2.79.48h0s-5.27-10.24-14.17-13C18,1.54,17,2.14,16.12,3.36Z"/><path d="M32.23,15.43a2,2,0,0,1-.34,0,2,2,0,0,1-1.33-.89c-2.11-3.28-6.61-9.09-13-11.09a2.16,2.16,0,0,0-1.42,0,.06.06,0,0,1-.07,0,.08.08,0,0,1,0-.08c.9-1.34,2-1.84,3.2-1.47,8.83,2.77,14.15,13,14.21,13.07a.1.1,0,0,1,0,.09A2.06,2.06,0,0,1,32.23,15.43ZM16.85,3.17a2.45,2.45,0,0,1,.75.12c6.43,2,11,7.85,13.07,11.15a1.87,1.87,0,0,0,2.65.5C32.9,14.16,27.67,4.64,19.22,2a2.56,2.56,0,0,0-2.93,1.25A2.1,2.1,0,0,1,16.85,3.17Z"/></g><path class="cls-8" d="M21.32,20.75c.67-1.48,2.74-3.19,4.48-4.44a3.34,3.34,0,0,0,.62-4.84,25.61,25.61,0,0,0-6.6-5.53,1.75,1.75,0,0,0-2.61,1.24,18.71,18.71,0,0,0,.54,8.09,11.4,11.4,0,0,0,3.37,5.43"/><path d="M21.32,20.81h0a.07.07,0,0,1,0-.09c.68-1.52,2.82-3.26,4.5-4.47A3.23,3.23,0,0,0,27.09,14a3.29,3.29,0,0,0-.73-2.52A25.27,25.27,0,0,0,19.78,6a1.66,1.66,0,0,0-1.56-.07,1.69,1.69,0,0,0-.95,1.26,18.93,18.93,0,0,0,.54,8.06,11.41,11.41,0,0,0,3.35,5.39.07.07,0,0,1,0,.1.06.06,0,0,1-.09,0,11.53,11.53,0,0,1-3.4-5.47,18.83,18.83,0,0,1-.54-8.11,1.81,1.81,0,0,1,1-1.36,1.78,1.78,0,0,1,1.69.08,25.45,25.45,0,0,1,6.62,5.53,3.47,3.47,0,0,1,.76,2.63,3.37,3.37,0,0,1-1.39,2.31c-1.66,1.2-3.79,2.93-4.46,4.41A.05.05,0,0,1,21.32,20.81Z"/><path class="cls-8" d="M22.81,16.48a13.42,13.42,0,0,0,.63,1.7,26.45,26.45,0,0,1,2.36-1.87,3.34,3.34,0,0,0,.62-4.84A22.92,22.92,0,0,0,22.5,7.75a1.74,1.74,0,0,0-.23.65A18.82,18.82,0,0,0,22.81,16.48Z"/><path d="M23.44,18.24h0a.09.09,0,0,1-.05,0,14.18,14.18,0,0,1-.64-1.71h0a19,19,0,0,1-.54-8.11,1.8,1.8,0,0,1,.25-.68l0,0s0,0,.05,0a23.35,23.35,0,0,1,3.93,3.72,3.42,3.42,0,0,1,.75,2.63,3.33,3.33,0,0,1-1.38,2.31,29.26,29.26,0,0,0-2.35,1.87ZM22.52,7.85a1.77,1.77,0,0,0-.19.56,18.89,18.89,0,0,0,.54,8.05h0a12.56,12.56,0,0,0,.6,1.61,25.83,25.83,0,0,1,2.29-1.82A3.19,3.19,0,0,0,27.09,14a3.32,3.32,0,0,0-.72-2.52A23.25,23.25,0,0,0,22.52,7.85Z"/><path class="cls-2" d="M59.08,32.46c-1.7-.78-3.22-3.56-3.65-5-.25-.81-.84-2.4-1.29-3.6C61.77,17,58.18-1.46,52.71.72c-6.17,2.46-10.21,8.55-12,11.85a16.39,16.39,0,0,0-4.44-.28,16.52,16.52,0,0,0-4.5.64C29.68,9.78,25.18,4,18.83,2,13.2.23,11,19,19.24,25.28c-.36,1.23-.81,2.81-1,3.62-.32,1.43-1.62,4.31-3.26,5.22-1,.54-1,1.36-.29,2a3.7,3.7,0,0,0,2.18.71h.24l-1.78,1.27c-1.21.86-.17,1.92,2,2.93a41,41,0,0,1,5.48,3.82,18.69,18.69,0,0,0,5.42,2.52,29.19,29.19,0,0,0,9.41,1.1h0c9.45-.36,14-4.33,14.51-4.72a40.34,40.34,0,0,1,5.18-4.22c2.05-1.17,3-2.3,1.73-3.08l-1.87-1.13.23,0a3.64,3.64,0,0,0,2.13-.88C60.17,33.75,60.09,32.93,59.08,32.46Z"/><g class="cls-3"><path class="cls-4" d="M52.78,2.45c-5.21,2.07-8.47,7.25-10.45,10.8a2.94,2.94,0,0,1-2.87,1.5,25.22,25.22,0,0,0-3.13-.13,24.6,24.6,0,0,0-3.2.38,3,3,0,0,1-3-1.26c-2.24-3.4-5.88-8.34-11.24-10-3-.94-5,3.92-5,9.62C13.39,6.88,15.51.79,18.82,1.83c6.36,2,10.86,7.78,12.91,10.94a16.37,16.37,0,0,1,4.5-.65,16.69,16.69,0,0,1,4.44.29C42.49,9.1,46.54,3,52.71.56c3.23-1.29,5.8,4.62,5.79,11.1C58.07,6,55.69,1.28,52.78,2.45Z"/></g><path class="cls-9" d="M17,36.8h.13l-.05,0Z"/><path d="M17.06,36.9h0l-.05,0h0a.09.09,0,0,1,0-.08.08.08,0,0,1,.07-.05h.12a.08.08,0,0,1,.07,0,.08.08,0,0,1,0,.08h0l0,0Z"/><path class="cls-4" d="M57.29,39.5a40.34,40.34,0,0,0-5.18,4.22c-.53.39-5.06,4.36-14.51,4.72h0a29.19,29.19,0,0,1-9.41-1.1,18.69,18.69,0,0,1-5.42-2.52A41,41,0,0,0,17.29,41c-2.13-1-3.17-2.07-2-2.93l1.78-1.27h-.24c.31-.11.65-.23,1-.33,3.07-.85,7.2,3.28,12.59.94,4.15-1.8,2-11.6,3-14.21l0-.08a3.37,3.37,0,0,1,6.15-.23.3.3,0,0,0,0,.08c1.21,2.52-.18,12.45,4.09,13.93C49.4,38.83,53.2,34.4,56.33,35c.38.08.73.17,1.05.26l-.23,0L59,36.42C60.3,37.2,59.34,38.33,57.29,39.5Z"/><path d="M31.74,13.47a.54.54,0,0,1-.14-1.06,16.88,16.88,0,0,1,4.62-.66,16.85,16.85,0,0,1,4.56.29.55.55,0,0,1,.43.63.54.54,0,0,1-.64.43,16.14,16.14,0,0,0-4.27-.28h-.08a16.09,16.09,0,0,0-4.34.62Z"/><path d="M31.49,48.29A15.72,15.72,0,0,1,29.13,48a19.83,19.83,0,0,1-2.28-.66,23.74,23.74,0,0,1-4.3-2l-.28-.19L22,44.93l-.47-.36-.92-.71c-.61-.47-1.23-.92-1.87-1.34q-.46-.32-1-.6c-.16-.08-.32-.18-.49-.26l-.24-.12-.27-.14a10.25,10.25,0,0,1-1.07-.59,4.69,4.69,0,0,1-1-.84,2.07,2.07,0,0,1-.42-.72,1.64,1.64,0,0,1,0-.5,1.39,1.39,0,0,1,.15-.5,1.88,1.88,0,0,1,.55-.62l.13-.1.12-.08.24-.17.95-.68.12-.09h0l0,0a.47.47,0,0,0-.11.13.54.54,0,0,0-.06.32.56.56,0,0,0,.16.29.56.56,0,0,0,.17.09l.09,0h0l-.16,0c-.21,0-.43,0-.64-.09a4.2,4.2,0,0,1-1.27-.48,2.35,2.35,0,0,1-.59-.47,1.69,1.69,0,0,1-.42-.73,1.44,1.44,0,0,1,0-.94,1.67,1.67,0,0,1,.49-.7l.15-.12.15-.11.16-.1.06,0,0,0c.06-.05.13-.08.2-.14l.19-.15a6.86,6.86,0,0,0,1.32-1.67,12.76,12.76,0,0,0,1-2l.09-.26.08-.26a2.5,2.5,0,0,1,.07-.26l.07-.29c.1-.38.2-.76.31-1.14.21-.75.44-1.5.67-2.24a.51.51,0,0,1,.65-.35.52.52,0,0,1,.35.64c-.21.75-.41,1.5-.61,2.24-.1.38-.2.75-.29,1.12l-.06.28c0,.1-.05.2-.08.31l-.09.29-.1.3a13,13,0,0,1-1,2.22,8.3,8.3,0,0,1-1.57,2l-.26.21-.28.19-.14.08-.1.06-.08.06-.08.06a.83.83,0,0,0-.18.24.37.37,0,0,0,0,.21,1.14,1.14,0,0,0,.16.26,1.43,1.43,0,0,0,.33.25,2.67,2.67,0,0,0,.91.33,4.17,4.17,0,0,0,.51.08h.19l.13,0a.64.64,0,0,1,.22.14.62.62,0,0,1,.23.4.66.66,0,0,1-.08.47.74.74,0,0,1-.16.19l0,0h0l-.12.09-.95.67-.46.33a1.2,1.2,0,0,0-.23.23l0,.06a.2.2,0,0,0,0,.07.81.81,0,0,0,.18.29,3.56,3.56,0,0,0,.77.63,9.91,9.91,0,0,0,1,.54l.25.13.28.14c.18.09.35.2.53.3.35.21.69.42,1,.65.66.45,1.29.92,1.91,1.4l.92.73.45.36.23.17.2.15c.64.41,1.31.78,2,1.13s1.37.68,2.08,1,1.42.56,2.15.79a18.52,18.52,0,0,0,2.22.57h0a.19.19,0,0,1,.15.23A.19.19,0,0,1,31.49,48.29Z"/><path d="M54.63,23.71c.27.7.54,1.4.8,2.1.13.35.25.7.38,1.06l.17.54.18.48a12,12,0,0,0,1,1.87,8,8,0,0,0,1.32,1.61l.19.16a1.33,1.33,0,0,0,.19.14l.2.14.2.1,0,0,.07,0,.16.08.3.2a1.85,1.85,0,0,1,.52.64,1.4,1.4,0,0,1,.11.88,1.72,1.72,0,0,1-.33.75,2.87,2.87,0,0,1-1.08.85,4.55,4.55,0,0,1-1.2.39c-.1,0-.21,0-.31.06h0a.44.44,0,0,0,.16-.06.45.45,0,0,0,.21-.25.41.41,0,0,0,0-.29.53.53,0,0,0-.19-.27l.46.28,1,.58.12.08.06,0,.08,0c.09.07.19.14.29.23a1.46,1.46,0,0,1,.45.79,1.44,1.44,0,0,1-.13.89,2.6,2.6,0,0,1-.41.58,5.88,5.88,0,0,1-.93.82c-.33.23-.66.43-1,.62l-.12.08-.12.06-.22.14-.45.29a36.88,36.88,0,0,0-3.38,2.8l-.41.38-.44.39-.13.1-.12.08-.23.17-.48.32c-.64.41-1.31.78-2,1.12a22.59,22.59,0,0,1-4.23,1.61.26.26,0,0,1-.33-.19.26.26,0,0,1,.15-.32h0c.68-.29,1.36-.58,2-.9s1.31-.66,1.95-1,1.25-.74,1.86-1.15l.44-.31.21-.16.11-.08.09-.07.4-.36.41-.38a36.52,36.52,0,0,1,3.46-2.92c.16-.11.32-.22.49-.32l.25-.16L57,39l.12-.07c.31-.19.61-.38.89-.58a5.48,5.48,0,0,0,.75-.65A1.35,1.35,0,0,0,59,37.4a.27.27,0,0,0,0-.19.27.27,0,0,0-.11-.16l-.14-.11-.05,0,0,0-.12-.08-1-.57-.49-.3a.65.65,0,0,1-.28-.37.63.63,0,0,1,0-.43.72.72,0,0,1,.29-.36.79.79,0,0,1,.23-.08h0l.25,0a3.87,3.87,0,0,0,.91-.29,1.91,1.91,0,0,0,.67-.51.55.55,0,0,0,.12-.26.35.35,0,0,0,0-.2,1.12,1.12,0,0,0-.19-.22l-.16-.1-.1-.05-.12-.07-.29-.15-.26-.18L58,32.42c-.08-.07-.17-.13-.24-.2a9.36,9.36,0,0,1-1.51-1.84,13.12,13.12,0,0,1-1.08-2.07c-.07-.18-.14-.37-.2-.56l-.17-.53c-.11-.35-.23-.69-.36-1q-.36-1-.75-2.1a.52.52,0,0,1,1-.37Z"/><path class="cls-8" d="M54.79,13.87a11.36,11.36,0,0,1-2.95,5.67l-.2.07a8.9,8.9,0,0,0-2.31-2.41,28.64,28.64,0,0,0-2.49-1.68,3.35,3.35,0,0,1-1-4.79,23.3,23.3,0,0,1,3.62-4,31.4,31.4,0,0,1,2.55-2,1.74,1.74,0,0,1,2.69,1A18.68,18.68,0,0,1,54.79,13.87Z"/><g class="cls-5"><path d="M49.83,15.46a11.52,11.52,0,0,1-.5,1.74,28.64,28.64,0,0,0-2.49-1.68,3.35,3.35,0,0,1-1-4.79,23.3,23.3,0,0,1,3.62-4,1.91,1.91,0,0,1,.29.63A18.86,18.86,0,0,1,49.83,15.46Z"/></g><path d="M51.39,19.74a5.22,5.22,0,0,0-.81-1,11.34,11.34,0,0,0-1-.85c-.34-.26-.69-.52-1-.77s-.73-.48-1.11-.71l-.56-.34-.28-.17-.14-.08-.16-.09a3.19,3.19,0,0,1-1.2-4.17l.09-.17,0-.09,0-.07.19-.29.37-.57.4-.55.2-.28.22-.27.43-.53.46-.5c.15-.17.31-.34.47-.5s.31-.33.48-.48A18.36,18.36,0,0,1,50.6,5.56a14.25,14.25,0,0,1,2.32-1.39.16.16,0,0,1,.21.08.14.14,0,0,1-.05.18h0a25.07,25.07,0,0,0-2,1.65q-.5.44-1,.9l-.47.46-.44.48a24.83,24.83,0,0,0-1.68,2l-.19.26-.19.26-.37.54-.36.54-.17.28,0,.07,0,.06-.06.12a2.26,2.26,0,0,0,.06,2.07,2.13,2.13,0,0,0,.74.78L47,15l.14.09.29.18.56.37a19.16,19.16,0,0,1,2.16,1.67,8.89,8.89,0,0,1,1,1,5.47,5.47,0,0,1,.79,1.17.27.27,0,0,1-.13.37.27.27,0,0,1-.36-.1Z"/><path class="cls-8" d="M17.75,15.27a11.4,11.4,0,0,0,3.37,5.43l.2.05a8.68,8.68,0,0,1,2.12-2.57,26.45,26.45,0,0,1,2.36-1.87,3.34,3.34,0,0,0,.62-4.84A22.92,22.92,0,0,0,22.5,7.75a27,27,0,0,0-2.69-1.81,1.74,1.74,0,0,0-2.6,1.24A18.71,18.71,0,0,0,17.75,15.27Z"/><g class="cls-5"><path d="M22.81,16.48a13.42,13.42,0,0,0,.63,1.7,26.45,26.45,0,0,1,2.36-1.87,3.34,3.34,0,0,0,.62-4.84A22.92,22.92,0,0,0,22.5,7.75a1.74,1.74,0,0,0-.23.65A18.82,18.82,0,0,0,22.81,16.48Z"/></g><path d="M21.07,20.63a4.9,4.9,0,0,1,.7-1.22,10.1,10.1,0,0,1,.88-1.06,20.47,20.47,0,0,1,2-1.82l.54-.42.27-.2.13-.1.13-.1a2.29,2.29,0,0,0,.68-.83,2.26,2.26,0,0,0-.1-2.07l-.07-.12,0,0,0-.07-.2-.26-.39-.52-.41-.5L25,11l-.21-.24a23,23,0,0,0-1.82-1.87l-.48-.45L22,8.05c-.34-.28-.67-.57-1-.83a23.14,23.14,0,0,0-2.17-1.49h0a.16.16,0,0,1-.06-.22.16.16,0,0,1,.19-.06A14.07,14.07,0,0,1,21.3,6.67a18.15,18.15,0,0,1,2.22,1.57c.18.14.34.3.52.44s.34.3.5.46l.49.47.47.5.24.25.22.26.44.52.41.54L27,12l.05.07.06.08.1.16a3.28,3.28,0,0,1,.45,1.52,3.21,3.21,0,0,1-1.34,2.73.94.94,0,0,1-.14.1l-.14.1-.27.18-.53.39c-.36.26-.71.52-1.05.79s-.67.56-1,.84-.62.6-.91.92a5.45,5.45,0,0,0-.73,1h0a.27.27,0,0,1-.37.12A.28.28,0,0,1,21.07,20.63Z"/><path class="cls-8" d="M40,38.65c.11,2.93-1,5.36-2.57,5.41s-2.85-2.27-3-5.21"/><path d="M37.38,44.13c-1.54,0-2.87-2.34-3-5.27a.07.07,0,0,1,.07-.07.07.07,0,0,1,.07.06c.1,2.89,1.4,5.2,2.89,5.15s2.61-2.46,2.5-5.35a.07.07,0,0,1,.07-.07s.07,0,.07.06c.11,3-1.07,5.43-2.63,5.49Z"/><path class="cls-10" d="M40,39.31a8.5,8.5,0,0,1-.45,2.6c-.46,1.28-1.22,2.12-2.12,2.16s-1.71-.76-2.27-2a8.29,8.29,0,0,1-.64-2.55Z"/><path d="M37.38,44.14c-.88,0-1.71-.74-2.29-2a8.64,8.64,0,0,1-.65-2.58v-.08l5.65-.21v.08a8.25,8.25,0,0,1-.46,2.62c-.49,1.37-1.29,2.18-2.18,2.21ZM34.6,39.59A8.54,8.54,0,0,0,35.23,42c.57,1.27,1.37,2,2.2,2s1.58-.8,2-2.11a8.36,8.36,0,0,0,.44-2.49Z"/><path d="M37.13,42.11l-.34-3a.46.46,0,1,1,.91-.1V39l-.11,3.05a.23.23,0,0,1-.24.23A.24.24,0,0,1,37.13,42.11Z"/><path d="M37.36,44.52c-1.74,0-3.21-1.88-3.3-4.26a.47.47,0,0,1,.44-.48.46.46,0,0,1,.48.44c.07,1.92,1.17,3.44,2.44,3.39a2,2,0,0,0,1.54-1,4.3,4.3,0,0,0,.63-2.54.47.47,0,0,1,.45-.47.45.45,0,0,1,.47.44,5.29,5.29,0,0,1-.78,3.07,2.86,2.86,0,0,1-2.28,1.43Z"/><g class="cls-5"><path d="M42.45,38.24c-.1,1.57-1.07,3.51-3,3.4a2.62,2.62,0,0,1-2.21-1.29h0a2.64,2.64,0,0,1-2.1,1.45c-1.71.26-3-1.56-3.19-3.12"/></g><path class="cls-4" d="M41.94,38a2.17,2.17,0,0,1-2.5,2.28,2.4,2.4,0,0,1-2.22-1.88h0a2.4,2.4,0,0,1-2.08,2,2.17,2.17,0,0,1-2.66-2.08"/><path d="M34.64,40.56a2.22,2.22,0,0,1-1.34-.41,2.59,2.59,0,0,1-.92-1.77.08.08,0,0,1,.06-.08s.07,0,.07.06A2.49,2.49,0,0,0,33.38,40a2.28,2.28,0,0,0,1.72.35,2.32,2.32,0,0,0,2-2,.07.07,0,0,1,.07,0h0a.08.08,0,0,1,.07,0,2.47,2.47,0,0,0,3.85,1.35A2.49,2.49,0,0,0,41.88,38,.06.06,0,0,1,42,38S42,38,42,38a2.56,2.56,0,0,1-.79,1.83,2.37,2.37,0,0,1-1.78.51,2.43,2.43,0,0,1-2.23-1.73,2.42,2.42,0,0,1-2.09,1.89A3.88,3.88,0,0,1,34.64,40.56Z"/><g class="cls-5"><path d="M41.94,38a2.17,2.17,0,0,1-2.5,2.28,2.4,2.4,0,0,1-2.22-1.88h0a2.38,2.38,0,0,1-2.08,2,2.17,2.17,0,0,1-2.66-2.08l.42,0a2.11,2.11,0,0,0,2.19.8,2.36,2.36,0,0,0,1.63-.94l1,0a2.36,2.36,0,0,0,1.7.82,2.13,2.13,0,0,0,2.12-1Z"/></g><path d="M34.64,41a2.6,2.6,0,0,1-1.57-.49,3,3,0,0,1-1.08-2,.46.46,0,0,1,.91-.12,2,2,0,0,0,.72,1.41A1.84,1.84,0,0,0,35,40a1.92,1.92,0,0,0,1.7-1.66.44.44,0,0,1,.43-.38h0a.44.44,0,0,1,.46.34,1.92,1.92,0,0,0,1.82,1.53,1.82,1.82,0,0,0,1.4-.38A2,2,0,0,0,41.49,38a.46.46,0,0,1,.91.06,2.89,2.89,0,0,1-.92,2.1,3,3,0,0,1-4.23-.58,2.77,2.77,0,0,1-2.07,1.35A5.29,5.29,0,0,1,34.64,41Z"/><path d="M54.14,24.44a.54.54,0,0,1-.36-.94c5.3-4.81,5.08-15.94,2.14-20.67-.64-1-1.68-2.13-3-1.61-6,2.39-9.94,8.3-11.76,11.61a.54.54,0,0,1-.95-.52c1.9-3.44,6-9.58,12.31-12.09,1.58-.63,3.11.1,4.32,2C58.37,4.72,59.23,9,59,13.06c-.25,4.83-1.85,8.82-4.52,11.24A.54.54,0,0,1,54.14,24.44Z"/><path d="M19.24,25.82a.51.51,0,0,1-.33-.11c-2.87-2.18-4.79-6-5.43-10.84-.53-4.07,0-8.39,1.33-11C15.88,1.82,17.36,1,19,1.48c6.48,2,11.05,7.86,13.2,11.15a.55.55,0,0,1-.16.75.53.53,0,0,1-.74-.16c-2.07-3.17-6.46-8.78-12.62-10.71-1.37-.43-2.33.78-2.89,1.87-2.3,4.44-2.28,15.86,3.79,20.47a.55.55,0,0,1,.1.76A.54.54,0,0,1,19.24,25.82Z"/><g class="cls-5"><path d="M57.29,39.5a40.34,40.34,0,0,0-5.18,4.22c-.54.39-5.06,4.36-14.51,4.71h0a29.19,29.19,0,0,1-9.41-1.1,18.69,18.69,0,0,1-5.42-2.52A41,41,0,0,0,17.29,41c-2.13-1-3.17-2.07-2-2.94.19-.13.37-.25.52-.37,4.64,3.35,12.69,8,21.63,7.68s16.62-5.59,21-9.28l.54.33C60.29,37.2,59.34,38.33,57.29,39.5Z"/></g><path d="M37.17,38.1a.46.46,0,0,1-.45-.44l-.06-1.61a.44.44,0,0,1,.44-.47.45.45,0,0,1,.47.44l.06,1.6a.46.46,0,0,1-.44.48Z"/><path d="M40,35.49c0,.95-1.27,2.27-2.94,2.34S34,36.67,34,35.72s1.31-1.08,3-1.14S40,34.54,40,35.49Z"/><path class="cls-4" d="M38.28,35.29c0,.2-.57.5-1.29.53s-1.33-.23-1.33-.44.58-.24,1.3-.27S38.28,35.08,38.28,35.29Z"/><path d="M36.88,35.88a2.57,2.57,0,0,1-.85-.13c-.27-.1-.43-.23-.44-.36s.25-.24.43-.27a6.85,6.85,0,0,1,.94-.07,7.25,7.25,0,0,1,.94,0c.19,0,.44.06.44.23s-.64.58-1.35.6Zm.65-.72H37a8.49,8.49,0,0,0-.92.07c-.29,0-.32.12-.32.14s.11.17.35.25a2.47,2.47,0,0,0,.92.13c.72,0,1.24-.33,1.23-.47s0-.09-.33-.12Z"/><ellipse cx="28.7" cy="31.34" rx="3.52" ry="2.48" transform="translate(-5.3 56.84) rotate(-84.39)"/><ellipse class="cls-4" cx="29.38" cy="30.85" rx="1.18" ry="0.75" transform="translate(-4.19 57.08) rotate(-84.39)"/><path d="M29.32,32.11h-.06a.76.76,0,0,1-.56-.44,1.75,1.75,0,0,1-.14-.9,1.57,1.57,0,0,1,.32-.85.65.65,0,0,1,1.18.12,1.62,1.62,0,0,1,.15.89h0a1.74,1.74,0,0,1-.32.85A.77.77,0,0,1,29.32,32.11Zm.13-2.36A.58.58,0,0,0,29,30a1.5,1.5,0,0,0-.29.78,1.53,1.53,0,0,0,.13.81.51.51,0,0,0,.93.09,1.55,1.55,0,0,0,.28-.77h0a1.42,1.42,0,0,0-.13-.81.56.56,0,0,0-.43-.36Z"/><ellipse cx="45.18" cy="30.8" rx="2.48" ry="3.52" transform="translate(-2.79 4.56) rotate(-5.61)"/><ellipse class="cls-4" cx="44.5" cy="30.31" rx="0.75" ry="1.18" transform="matrix(1, -0.1, 0.1, 1, -2.75, 4.49)"/><path d="M44.56,31.57a.77.77,0,0,1-.57-.33,1.74,1.74,0,0,1-.32-.85c-.06-.69.25-1.29.7-1.33s.88.48,1,1.17a1.75,1.75,0,0,1-.14.9.72.72,0,0,1-.56.43Zm-.73-1.19a1.55,1.55,0,0,0,.28.77.56.56,0,0,0,.5.26.58.58,0,0,0,.43-.35,1.53,1.53,0,0,0,.13-.81c-.06-.61-.41-1.08-.78-1s-.62.56-.56,1.17Z"/><path class="cls-4" d="M44.46,80.27a1.87,1.87,0,0,0,.88-1.36,1.83,1.83,0,0,0-3.62-.48l-8.46-1a1.83,1.83,0,0,0-3.64-.37,1.81,1.81,0,0,0,.55,1.53A1.81,1.81,0,0,0,29.28,80a1.83,1.83,0,0,0,3.63.48l8.45,1a1.83,1.83,0,0,0,3.64.36A1.82,1.82,0,0,0,44.46,80.27Z"/><path d="M43.19,83.79h-.26a2.21,2.21,0,0,1-2-2l-7.78-.91a2.22,2.22,0,0,1-3.84.68,2.24,2.24,0,0,1-.46-1.63,2.14,2.14,0,0,1,.71-1.38A2.17,2.17,0,0,1,29.24,77a2.2,2.2,0,0,1,2.45-1.94,2.19,2.19,0,0,1,1.95,2l7.78.91A2.21,2.21,0,1,1,45,80.33a2.21,2.21,0,0,1-1.83,3.46ZM32.91,80.06h0l8.46,1a.39.39,0,0,1,.34.42,1.44,1.44,0,1,0,2.44-.93.35.35,0,0,1-.11-.32.4.4,0,0,1,.18-.29,1.42,1.42,0,0,0,.7-1.07,1.45,1.45,0,0,0-1.27-1.6,1.43,1.43,0,0,0-1.59,1.23.38.38,0,0,1-.43.32l-8.46-1a.39.39,0,0,1-.34-.41,1.44,1.44,0,1,0-2.44.91.41.41,0,0,1,.12.33.37.37,0,0,1-.19.28,1.45,1.45,0,0,0,.57,2.68,1.45,1.45,0,0,0,1.6-1.22A.38.38,0,0,1,32.91,80.06Z"/></g></g></svg>