<svg xmlns="http://www.w3.org/2000/svg" viewBox="0 0 147.94 135.96"><defs><style>.cls-1{fill:#3e3d3d;}path{fill: #000;}.cls-2{opacity:0.25;}.cls-3{fill:#fff;}.cls-4{opacity:0.3;}.cls-5{opacity:0.2;}.cls-6{fill:#ffbd06;}.cls-7{fill:#f62872;}.cls-8{fill:#d6dbef;}.cls-9{fill:#ffdb9b;}.cls-10{opacity:0.55;}</style></defs><g id="Layer_2" data-name="Layer 2"><g id="bela_pozadina_i_okvir" data-name="bela pozadina i okvir"><circle class="cls-1" cx="86.92" cy="61.02" r="61.02"/><g class="cls-2"><path d="M136.51,35.94a6.67,6.67,0,0,0-3.8-3.39L120,28.12l-.46-5a6.65,6.65,0,0,0-7.23-6L93.47,18.86,75.62,12.64a6.65,6.65,0,0,0-8.47,4.09l-1.64,4.7L52.09,22.66a6.66,6.66,0,0,0-6,7.23l3.43,37.4L37.13,102.75a6.66,6.66,0,0,0,4.09,8.48l12.72,4.44.46,5a6.65,6.65,0,0,0,6.62,6l.61,0,18.82-1.73,17.85,6.23a6.67,6.67,0,0,0,8.48-4.09l1.64-4.71,13.42-1.23a6.65,6.65,0,0,0,6-7.23l-3.43-37.4L136.8,41A6.66,6.66,0,0,0,136.51,35.94Z"/></g><path class="cls-3" d="M118.52,116.94l-9.49.87-38.59,3.54-12.13,1.11a5.7,5.7,0,0,1-6.19-5.15l-.22-2.43L48.16,74.17,43.8,26.58A5.7,5.7,0,0,1,49,20.38l18.58-1.7,15.68-1.44,26-2.38A5.7,5.7,0,0,1,115.35,20l.8,8.72,5,54.39,2.53,27.63A5.7,5.7,0,0,1,118.52,116.94Z"/><path d="M57.78,122.63a5.86,5.86,0,0,1-5.81-5.3L43.65,26.59a5.85,5.85,0,0,1,5.29-6.35l60.2-5.52A5.85,5.85,0,0,1,115.5,20l8.32,90.74a5.85,5.85,0,0,1-5.29,6.35l-60.2,5.52A5.15,5.15,0,0,1,57.78,122.63ZM109.68,15a4.35,4.35,0,0,0-.51,0L49,20.53a5.55,5.55,0,0,0-5,6l8.32,90.74a5.54,5.54,0,0,0,6,5l60.21-5.52a5.56,5.56,0,0,0,5-6L115.2,20A5.55,5.55,0,0,0,109.68,15Z"/><path d="M57.78,123.45a6.66,6.66,0,0,1-6.61-6L42.84,26.66a6.67,6.67,0,0,1,6-7.23l60.21-5.52a6.65,6.65,0,0,1,7.23,6l8.33,90.73a6.67,6.67,0,0,1-6,7.24h0L58.4,123.42C58.19,123.44,58,123.45,57.78,123.45ZM109.69,15.8a3.39,3.39,0,0,0-.45,0L49,21.34a4.75,4.75,0,0,0-4.29,5.15l8.33,90.74a4.73,4.73,0,0,0,5.15,4.28l60.2-5.52.09,1-.09-1a4.75,4.75,0,0,0,4.29-5.15L114.39,20.1a4.71,4.71,0,0,0-4.7-4.3Z"/><g class="cls-4"><path d="M121.14,83.12,109,117.81l-38.59,3.54L51.9,114.88,48.16,74.17,67.8,17.89a5.7,5.7,0,0,1,7.25-3.5l41.1,14.34Z"/></g><rect class="cls-3" x="32.48" y="32.74" width="102.51" height="71.85" rx="5.69" transform="translate(-8.68 125.1) rotate(-70.76)"/><path d="M97.27,127.48a5.84,5.84,0,0,1-1.93-.33L38.26,107.23a5.85,5.85,0,0,1-3.59-7.44l30-86a5.85,5.85,0,0,1,7.44-3.59l57.08,19.92a5.84,5.84,0,0,1,3.34,3,5.76,5.76,0,0,1,.25,4.46l-30,86a5.82,5.82,0,0,1-5.51,3.92ZM70.21,10.14A5.55,5.55,0,0,0,65,13.86l-30,86A5.56,5.56,0,0,0,38.36,107l57.08,19.92a5.53,5.53,0,0,0,4.24-.25,5.46,5.46,0,0,0,2.82-3.16l30-86,.14,0-.14,0a5.55,5.55,0,0,0-3.41-7.07L72,10.45A5.53,5.53,0,0,0,70.21,10.14Z"/><g class="cls-4"><path d="M132,37.22l-30,86a5.69,5.69,0,0,1-7.25,3.5L37.62,106.83a5.71,5.71,0,0,1-3.8-4.84,5.62,5.62,0,0,0,2.63,1.89L93.53,123.8a5.69,5.69,0,0,0,7.25-3.5l30-86a5.74,5.74,0,0,0,.3-2.41A5.67,5.67,0,0,1,132,37.22Z"/></g><path d="M97.27,128.29a6.59,6.59,0,0,1-2.19-.37L38,108a6.66,6.66,0,0,1-4.09-8.47l30-86a6.65,6.65,0,0,1,8.47-4.09l57.09,19.92a6.66,6.66,0,0,1,4.09,8.47l-30,86a6.65,6.65,0,0,1-6.28,4.46ZM70.2,11a4.84,4.84,0,0,0-2.06.47,4.7,4.7,0,0,0-2.41,2.71l-30,86a4.75,4.75,0,0,0,2.91,6l57.09,19.92h0a4.74,4.74,0,0,0,6-2.91l30-86a4.74,4.74,0,0,0-2.91-6L71.76,11.22A4.7,4.7,0,0,0,70.2,11Z"/><path d="M88.91,49.2h0a1.79,1.79,0,0,1,1.8,1.54L97,91.57A1.76,1.76,0,0,1,96.54,93a1.78,1.78,0,0,1-1.36.64,1.88,1.88,0,0,1-.57-.09L56.23,81.06A1.76,1.76,0,0,1,55,79.71,1.78,1.78,0,0,1,55.59,78L87.74,49.66a1.68,1.68,0,0,1,1.17-.46m0-3.35a5,5,0,0,0-3.38,1.3L53.38,75.48a5.15,5.15,0,0,0,1.81,8.76l38.38,12.5a5.07,5.07,0,0,0,1.61.26,5.16,5.16,0,0,0,5.08-5.93L94,50.23a5.15,5.15,0,0,0-5.11-4.38Z"/><path d="M85,60.65c1.14.39,2.71,1.14,2.32,2.42a15.33,15.33,0,0,1-.63,1.43c-1.06,2-3.79,7-5.78,11L79.26,75c.83-4,1.65-9.69,2-12.14a9.06,9.06,0,0,1,.3-1.65C82,60,83.74,60.25,85,60.65ZM77.38,83.3a3,3,0,1,1,3.69-1.89A2.79,2.79,0,0,1,77.38,83.3Z"/><g class="cls-5"><path d="M107,90.68A2.52,2.52,0,0,0,104.56,89l-27.22.29a.94.94,0,0,0-.29.06L5.39,114.43a7,7,0,0,0-4.27,8.87l2.8,8a7,7,0,0,0,5.58,4.59,6.86,6.86,0,0,0,3.29-.33l71.66-25.12a.82.82,0,0,0,.26-.14l21.46-16.76A2.53,2.53,0,0,0,107,90.68Z"/></g><path class="cls-6" d="M83.42,105.87,11.76,131a6,6,0,0,1-7.71-3.7l-2.8-8A6,6,0,0,1,5,111.57L76.62,86.45h.69l20.58-.22,6-.07a1.65,1.65,0,0,1,1,2.95l-4.69,3.67L84,105.44Z"/><path class="cls-7" d="M18.76,128.53l-7,2.45a6,6,0,0,1-7.71-3.7l-2.8-8A6,6,0,0,1,5,111.57l7-2.45Z"/><rect class="cls-8" x="15.17" y="107.46" width="6.5" height="20.57" transform="translate(-37.91 12.72) rotate(-19.32)"/><path d="M18.67,128.72l-.05-.14L11.77,109l6.41-2.25.05.14,6.85,19.55Zm-6.53-19.51,6.71,19.14,5.86-2.06L18,107.15Z"/><path class="cls-9" d="M84,105.44c-1.3-2-4.38-.5-5.52-2.93s2.27-3.89,1.4-6.29-4.3-1.37-5-4,2.7-3.39,2.48-5.74l20.58-.22,6-.07a1.65,1.65,0,0,1,1,2.95l-4.69,3.67Z"/><path d="M83.94,105.65l-.09-.13a3.3,3.3,0,0,0-2.52-1.19c-1.17-.2-2.38-.4-3-1.76s.05-2.42.67-3.42,1.12-1.78.72-2.88-1.34-1.45-2.36-1.8-2.27-.8-2.66-2.25.46-2.37,1.25-3.25a3.36,3.36,0,0,0,1.23-2.51l0-.16L103.84,86a1.77,1.77,0,0,1,1.72,1.2,1.8,1.8,0,0,1-.59,2ZM77.47,86.59a3.73,3.73,0,0,1-1.31,2.57c-.77.86-1.5,1.68-1.18,3s1.38,1.66,2.47,2,2.12.74,2.53,2-.15,2.2-.74,3.13-1.19,1.91-.65,3.15,1.64,1.4,2.78,1.59A3.73,3.73,0,0,1,84,105.23L104.79,89a1.5,1.5,0,0,0-.94-2.68Z"/><g class="cls-4"><path d="M83.42,105.87,11.76,131a6,6,0,0,1-7.71-3.7l-1.8-5.14A6.06,6.06,0,0,0,10,125.85L81,101a4.53,4.53,0,0,0,1.2-.66h0l23.34-12.5a1.58,1.58,0,0,1-.63,1.3l-4.69,3.67L84,105.44Z"/></g><g class="cls-10"><path class="cls-3" d="M105.33,88.57a1.65,1.65,0,0,0-.68-.13l-6,.06-20.58.23h-.69L5.76,113.85a6.05,6.05,0,0,0-3.71,7.72l-.8-2.29A6,6,0,0,1,5,111.57L76.62,86.45h.69l20.58-.22,6-.07A1.66,1.66,0,0,1,105.33,88.57Z"/></g><path d="M8.77,132.16a7,7,0,0,1-5.58-4.58l-2.8-8a7,7,0,0,1,4.27-8.87L76.32,85.59a.93.93,0,0,1,.29,0l27.23-.29A2.5,2.5,0,0,1,106.27,87a2.53,2.53,0,0,1-.83,2.86L84,106.58a.77.77,0,0,1-.25.14L12.06,131.84A6.89,6.89,0,0,1,8.77,132.16Zm68-44.8L5.26,112.43A5.14,5.14,0,0,0,2.11,119l2.8,8a5.15,5.15,0,0,0,6.55,3.15L83,105.06l21.34-16.68a.71.71,0,0,0,.24-.82.73.73,0,0,0-.7-.5Zm6.64,18.51h0Z"/><path d="M83.84,106.34a.91.91,0,0,1-.63-.4c-.37-.56-1-.7-2-.86-1.23-.21-2.77-.47-3.57-2.19s.06-3.09.72-4.15.9-1.5.64-2.21-.85-1-1.89-1.35-2.65-.93-3.14-2.76.58-3,1.41-4c.69-.76,1.1-1.26,1-1.94a.9.9,0,0,1,.82-1,.91.91,0,0,1,1,.82,4.34,4.34,0,0,1-1.49,3.31c-.79.88-1.23,1.42-1,2.3s.88,1.11,2,1.5a4.15,4.15,0,0,1,3,2.46c.57,1.56-.2,2.79-.82,3.78s-1,1.61-.61,2.43,1,1,2.22,1.15a4.28,4.28,0,0,1,3.23,1.65.91.91,0,0,1-.26,1.26A.89.89,0,0,1,83.84,106.34Z"/><path d="M100.19,92.77a8,8,0,0,1-2.3-6.55l6-.07a1.65,1.65,0,0,1,1,2.95Z"/><path d="M18.63,129.43a.92.92,0,0,1-.27-.08.91.91,0,0,1-.46-.52l-6.8-19.41a.89.89,0,0,1,.55-1.16l6.14-2.15a.91.91,0,0,1,1.16.56l6.8,19.41a.91.91,0,0,1-.55,1.16l-6.14,2.15A.9.9,0,0,1,18.63,129.43Zm-5.52-19.76,6.2,17.71,4.43-1.56-6.21-17.7Z"/><path d="M100.05,93.67a.91.91,0,0,1-.52-.27A8.94,8.94,0,0,1,97,86.14a.9.9,0,1,1,1.8.16,7.12,7.12,0,0,0,2,5.84.9.9,0,0,1,0,1.28A.94.94,0,0,1,100.05,93.67Z"/></g></g></svg>