<svg xmlns="http://www.w3.org/2000/svg" xmlns:xlink="http://www.w3.org/1999/xlink" viewBox="0 0 101.41 84.38"><defs><style>.cls-1{fill:none;}.cls-2{fill:#f9e21f;}.cls-3{fill:#fff;}.cls-4{opacity:0.3;}.cls-5{fill:#3e3d3d;}.cls-6{fill:#ff916b;}.cls-7{opacity:0.55;}.cls-8{clip-path:url(#clip-path);}.cls-9{fill:#ffe510;}.cls-10{fill:#ffe511;}.cls-11{fill:#ffe412;}.cls-12{fill:#ffe413;}.cls-13{fill:#fde314;}.cls-14{fill:#fde315;}.cls-15{fill:#fde316;}.cls-16{fill:#fde217;}.cls-17{fill:#fde218;}.cls-18{fill:#fde219;}.cls-19{fill:#fde11a;}.cls-20{fill:#fde11b;}.cls-21{fill:#fce01c;}.cls-22{fill:#fce01d;}.cls-23{fill:#fce01e;}.cls-24{fill:#fcdf1f;}.cls-25{fill:#fcdf20;}.cls-26{fill:#fcde21;}.cls-27{fill:#fcde22;}.cls-28{fill:#fbde23;}.cls-29{fill:#fbdd24;}.cls-30{fill:#fbdd25;}.cls-31{fill:#fbdd27;}.cls-32{fill:#fbdc28;}.cls-33{fill:#fbdc29;}.cls-34{fill:#fbdb2a;}.cls-35{fill:#fadb2b;}.cls-36{fill:#fadb2c;}.cls-37{fill:#fada2d;}.cls-38{fill:#fada2e;}.cls-39{fill:#fad92f;}.cls-40{fill:#fad930;}.cls-41{fill:#fad931;}.cls-42{fill:#fad832;}.cls-43{fill:#f9d833;}.cls-44{fill:#f9d734;}.cls-45{fill:#f9d735;}.cls-46{fill:#f9d736;}.cls-47{fill:#f9d637;}.cls-48{fill:#f9d638;}.cls-49{fill:#f9d639;}.cls-50{fill:#f8d53a;}.cls-51{fill:#f8d53b;}.cls-52{fill:#f8d43c;}.cls-53{fill:#f8d43d;}.cls-54{fill:#fdd924;}.cls-55{fill:#5e4c80;}.cls-56{fill:#9ca8b8;}.cls-57{opacity:0.7;}path{fill: #000;}</style><clipPath id="clip-path"><path class="cls-1" d="M67,25.45a11.74,11.74,0,0,1-4.13,9,22.62,22.62,0,0,0-3.77,4.11l0,0c-.53.68-3.7.6-7.39-.23s-6.63-2.11-6.78-3c0,0,0-.07,0-.1h0a32.31,32.31,0,0,0-1-6.7,11.56,11.56,0,0,1-.4-3.24,11.77,11.77,0,0,1,23.54.2Z"/></clipPath></defs><g id="Layer_2" data-name="Layer 2"><g id="Layer_1-2" data-name="Layer 1"><circle class="cls-2" cx="52.32" cy="42.67" r="38.12"/><path class="cls-3" d="M.65,59.67,29.56,30,47.21,50.13s41.54-9,53.55-4.89L78,80.66,29.56,79.9Z"/><g class="cls-4"><path d="M.65,59.67,29.56,30,47.21,50.13s41.54-9,53.55-4.89L78,80.66,29.56,79.9Z"/></g><path d="M78,81.31h0l-48.48-.76a.58.58,0,0,1-.36-.12L.28,60.21A.67.67,0,0,1,0,59.73a.62.62,0,0,1,.19-.51l28.9-29.66a.65.65,0,0,1,1,0l17.4,19.83c4.45-.94,42-8.72,53.52-4.79a.7.7,0,0,1,.41.4.67.67,0,0,1-.07.57L78.59,81A.65.65,0,0,1,78,81.31ZM29.77,79.25,77.69,80,99.75,45.62c-12.68-3.36-52,5.06-52.4,5.15a.66.66,0,0,1-.63-.21L29.53,31,1.66,59.58Z"/><polygon class="cls-5" points="0.65 59.67 0.65 65.55 29.56 83.24 29.56 77.59 0.65 59.67"/><g class="cls-4"><path d="M27.28,76.18h0a1.74,1.74,0,0,1-2.64,1.48L.65,63v2.57l28.91,17.7V77.59Z"/></g><path d="M29.56,83.89a.67.67,0,0,1-.34-.09L.31,66.1A.66.66,0,0,1,0,65.54V59.67a.66.66,0,0,1,.34-.57.65.65,0,0,1,.66,0L29.9,77a.64.64,0,0,1,.31.55v5.65a.66.66,0,0,1-.33.57A.72.72,0,0,1,29.56,83.89ZM1.3,65.18l27.61,16.9V78L1.3,60.85Z"/><polygon class="cls-5" points="29.56 77.59 29.56 83.24 78.04 83.73 78.04 77.59 29.56 77.59"/><g class="cls-4"><path d="M36.62,80.9a5.3,5.3,0,0,1-4.87-3.31H29.56v5.65L78,83.73V81.32Z"/></g><path d="M78,84.38h0l-48.48-.49a.65.65,0,0,1-.64-.65V77.59a.65.65,0,0,1,.65-.65H78a.65.65,0,0,1,.65.65v6.14a.66.66,0,0,1-.19.46A.68.68,0,0,1,78,84.38ZM30.21,82.59l47.18.48V78.25H30.21Z"/><polygon class="cls-6" points="100.76 45.24 78.04 77.59 78.04 83.73 100.76 52.71 100.76 45.24"/><polygon class="cls-5" points="100.76 45.24 78.04 77.59 78.04 83.73 100.76 52.71 100.76 45.24"/><g class="cls-4"><polygon points="78.04 83.73 100.76 52.71 100.76 49.94 78.04 80.96 78.04 83.73"/></g><path d="M78,84.38a.64.64,0,0,1-.2,0,.65.65,0,0,1-.45-.62V77.59a.7.7,0,0,1,.11-.37l22.73-32.36a.65.65,0,0,1,1.18.38v7.47a.64.64,0,0,1-.12.38l-22.73,31A.62.62,0,0,1,78,84.38Zm.65-6.58v3.93L100.11,52.5V47.3Z"/><path class="cls-3" d="M29.56,77.59,47.7,49.23s1-16.64-20-21.41L1.93,59.54S17.91,60.9,29.56,77.59Z"/><g class="cls-4"><path d="M29.56,77.59,47.7,49.23s1-16.64-20-21.41L1.93,59.54S17.91,60.9,29.56,77.59Z"/></g><path d="M29.56,78.25A.69.69,0,0,1,29,78a43.59,43.59,0,0,0-17.85-15,32.4,32.4,0,0,0-9.3-2.73.66.66,0,0,1-.45-1.06L27.15,27.41a.65.65,0,0,1,.65-.22C38.93,29.71,43.93,35.56,46.16,40a19.79,19.79,0,0,1,2.19,9.25.57.57,0,0,1-.1.31L30.11,77.94a.63.63,0,0,1-.54.3ZM3.16,59.05a36.09,36.09,0,0,1,8.48,2.66A44.64,44.64,0,0,1,29.53,76.43L47.05,49A19,19,0,0,0,45,40.55c-3-6-8.76-10-17-12Z"/><path class="cls-3" d="M29.56,77.59,47.7,49.23s1-16.64-20-21.41L1.22,56.44S22.37,57,29.56,77.59Z"/><g class="cls-4"><path d="M30.05,77.59,47.7,49.23s1-16.64-19.5-21.41L2.49,56.44S23.06,57,30.05,77.59Z"/></g><path d="M29.56,78.25h-.08a.68.68,0,0,1-.54-.43A29.4,29.4,0,0,0,12.48,59.9,33.5,33.5,0,0,0,1.21,57.09a.66.66,0,0,1-.59-.4A.65.65,0,0,1,.74,56L27.18,27.38a.65.65,0,0,1,.62-.19C38.93,29.71,43.93,35.56,46.16,40a19.79,19.79,0,0,1,2.19,9.25.57.57,0,0,1-.1.31L30.11,77.94A.66.66,0,0,1,29.56,78.25ZM2.62,55.89A36.1,36.1,0,0,1,13,58.69,31,31,0,0,1,29.72,76.14L47.05,49A19,19,0,0,0,45,40.55c-3-6-8.77-10-17.08-12Z"/><path class="cls-3" d="M29.56,77.59,47.7,49.23s1-16.64-20-21.41L2.49,53.76S25.8,53.07,29.56,77.59Z"/><g class="cls-4"><path d="M30.44,77.59,47.7,49.23s1-16.64-19.08-21.41l-24,25.94S26.85,53.07,30.44,77.59Z"/></g><path d="M29.56,78.25l-.14,0a.65.65,0,0,1-.5-.54c-1.53-9.92-6.42-16.85-14.53-20.6A29.78,29.78,0,0,0,2.51,54.41.64.64,0,0,1,1.89,54,.63.63,0,0,1,2,53.31L27.19,27.37a.66.66,0,0,1,.61-.18C38.93,29.71,43.93,35.56,46.16,40a19.79,19.79,0,0,1,2.19,9.25.57.57,0,0,1-.1.31L30.11,77.94A.66.66,0,0,1,29.56,78.25ZM4,53.15a31.16,31.16,0,0,1,10.89,2.74,25.55,25.55,0,0,1,9.37,7.22,29.12,29.12,0,0,1,5.66,12.72L47.05,49A19,19,0,0,0,45,40.55c-3-6-8.78-10-17.09-12Z"/><path class="cls-3" d="M49.45,47.48,29.56,77.59c8.58-5,22.68-8.74,46.19-3L98.17,45.24S72.24,30.8,49.45,47.48Z"/><g class="cls-4"><path d="M49.45,47.48,29.56,77.59c8.4-4.85,21.58-9.86,44.2-4.67a2.43,2.43,0,0,0,2.42-.84l22-26.84S72.24,30.8,49.45,47.48Z"/></g><path d="M29.56,78.25a.66.66,0,0,1-.54-1L48.91,47.12a.65.65,0,0,1,.16-.17,41.63,41.63,0,0,1,17.5-7.5,47.34,47.34,0,0,1,15.89,0,53.27,53.27,0,0,1,16,5.21.65.65,0,0,1,.2,1L76.27,75a.64.64,0,0,1-.67.24c-18.95-4.63-34.33-3.65-45.71,2.93A.68.68,0,0,1,29.56,78.25ZM49.93,47.93,31.52,75.8c11.34-5.59,26.11-6.24,44-1.94l21.69-28.4a54.65,54.65,0,0,0-15-4.72C73.85,39.38,61.48,39.53,49.93,47.93Z"/><path class="cls-3" d="M49.45,47.48,30.57,76.07C34.93,70.39,51,65.47,74.5,71.23l21.75-28.6S72.24,30.8,49.45,47.48Z"/><g class="cls-4"><path d="M48.74,46.3,35.08,67a1.91,1.91,0,0,0,2.28,2.84c7.54-2.86,19.78-4,35.43-.36a1.91,1.91,0,0,0,1.95-.7L94.23,43.14a5.66,5.66,0,0,0-.85-3c-5.78-9-39.24,3.58-43.85,5.34Z"/></g><path d="M30.57,76.72a.64.64,0,0,1-.38-.12.65.65,0,0,1-.17-.89L48.91,47.12a.65.65,0,0,1,.16-.17,46.14,46.14,0,0,1,17.17-7.9,47.66,47.66,0,0,1,15.22-.9,47,47,0,0,1,15.08,3.9.62.62,0,0,1,.34.43.64.64,0,0,1-.11.55L75,71.62a.64.64,0,0,1-.67.24c-24.37-6-39.47-.34-43.27,4.61A.65.65,0,0,1,30.57,76.72ZM49.93,47.93,33.64,72.6a32.93,32.93,0,0,1,11.61-3.88c5.9-1,15.69-1.42,29,1.77l21-27.6a48.88,48.88,0,0,0-14-3.45A45.17,45.17,0,0,0,49.93,47.93Z"/><path class="cls-3" d="M49.45,47.48l-18.56,28C35.25,69.74,50.2,62,73.72,67.75L94.89,40S72.24,30.8,49.45,47.48Z"/><path d="M30.89,76.08a.65.65,0,0,1-.54-1L48.91,47.12a.65.65,0,0,1,.16-.17A51.13,51.13,0,0,1,80.73,36.81a44.62,44.62,0,0,1,14.41,2.55.65.65,0,0,1,.27,1L74.24,68.14a.66.66,0,0,1-.68.24c-10.23-2.5-20-2.66-28.27-.45-9.13,2.44-12.94,6.66-13.88,7.89A.66.66,0,0,1,30.89,76.08Zm19-28.14L34.38,71.36C41.47,66.44,55,62.61,73.46,67L93.83,40.28a46.17,46.17,0,0,0-13.18-2.16A49.75,49.75,0,0,0,49.93,47.94Z"/><path class="cls-3" d="M49.45,47.48l-18.56,28C35.25,69.74,50.2,62,73.72,67.75L94.89,40S72.24,30.8,49.45,47.48Z"/><path d="M30.89,76.08a.65.65,0,0,1-.54-1L48.91,47.12a.65.65,0,0,1,.16-.17A51.13,51.13,0,0,1,80.73,36.81a44.62,44.62,0,0,1,14.41,2.55.65.65,0,0,1,.27,1L74.24,68.14a.66.66,0,0,1-.68.24c-10.23-2.5-20-2.66-28.27-.45-9.13,2.44-12.94,6.66-13.88,7.89A.66.66,0,0,1,30.89,76.08Zm19-28.14L34.38,71.36C41.47,66.44,55,62.61,73.46,67L93.83,40.28a46.17,46.17,0,0,0-13.18-2.16A49.75,49.75,0,0,0,49.93,47.94Z"/><g class="cls-4"><path d="M48.22,46.7,29.91,72.48l8.93-3.55a42.33,42.33,0,0,1,11.45-4,41.48,41.48,0,0,1,13.45-.41c3.13.52,5.4.9,6.47,1.18a2.78,2.78,0,0,0,.36.07,3.65,3.65,0,0,0,2.63-.92L93,39.77A51.61,51.61,0,0,0,48.22,46.7Z"/></g><path class="cls-3" d="M49.45,47.48l-18.56,28c4.36-5.69,16.45-17.19,40-11.43l21-27.25S72.24,30.8,49.45,47.48Z"/><path d="M30.89,76.08a.65.65,0,0,1-.54-1L48.91,47.12a.65.65,0,0,1,.16-.17C61,38.24,72,35.76,79.15,35.21A38.18,38.18,0,0,1,92,36.12a.65.65,0,0,1,.32,1l-21,27.25a.65.65,0,0,1-.67.24c-23.33-5.71-35.25,5.93-39.29,11.19A.66.66,0,0,1,30.89,76.08Zm19-28.14L35.42,69.78a33.54,33.54,0,0,1,8-5c7.84-3.46,17-4,27.16-1.57L90.72,37.14a40.8,40.8,0,0,0-11.54-.63C72.23,37.06,61.52,39.48,49.93,47.94Z"/><path class="cls-3" d="M30.89,75.43l18.56-28s-.09-21.17-20.81-22.23l-24,24.84S27.28,47.72,30.89,75.43Z"/><path d="M30.89,76.08l-.15,0a.66.66,0,0,1-.5-.55C28.78,64.28,24.05,56.7,16.17,53a24.08,24.08,0,0,0-11.5-2.24.65.65,0,0,1-.53-1.1l24-24.84a.65.65,0,0,1,.51-.2c11,.56,16.26,6.77,18.73,11.88a28.26,28.26,0,0,1,2.7,11,.7.7,0,0,1-.11.37l-18.57,28A.66.66,0,0,1,30.89,76.08ZM6.2,49.39a25.64,25.64,0,0,1,10.47,2.39,23.1,23.1,0,0,1,9.12,7.62,33.64,33.64,0,0,1,5.5,14.25L48.8,47.29A27.67,27.67,0,0,0,46.21,37c-3.32-6.86-9.14-10.58-17.31-11.08Z"/><g class="cls-4"><path d="M52.65,60.65A4.81,4.81,0,0,1,47,56.43a18.3,18.3,0,0,1,2.79-.68,3.63,3.63,0,0,0,2.66-1.83,1.67,1.67,0,0,0,.2-1.29c-.26-.75-2.3-.73-4.36-.15l4.94-7.58q-1.87,1.18-3.78,2.58a24,24,0,0,0-.51-4.29l-6,9.18A5,5,0,0,0,40.2,51a2.54,2.54,0,0,0-1.45.38,2.42,2.42,0,0,0,0,4,9.57,9.57,0,0,1,1.26,1,10.19,10.19,0,0,1-14.46-.16C20.2,50.81,12.35,48.61,6.9,47.72L4.61,50.09s22.67-2.37,26.28,25.34c4.36-5.69,16.45-17.19,40-11.43l1.38-1.8C65.48,59.45,58.4,59.62,52.65,60.65Z"/></g><g class="cls-7"><g class="cls-8"><rect class="cls-9" x="43.39" y="13.65" width="23.56" height="25.51"/><path class="cls-9" d="M50.27,39.34H46.64v.92a35.68,35.68,0,0,1-3.45-1.13h0V13.47H67.13V39.34Z"/><path class="cls-10" d="M50.35,40.53a35.43,35.43,0,0,1-7-1.89l-.83-.33h.66V13.47H67.13V39.06h.7c-1.09.38-2.2.71-3.32,1v-.7H50.35Z"/><path class="cls-11" d="M50.44,40a34.7,34.7,0,0,1-6.88-1.86l-.81-.32h.46V13.47H67.13v25.1h.53q-1.6.55-3.27,1v-.19h-14Z"/><path class="cls-12" d="M50.52,39.5a34.29,34.29,0,0,1-6.77-1.84c-.53-.2-1.06-.42-1.59-.65h1.05V13.47H67.13v24.6h.36c-1.06.37-2.13.68-3.23,1A34.56,34.56,0,0,1,50.52,39.5Z"/><path class="cls-13" d="M50.61,39a33.46,33.46,0,0,1-6.67-1.81c-.53-.2-1-.41-1.56-.64h.83V13.47H67.13V37.58h.19q-1.56.54-3.18.93A34.08,34.08,0,0,1,50.61,39Z"/><path class="cls-14" d="M50.69,38.47a34.45,34.45,0,0,1-6.56-1.78c-.52-.2-1-.42-1.54-.64h.62V13.47H67.13V37.08h0c-1,.36-2.07.66-3.13.92A33.63,33.63,0,0,1,50.69,38.47Z"/><path class="cls-15" d="M50.78,38a33.41,33.41,0,0,1-6.46-1.75c-.52-.2-1-.41-1.52-.63h.41V13.47H67.13V36.32h.6l-.75.27c-1,.35-2,.65-3.08.9A33.15,33.15,0,0,1,50.78,38Z"/><path class="cls-16" d="M50.86,37.43a33.29,33.29,0,0,1-6.36-1.72c-.5-.2-1-.4-1.49-.62h.2V13.47H67.13V35.54h1.15c-.49.2-1,.38-1.47.55-1,.35-2,.64-3,.89A32.33,32.33,0,0,1,50.86,37.43Z"/><path class="cls-17" d="M51,36.92a33,33,0,0,1-6.26-1.7c-.49-.19-1-.39-1.47-.61l-.72-.33h.71V13.47H67.13V35.06h1c-.48.19-1,.37-1.45.54a30,30,0,0,1-3,.87A32,32,0,0,1,51,36.92Z"/><path class="cls-18" d="M51,36.4a31.75,31.75,0,0,1-6.16-1.67A28,28,0,0,1,42,33.47h1.18v-20H67.13v21.1h.76c-.47.19-1,.37-1.43.53a29,29,0,0,1-2.93.86A31.31,31.31,0,0,1,51,36.4Z"/><path class="cls-19" d="M51.12,35.88a30.81,30.81,0,0,1-6-1.64A29.35,29.35,0,0,1,42.27,33h.94V13.47H67.13V34.09h.56c-.46.18-.93.36-1.4.52a28,28,0,0,1-2.88.84A30.86,30.86,0,0,1,51.12,35.88Z"/><path class="cls-20" d="M51.21,35.37a30.31,30.31,0,0,1-6-1.62c-.95-.36-1.87-.77-2.76-1.21h.71V13.47H67.13V33.6h.37c-.46.18-.91.35-1.38.51a27.79,27.79,0,0,1-2.83.83A30.37,30.37,0,0,1,51.21,35.37Z"/><path class="cls-21" d="M51.29,34.85a29.86,29.86,0,0,1-5.85-1.59,28.33,28.33,0,0,1-2.7-1.19h.47V13.47H67.13V33.11h.17q-.66.27-1.35.51a26.27,26.27,0,0,1-2.79.81A29.68,29.68,0,0,1,51.29,34.85Z"/><path class="cls-22" d="M51.38,34.33a30.24,30.24,0,0,1-5.75-1.55c-.91-.35-1.8-.75-2.66-1.18h.24V13.47H67.13V32.36h.63l-.65.27c-.44.17-.88.34-1.33.49-.9.31-1.81.58-2.74.81A29.2,29.2,0,0,1,51.38,34.33Z"/><path class="cls-23" d="M51.46,33.82a29.85,29.85,0,0,1-5.64-1.53,27.91,27.91,0,0,1-2.61-1.16h0V13.47H67.13V31.59h1.06a29.07,29.07,0,0,1-5.27,1.83A28.94,28.94,0,0,1,51.46,33.82Z"/><path class="cls-24" d="M51.55,33.3A28.79,28.79,0,0,1,46,31.8c-.88-.34-1.74-.72-2.57-1.14-.41-.2-.82-.42-1.22-.65h1V13.47H67.13V31.12H68a29.09,29.09,0,0,1-5.18,1.79A28.27,28.27,0,0,1,51.55,33.3Z"/><path class="cls-25" d="M51.64,32.78a27.57,27.57,0,0,1-5.44-1.47,26,26,0,0,1-2.52-1.11c-.41-.21-.81-.42-1.21-.65h.74V13.47H67.13V30.64h.63a28.26,28.26,0,0,1-5.08,1.76A27.79,27.79,0,0,1,51.64,32.78Z"/><path class="cls-26" d="M51.72,32.27a27.65,27.65,0,0,1-5.34-1.45c-.84-.32-1.67-.69-2.47-1.09-.4-.2-.79-.41-1.18-.63h.48V13.47H67.13V30.16h.41a27.51,27.51,0,0,1-5,1.73A27.28,27.28,0,0,1,51.72,32.27Z"/><path class="cls-27" d="M51.81,31.75a26.43,26.43,0,0,1-5.24-1.42,25,25,0,0,1-2.42-1.07c-.39-.2-.78-.4-1.16-.62h.22V13.47H67.13V29.69h.19a27.43,27.43,0,0,1-4.89,1.69A26.62,26.62,0,0,1,51.81,31.75Z"/><path class="cls-28" d="M51.89,31.23a26.2,26.2,0,0,1-9.74-3.7h1.06V13.47H67.13V28.66h1.11c-.37.19-.75.38-1.14.55a26.34,26.34,0,0,1-4.79,1.66A26,26,0,0,1,51.89,31.23Z"/><path class="cls-29" d="M52,30.72a25.7,25.7,0,0,1-9.55-3.63h.78V13.47H67.13V28.19H68l-1.11.55a26.36,26.36,0,0,1-4.7,1.62A25.68,25.68,0,0,1,52,30.72Z"/><path class="cls-30" d="M52.06,30.2a25.19,25.19,0,0,1-9.35-3.56h.5V13.47H67.13V27.73h.63l-1.09.53a25.26,25.26,0,0,1-4.6,1.59A25.06,25.06,0,0,1,52.06,30.2Z"/><path class="cls-31" d="M52.15,29.68A24.41,24.41,0,0,1,43,26.2h.22V13.47H67.13V27.26h.39c-.35.18-.71.36-1.07.52a24.29,24.29,0,0,1-4.51,1.56A24.51,24.51,0,0,1,52.15,29.68Z"/><path class="cls-32" d="M52.23,29.17a24.1,24.1,0,0,1-9-3.41l-1-.65h.92V13.47H67.13V26.24H68.3c-.67.39-1.36.74-2.07,1.07a23.93,23.93,0,0,1-4.41,1.52A24.07,24.07,0,0,1,52.23,29.17Z"/><path class="cls-33" d="M52.32,28.65a23.49,23.49,0,0,1-8.77-3.33l-1-.64h.62V13.47H67.13V25.79H68c-.65.38-1.33.72-2,1a23.22,23.22,0,0,1-4.32,1.49A23.4,23.4,0,0,1,52.32,28.65Z"/><path class="cls-34" d="M52.41,28.14a23.07,23.07,0,0,1-8.58-3.27A21.64,21.64,0,0,1,42,23.58h1.22V13.47H67.13V25.33h.64a21.61,21.61,0,0,1-2,1,23.07,23.07,0,0,1-13.39,1.79Z"/><path class="cls-35" d="M52.49,27.62a22.48,22.48,0,0,1-8.38-3.19,20.53,20.53,0,0,1-1.79-1.26h.89v-9.7H67.13V24.88h.38c-.63.36-1.27.7-1.93,1a23.44,23.44,0,0,1-4.13,1.43A22.6,22.6,0,0,1,52.49,27.62Z"/><path class="cls-36" d="M52.58,27.1A22,22,0,0,1,44.39,24c-.61-.39-1.19-.8-1.75-1.23h.57V13.47H67.13v11h.12c-.62.35-1.24.68-1.89,1a22.34,22.34,0,0,1-4,1.4A21.93,21.93,0,0,1,52.58,27.1Z"/><path class="cls-37" d="M52.66,26.59a21.63,21.63,0,0,1-8-3c-.59-.38-1.16-.78-1.71-1.21h.25V13.47H67.13v10h.73c-.29.19-.58.37-.88.54a20,20,0,0,1-1.84,1,22,22,0,0,1-3.93,1.36A21.67,21.67,0,0,1,52.66,26.59Z"/><path class="cls-38" d="M52.75,26.07a21,21,0,0,1-7.8-3,19.24,19.24,0,0,1-1.67-1.17c-.27-.21-.53-.42-.78-.64h.71V13.47H67.13V23h.45c-.28.19-.57.36-.86.53-.58.34-1.18.65-1.79.93a21.26,21.26,0,0,1-3.84,1.33A21,21,0,0,1,52.75,26.07Z"/><path class="cls-39" d="M52.83,25.55a20.43,20.43,0,0,1-7.6-2.89,20.63,20.63,0,0,1-3.13-2.43h1.11V13.47H67.13V22h1A20.42,20.42,0,0,1,52.83,25.55Z"/><path class="cls-40" d="M52.92,25a20,20,0,0,1-7.41-2.82,20.23,20.23,0,0,1-3-2.37h.75V13.47H67.13v8.11h.67A19.91,19.91,0,0,1,52.92,25Z"/><path class="cls-41" d="M53,24.52a19.25,19.25,0,0,1-7.21-2.75,19.62,19.62,0,0,1-3-2.3h.39v-6H67.13v7.68h.37A19.37,19.37,0,0,1,53,24.52Z"/><path class="cls-42" d="M53.09,24a18.58,18.58,0,0,1-7-2.67,19.22,19.22,0,0,1-2.89-2.24h0V13.47H67.13v7.25h.07A18.85,18.85,0,0,1,53.09,24Z"/><path class="cls-43" d="M53.18,23.49a18.38,18.38,0,0,1-6.83-2.6,18.68,18.68,0,0,1-2.81-2.18c-.43-.41-.83-.84-1.22-1.28h.89v-4H67.13V19.2h1.15c-.45.39-.91.76-1.39,1.1A18.33,18.33,0,0,1,53.18,23.49Z"/><path class="cls-44" d="M53.26,23a17.79,17.79,0,0,1-6.63-2.52,18.2,18.2,0,0,1-2.73-2.13c-.41-.39-.81-.8-1.19-1.24h.5V13.47H67.13v5.34h.8c-.43.37-.88.73-1.34,1.06A17.83,17.83,0,0,1,53.26,23Z"/><path class="cls-45" d="M53.35,22.45a17.23,17.23,0,0,1-11.27-7h1.13v-2H67.13v4.94h.46c-.42.37-.86.71-1.31,1A17.28,17.28,0,0,1,53.35,22.45Z"/><path class="cls-46" d="M53.43,21.94A16.8,16.8,0,0,1,42.5,15.13h.71V13.47H67.13V18h.11c-.4.35-.83.69-1.26,1A16.77,16.77,0,0,1,53.43,21.94Z"/><path class="cls-47" d="M53.52,21.42a16.25,16.25,0,0,1-10.59-6.59h.28V13.47H67.13v3.07H68a16.52,16.52,0,0,1-2.36,2.06A16.26,16.26,0,0,1,53.52,21.42Z"/><path class="cls-48" d="M53.6,20.9a15.75,15.75,0,0,1-10.25-6.38c-.29-.41-.57-.83-.82-1.27l.68.22H67.13v2.71h.52a15.94,15.94,0,0,1-2.28,2A15.72,15.72,0,0,1,53.6,20.9Z"/><path class="cls-49" d="M53.69,20.39a15.21,15.21,0,0,1-9.91-6.17c-.29-.4-.55-.81-.8-1.23l.23.48H67.13v2.35h.14a14.43,14.43,0,0,1-2.21,1.92A15.15,15.15,0,0,1,53.69,20.39Z"/><path class="cls-50" d="M53.78,19.87a14.67,14.67,0,0,1-9.58-6,13.34,13.34,0,0,1-.76-1.19v.75H67.13v.91h.69q-.45.57-.93,1.08a15,15,0,0,1-2.13,1.86A14.68,14.68,0,0,1,53.78,19.87Z"/><path class="cls-51" d="M53.86,19.35a14.18,14.18,0,0,1-9.23-5.74c-.27-.37-.51-.76-.74-1.15v1H67.13l1.07-.54a14.3,14.3,0,0,1-3.75,4A14.1,14.1,0,0,1,53.86,19.35Z"/><path class="cls-52" d="M54,18.84a13.62,13.62,0,0,1-8.89-5.54v.17H67.13l.62-.82A13.66,13.66,0,0,1,54,18.84Z"/><path class="cls-53" d="M54,18.32A13.11,13.11,0,0,1,45.48,13v.47H67.13l.18-1.1a13.18,13.18,0,0,1-13.28,6Z"/></g></g><path class="cls-54" d="M67.07,25.45a11.76,11.76,0,0,1-4.12,9,22.32,22.32,0,0,0-3.78,4.11l0,0c-.52.68-3.69.6-7.39-.23s-6.62-2.11-6.78-3a.31.31,0,0,0,0-.1h0a32.31,32.31,0,0,0-1-6.7,11.56,11.56,0,0,1-.4-3.24,11.77,11.77,0,0,1,23.54.2Z"/><path class="cls-55" d="M45.23,45.24l.13,1.56a3.91,3.91,0,0,0,3.22,3.56l.09,0a3.93,3.93,0,0,0,4.06-2l.76-1.4Z"/><path d="M49.28,50.92a3.91,3.91,0,0,1-.68-.06h-.1a4.41,4.41,0,0,1-3.63-4l-.13-1.56a.53.53,0,0,1,.16-.41.52.52,0,0,1,.43-.11l8.26,1.71a.52.52,0,0,1,.35.28.49.49,0,0,1,0,.44l-.76,1.4A4.44,4.44,0,0,1,49.28,50.92Zm-3.51-5.07.07.91a3.42,3.42,0,0,0,2.83,3.12h.08a3.42,3.42,0,0,0,3.55-1.77l.45-.82Z"/><path class="cls-56" d="M55.27,45.83,44.7,43.3a2.44,2.44,0,0,0-.4,1.91c.23.67,2.38,1.6,5.15,2.27s4.81.73,5.52,0A2.54,2.54,0,0,0,55.27,45.83Z"/><g class="cls-4"><path d="M55.27,45.83,44.7,43.3a2.44,2.44,0,0,0-.4,1.91c.23.67,2.38,1.6,5.15,2.27s4.81.73,5.52,0A2.54,2.54,0,0,0,55.27,45.83Z"/></g><path d="M53.07,48.5A16.48,16.48,0,0,1,49.34,48c-1.18-.28-5.06-1.3-5.5-2.58A2.93,2.93,0,0,1,44.3,43a.49.49,0,0,1,.51-.19l10.58,2.52a.47.47,0,0,1,.36.38,3,3,0,0,1-.36,2l-.07.09A3,3,0,0,1,53.07,48.5Zm-8.13-4.64a1.7,1.7,0,0,0-.17,1.2c.13.3,1.67,1.2,4.8,1.94,3.53.84,4.65.49,5,.17a2,2,0,0,0,.23-1Z"/><path class="cls-56" d="M57.22,43.46l-13.59-3.2a3.12,3.12,0,0,0-.56,2.36c.28.76,2.9,2.07,6.46,2.91,3.75.89,6.2,1,7.13.17A4.1,4.1,0,0,0,57.22,43.46Z"/><path d="M54.42,46.75a23.11,23.11,0,0,1-5-.74c-3.07-.73-6.39-2.07-6.81-3.23A3.62,3.62,0,0,1,43.23,40a.51.51,0,0,1,.52-.19L57.33,43a.5.5,0,0,1,.38.45A4.62,4.62,0,0,1,57.06,46a.27.27,0,0,1-.07.08A3.84,3.84,0,0,1,54.42,46.75ZM43.86,40.81a2.3,2.3,0,0,0-.33,1.64c.16.45,2.4,1.73,6.12,2.61,4.44,1,6.07.75,6.65.3a3.24,3.24,0,0,0,.42-1.51Z"/><path class="cls-56" d="M57.22,43.46c-.24,1-3.47,1.1-7.22.21s-6.6-2.41-6.37-3.41,3.47-1.1,7.22-.21S57.45,42.46,57.22,43.46Z"/><g class="cls-4"><path d="M57.22,43.46c-.24,1-3.47,1.1-7.22.21s-6.6-2.41-6.37-3.41,3.47-1.1,7.22-.21S57.45,42.46,57.22,43.46Z"/></g><path d="M54.58,44.76a21.89,21.89,0,0,1-4.69-.61c-3.5-.83-7.1-2.43-6.73-4s4.3-1.41,7.81-.58a20.42,20.42,0,0,1,4.79,1.71c1.46.78,2.11,1.55,1.93,2.29S56.24,44.76,54.58,44.76Zm-8.32-4.83c-1.35,0-2.1.23-2.15.44-.09.39,1.9,1.86,6,2.82s6.54.54,6.63.16h0c0-.08-.18-.53-1.44-1.21a19.37,19.37,0,0,0-4.56-1.62A20.35,20.35,0,0,0,46.26,39.93Z"/><path class="cls-56" d="M56.79,40.41,45.71,37.9a2.56,2.56,0,0,0-.39,2c.24.69,2.5,1.64,5.41,2.3,3.06.69,5,.71,5.76-.07A2.73,2.73,0,0,0,56.79,40.41Z"/><g class="cls-4"><path d="M56.79,40.41,45.71,37.9a2.56,2.56,0,0,0-.39,2c.24.69,2.5,1.64,5.41,2.3,3.06.69,5,.71,5.76-.07A2.73,2.73,0,0,0,56.79,40.41Z"/></g><path d="M54.42,43.22a18.1,18.1,0,0,1-3.8-.53c-1.23-.28-5.3-1.3-5.76-2.62a3,3,0,0,1,.45-2.45.48.48,0,0,1,.51-.19L56.9,39.94a.5.5,0,0,1,.37.37,3.24,3.24,0,0,1-.35,2.07.22.22,0,0,1-.07.09A3.2,3.2,0,0,1,54.42,43.22ZM46,38.46a1.76,1.76,0,0,0-.18,1.28c.13.33,1.75,1.24,5.06,2,3.71.84,4.89.45,5.26.11a2.06,2.06,0,0,0,.23-1Z"/><path class="cls-56" d="M59.07,38.34,44.84,35.15a2.29,2.29,0,0,0-.44,2.09c.29.8,3.05,2.13,6.78,3,3.93.88,6.49.95,7.46.09A2.78,2.78,0,0,0,59.07,38.34Z"/><path d="M56.18,41.4a25,25,0,0,1-5.11-.71c-3.21-.72-6.69-2.08-7.13-3.28a2.73,2.73,0,0,1,.53-2.57.48.48,0,0,1,.48-.16l14.23,3.18a.48.48,0,0,1,.37.38A3.22,3.22,0,0,1,59,40.57a.34.34,0,0,1-.08.09A4.13,4.13,0,0,1,56.18,41.4ZM45.05,35.7a1.66,1.66,0,0,0-.19,1.37c.17.47,2.53,1.79,6.43,2.66,4.67,1.05,6.38.72,7,.24a2.32,2.32,0,0,0,.35-1.23Z"/><path d="M56.88,39.6a28.39,28.39,0,0,1-5.4-.71c-1.16-.26-6.94-1.64-7.28-3.47a.5.5,0,0,1,0-.12v-.1a.34.34,0,0,1,0-.1V35c.23-1,1.8-1.12,3-1.1a26,26,0,0,1,5.27.7,26.06,26.06,0,0,1,5.06,1.61c1.06.48,2.44,1.24,2.21,2.26h0a1.05,1.05,0,0,1-.19.4A3.51,3.51,0,0,1,56.88,39.6Zm2.19-1.26Zm-13.43-3c.59.51,2.64,1.51,6.12,2.28s5.76.76,6.51.55c-.59-.51-2.64-1.5-6.12-2.28S46.39,35.13,45.64,35.33Zm-1.45-.25Z"/><ellipse class="cls-3" cx="51.96" cy="36.75" rx="1.54" ry="7.29" transform="translate(4.75 79.43) rotate(-77.39)"/><g class="cls-4"><ellipse cx="51.93" cy="36.84" rx="1.16" ry="7.29" transform="translate(4.65 79.48) rotate(-77.39)"/></g><path d="M54.45,37.41h0A.48.48,0,0,1,54,36.9a30.33,30.33,0,0,1,1.93-8.55L56,28l-3-.89a30.52,30.52,0,0,1-2.41,8.92.49.49,0,0,1-.64.27.48.48,0,0,1-.27-.63A28.19,28.19,0,0,0,52,26.88l-.34-.1c-.21-.07-2-.65-2.39-1.86a1.73,1.73,0,0,1,.41-1.63,1.54,1.54,0,0,1,2-.47c.71.43,1.24,1.5,1.27,3.32l3.47,1a3.23,3.23,0,0,1,2.37-1.85,2.05,2.05,0,0,1,1.94.88,1.32,1.32,0,0,1,.08,1.39c-.71,1.22-2.91.92-3.88.72-.06.13-.11.27-.17.41A30.78,30.78,0,0,0,54.93,37,.48.48,0,0,1,54.45,37.41Zm3-10c1,.16,2.26.17,2.54-.31.08-.13,0-.3,0-.37a1.08,1.08,0,0,0-1-.43A2.19,2.19,0,0,0,57.46,27.39ZM51,23.6a.76.76,0,0,0-.53.31c-.33.41-.26.64-.23.72.16.54,1.15,1,1.73,1.21l.06,0c-.08-1.35-.47-2-.79-2.19A.44.44,0,0,0,51,23.6Z"/><path class="cls-54" d="M32.94,11.49a8.72,8.72,0,0,1,5.35,2.63c.61.6,1.52,1.51,1.54,2.42A1.46,1.46,0,0,1,38,18a9.12,9.12,0,0,1-5.14-2.68A4.13,4.13,0,0,1,31.45,13,1.45,1.45,0,0,1,32.94,11.49Z"/><path d="M38.26,18.54l-.32,0a9.66,9.66,0,0,1-5.48-2.85A4.53,4.53,0,0,1,30.88,13a2,2,0,0,1,.58-1.5,2,2,0,0,1,1.5-.6h0a9.18,9.18,0,0,1,5.73,2.79c.63.62,1.68,1.65,1.71,2.82A1.86,1.86,0,0,1,39.8,18,2.26,2.26,0,0,1,38.26,18.54Zm-5.38-6.48a.87.87,0,0,0-.61.26A.84.84,0,0,0,32,13c0,.7.86,1.52,1.25,1.92a8.67,8.67,0,0,0,4.8,2.52,1.23,1.23,0,0,0,1-.25.73.73,0,0,0,.23-.59c0-.7-.9-1.56-1.37-2a8.14,8.14,0,0,0-5-2.47Z"/><path class="cls-54" d="M46.88.79a8.65,8.65,0,0,1,3.31,5,4.13,4.13,0,0,1,.12,2.87A1.47,1.47,0,0,1,48,8.92,9.16,9.16,0,0,1,44.93,4a4.18,4.18,0,0,1-.09-2.68A1.44,1.44,0,0,1,46.88.79Z"/><path d="M49.15,9.89a2.54,2.54,0,0,1-1.46-.51,9.72,9.72,0,0,1-3.32-5.21,4.5,4.5,0,0,1,0-3.09,2,2,0,0,1,1.24-1,2,2,0,0,1,1.6.24h0a9.14,9.14,0,0,1,3.55,5.28c.24.85.64,2.27.07,3.29a1.83,1.83,0,0,1-1.24,1A2,2,0,0,1,49.15,9.89Zm-3-8.75a1,1,0,0,0-.24,0,.88.88,0,0,0-.53.43,3.91,3.91,0,0,0,.13,2.28,8.57,8.57,0,0,0,2.89,4.58,1.26,1.26,0,0,0,1,.27.75.75,0,0,0,.48-.4,3.92,3.92,0,0,0-.17-2.43,8.14,8.14,0,0,0-3.07-4.63A.87.87,0,0,0,46.12,1.14Z"/><path class="cls-54" d="M69.72,5.43a8.67,8.67,0,0,1-3.48,4.84,4.28,4.28,0,0,1-2.65,1.11,1.46,1.46,0,0,1-1.08-2A9.08,9.08,0,0,1,66,4.73a4.13,4.13,0,0,1,2.49-1A1.43,1.43,0,0,1,69.72,5.43Z"/><path d="M63.81,12a1.53,1.53,0,0,1-.3,0,1.81,1.81,0,0,1-1.33-.83A2.34,2.34,0,0,1,62,9.19a9.66,9.66,0,0,1,3.72-4.93,4.49,4.49,0,0,1,2.88-1.11,2,2,0,0,1,1.72,2.4h0a9.13,9.13,0,0,1-3.71,5.18A5.22,5.22,0,0,1,63.81,12Zm4.51-7.69a4.18,4.18,0,0,0-2,.92,8.53,8.53,0,0,0-3.28,4.31,1.2,1.2,0,0,0,.08,1,.69.69,0,0,0,.54.32c.69.11,1.69-.62,2.22-1a8.07,8.07,0,0,0,3.26-4.49A.87.87,0,0,0,69,4.63a.91.91,0,0,0-.59-.35Zm1.4,1.15Z"/><path class="cls-54" d="M79.65,19.31a8.63,8.63,0,0,1-5.41,2.51,4.21,4.21,0,0,1-2.85-.32,1.47,1.47,0,0,1,0-2.3,9.15,9.15,0,0,1,5.32-2.31,4.13,4.13,0,0,1,2.67.33A1.44,1.44,0,0,1,79.65,19.31Z"/><path d="M73,22.49A3.24,3.24,0,0,1,71,22a1.89,1.89,0,0,1-.76-1.38A2.4,2.4,0,0,1,71,18.79a9.7,9.7,0,0,1,5.67-2.47,4.44,4.44,0,0,1,3,.44,2,2,0,0,1,.32,2.93h0a9.12,9.12,0,0,1-5.77,2.7A11.12,11.12,0,0,1,73,22.49Zm4.75-5.1c-.37,0-.72,0-1,.06a8.64,8.64,0,0,0-5,2.15,1.27,1.27,0,0,0-.42.9.76.76,0,0,0,.32.55,4,4,0,0,0,2.43.21,8.11,8.11,0,0,0,5-2.32.88.88,0,0,0,.2-.67.86.86,0,0,0-.34-.59A2.36,2.36,0,0,0,77.77,17.39Zm1.88,1.92Z"/><path d="M56.9,39.51a29.26,29.26,0,0,1-5.41-.7c-.7-.16-6.87-1.59-7.21-3.41a.34.34,0,0,1,0-.1.09.09,0,0,0,0,0v0a31.08,31.08,0,0,0-1-6.57,12.52,12.52,0,0,1-.41-3.4A12.38,12.38,0,0,1,55.18,13.11h0a12.34,12.34,0,0,1,8,21.72,22,22,0,0,0-3.67,4,.55.55,0,0,1-.32.22A4.43,4.43,0,0,1,56.9,39.51Zm-11.5-4.3c.21.41,2.31,1.58,6.34,2.48s6.5.73,6.82.43a.65.65,0,0,1,.18-.15,23.36,23.36,0,0,1,3.71-4,11.19,11.19,0,0,0-7.22-19.71h0a11.24,11.24,0,0,0-11.2,11,11,11,0,0,0,.38,3.08,33,33,0,0,1,1,6.82h0Z"/><g class="cls-4"><path d="M65.21,29.05a8.32,8.32,0,0,1-1.92,3.4,24.3,24.3,0,0,0-2.45,2.2c-.33.39-.44.56-1.3,1.63l-1.3,1.59a28.53,28.53,0,0,1-6.3-.45A14.64,14.64,0,0,1,47.43,36a12.22,12.22,0,0,1-1.61-1.05,24.09,24.09,0,0,0,4.55-.17c1.61-.22,7.7-1.13,11.86-5.63A10.62,10.62,0,0,0,64,26.57,10.54,10.54,0,0,0,65,21,12.29,12.29,0,0,1,65.21,29.05Z"/></g><g class="cls-57"><path class="cls-3" d="M46,22.2c-.22-1.92,1.57-3.62,2.13-4.16a12.3,12.3,0,0,1,2.51-1.64,3,3,0,0,1,1.67-.54,1.45,1.45,0,0,1,1.39.9,1.63,1.63,0,0,1-.76,1.69,12.66,12.66,0,0,1-1.79.83,5.14,5.14,0,0,0-2.16,2c-.43.71-.38,1-.9,1.49-.11.11-.94.87-1.54.6C46.06,23.13,46,22.44,46,22.2Z"/></g><g class="cls-57"><path class="cls-3" d="M55,15.4a1.14,1.14,0,0,0-.52,1.16,1.1,1.1,0,0,0,1,.86,1.34,1.34,0,0,0,1.19-.62.78.78,0,0,0,.16-.33,1.12,1.12,0,0,0-.53-1.08A1.19,1.19,0,0,0,55,15.4Z"/></g></g></g></svg>