<?xml version="1.0" encoding="UTF-8"?>
<!DOCTYPE svg PUBLIC "-//W3C//DTD SVG 1.1//EN" "http://www.w3.org/Graphics/SVG/1.1/DTD/svg11.dtd">
<!-- Creator: CorelDRAW X8 -->
<svg xmlns="http://www.w3.org/2000/svg" xml:space="preserve" width="6.81243cm" height="6.81241cm" version="1.1" style="shape-rendering:geometricPrecision; text-rendering:geometricPrecision; image-rendering:optimizeQuality; fill-rule:evenodd; clip-rule:evenodd"
viewBox="0 0 11021 11021"
 xmlns:xlink="http://www.w3.org/1999/xlink">
 <defs>
  <style type="text/css">
   <![CDATA[
    .fil1 {fill:#3E3D3D}
    .fil0 {fill:#FCE51F}
   ]]>
  </style>
 </defs>
 <g id="Layer_x0020_1">
  <metadata id="CorelCorpID_0Corel-Layer"/>
  <g id="_2428285505264">
   <path class="fil0" d="M5510 0c3044,0 5511,2467 5511,5510 0,3044 -2467,5511 -5511,5511 -3043,0 -5510,-2467 -5510,-5511 0,-3043 2467,-5510 5510,-5510z"/>
   <path class="fil1" d="M2831 6444c54,-416 157,-863 321,-1343 0,0 -370,-414 -376,-797 -6,-382 201,-1095 84,-1283 -116,-188 -544,-356 -466,-1237 0,0 583,194 764,337 182,142 415,142 622,64 208,-77 804,-375 1730,-375 927,0 1523,298 1730,375 208,78 441,78 622,-64 182,-143 765,-337 765,-337 78,881 -350,1049 -466,1237 -117,188 90,901 84,1283 -7,383 -376,797 -376,797 164,480 266,927 321,1343 -598,66 -1303,143 -1817,199 -103,-425 -236,-854 -396,-1295 966,-138 1453,-554 1472,-1296 12,-452 -230,-902 -837,-908 -671,-5 -809,765 -845,1109 -25,233 -68,451 -257,550 -188,-99 -231,-317 -256,-550 -36,-344 -174,-1114 -845,-1109 -607,6 -849,456 -837,908 19,742 506,1158 1472,1296 -160,441 -293,870 -396,1295 -514,-56 -1219,-133 -1817,-199zm1577 -2943l0 0c-247,0 -447,200 -447,447 0,247 200,447 447,447 247,0 447,-200 447,-447 0,-247 -200,-447 -447,-447zm2204 0l0 0c-247,0 -447,200 -447,447 0,247 200,447 447,447 247,0 447,-200 447,-447 0,-247 -200,-447 -447,-447z"/>
   <path class="fil1" d="M9371 6532c-208,30 -3717,410 -3717,410 0,0 -26,97 -144,90 -117,7 -143,-90 -143,-90 0,0 -3509,-380 -3718,-410 -208,-30 -216,141 -216,141l195 2747c996,990 2368,1601 3882,1601 1515,0 2887,-611 3883,-1601l194 -2747c0,0 -7,-171 -216,-141z"/>
  </g>
 </g>
</svg>
