<svg xmlns="http://www.w3.org/2000/svg" viewBox="0 0 52 52"><defs><style>.cls-1{fill:#3e3d3d;}.cls-2{fill:#fff;}</style></defs><g id="Layer_2" data-name="Layer 2"><g id="Layer_1-2" data-name="Layer 1"><circle class="cls-1" cx="26" cy="26" r="26"/><path class="cls-2" d="M21.29,42.71v-15h-5v-6h5V16.8a9,9,0,0,1,.58-3.33,6.7,6.7,0,0,1,5.29-4.29,18.4,18.4,0,0,1,4.45-.09c.66,0,1.31.11,2,.16v5.36h-.36l-3.4,0a2.58,2.58,0,0,0-.62.09,1.92,1.92,0,0,0-1.67,2c-.08,1.61,0,3.22,0,4.88h5.56l-.79,6H27.5V42.71Z"/></g></g></svg>