<svg xmlns="http://www.w3.org/2000/svg" viewBox="0 0 30.63 30.63">
    <defs>
        <style>
            .cls-1 {
                fill: #3e3d3d;
            }

            .cls-2 {
                fill: #f8fbfc;
            }
        </style>
    </defs>
    <g id="Layer_2" data-name="Layer 2">
        <g id="bela_pozadina_i_okvir" data-name="bela pozadina i okvir">
            <circle class="cls-1" cx="15.31" cy="15.31" r="15.31" />
            <path class="cls-2"
                d="M15.14,5.31a10,10,0,1,0,10.18,9.83A10,10,0,0,0,15.14,5.31ZM12.34,7a9.78,9.78,0,0,0-1.53,3H8.23A9,9,0,0,1,12.34,7ZM7.49,11.21h3a18.23,18.23,0,0,0-.43,3.52H6.5A8.68,8.68,0,0,1,7.49,11.21Zm-1,4.69h3.55a18.33,18.33,0,0,0,.43,3.52h-3A8.77,8.77,0,0,1,6.5,15.9Zm1.73,4.69h2.58a9.72,9.72,0,0,0,1.53,3A8.92,8.92,0,0,1,8.23,20.59Zm6.5,3.46c-1.32-.45-2.21-2.15-2.68-3.46h2.68Zm0-4.63h-3a17,17,0,0,1-.47-3.52h3.51Zm0-4.69H11.22a16.91,16.91,0,0,1,.47-3.52h3Zm0-4.69H12.05c.46-1.31,1.36-3,2.68-3.46Zm9.4,4.69H20.58a17.46,17.46,0,0,0-.44-3.52h3A8.85,8.85,0,0,1,24.13,14.73ZM22.39,10H19.82a9.58,9.58,0,0,0-1.54-3A8.9,8.9,0,0,1,22.39,10ZM15.9,6.58C17.22,7,18.11,8.73,18.58,10H15.9Zm0,4.63h3a16.25,16.25,0,0,1,.48,3.52H15.9Zm0,4.69h3.51a16.34,16.34,0,0,1-.48,3.52h-3Zm0,8.15V20.59h2.68C18.11,21.9,17.22,23.6,15.9,24.05Zm2.38-.42a9.52,9.52,0,0,0,1.54-3h2.57A8.82,8.82,0,0,1,18.28,23.63Zm4.85-4.21h-3a17.55,17.55,0,0,0,.44-3.52h3.55A9,9,0,0,1,23.13,19.42Z" />
        </g>
    </g>
</svg>