<svg xmlns="http://www.w3.org/2000/svg" viewBox="0 0 52 52"><defs><style>.cls-1{fill:#3e3d3d;}.cls-2{fill:#fff;}</style></defs><g id="Layer_2" data-name="Layer 2"><g id="Layer_1-2" data-name="Layer 1"><circle class="cls-1" cx="26" cy="26" r="26"/><path class="cls-2" d="M36.59,14.65l-2.83,2.87c-.71.7-.72.7-1.54.11a9.77,9.77,0,0,0-6-1.89,9.81,9.81,0,0,0-7.53,3.4,9.82,9.82,0,0,0-1.92,10.63A9.73,9.73,0,0,0,25,36.16a9.71,9.71,0,0,0,7.24-1.82A9.94,9.94,0,0,0,36,29.17a2.56,2.56,0,0,0,.1-.34.84.84,0,0,0,0-.24h-9.7V23.42H39.94a.8.8,0,0,1,.93.84,18,18,0,0,1-.51,6.41,15.79,15.79,0,0,1-2,4.66,12.48,12.48,0,0,1-3.46,3.56,14.49,14.49,0,0,1-7,2.36,15.33,15.33,0,0,1-9-1.93,15,15,0,0,1-6.59-7.47,15.25,15.25,0,0,1-.73-9.39,14.83,14.83,0,0,1,3.73-7,14.45,14.45,0,0,1,6.86-4.21A15.05,15.05,0,0,1,35.3,13.63C35.71,13.93,36.1,14.26,36.59,14.65Z"/></g></g></svg>