<svg xmlns="http://www.w3.org/2000/svg" viewBox="0 0 184.3 132.13"><defs><style>.cls-1{fill:#3e3d3d;}.cls-2{fill:#fff;}.cls-3{opacity:0.3;}.cls-4{fill:#f8744b;}.cls-5{opacity:0.5;}.cls-6{fill:#a4a4a4;}.cls-7{opacity:0.4;}.cls-8{fill:#eaa6a3;}.cls-9{fill:#f65289;}.cls-10{opacity:0.7;}.cls-11{fill:#fdfcfc;}path{fill: #000;}</style></defs><g id="Layer_2" data-name="Layer 2"><g id="bela_pozadina_i_okvir" data-name="bela pozadina i okvir"><circle class="cls-1" cx="92.7" cy="61.02" r="61.02"/><path class="cls-2" d="M158.64,72.42C154,93.63,131.89,97.21,126.91,97.75c-.64.07-1,.09-1,.09l-1.16-5.65c10.05-2.46,23.08-8.12,25.3-16a27.54,27.54,0,0,0,1-8.89c-.3-6-2.56-11.08-6.29-11.73a5.1,5.1,0,0,0-1.11-.06c-2.4.14-2.51,2.93-2.49,3.65.12,4.21-1.4,6.71-5.23,6.59a3.63,3.63,0,0,1-2.1-.86c-2.14-1.65-3.89-5.61-1.92-10.88,2.24-6,8-8.72,13.73-8a14.84,14.84,0,0,1,6.68,2.59C157.7,52.4,161.32,60.27,158.64,72.42Z"/><path d="M125.91,98a.14.14,0,0,1-.14-.11l-1.17-5.65a.16.16,0,0,1,.11-.17c10.27-2.51,23-8.19,25.2-15.92a27.5,27.5,0,0,0,1-8.84c-.33-6.45-2.76-11-6.18-11.6a4.77,4.77,0,0,0-1.07-.06c-2.33.14-2.37,2.95-2.35,3.51.07,2.53-.46,4.37-1.57,5.47a5,5,0,0,1-3.82,1.27,3.87,3.87,0,0,1-2.18-.89c-2.35-1.82-3.87-5.95-2-11a12.75,12.75,0,0,1,13.87-8.1,14.89,14.89,0,0,1,6.75,2.63c6.44,4.53,8.77,13.27,6.41,24h0c-2,9-7.32,15.94-15.83,20.51a45.66,45.66,0,0,1-16,4.93c-.63.07-1,.09-1,.09Zm-1-5.68L126,97.68c.15,0,.45,0,.86-.08,4.46-.48,26.92-4,31.6-25.21h0c2.34-10.59,0-19.22-6.29-23.69a14.78,14.78,0,0,0-6.61-2.57A12.47,12.47,0,0,0,132,54c-1.85,5-.4,9,1.87,10.72a3.61,3.61,0,0,0,2,.83,4.68,4.68,0,0,0,3.6-1.18c1.05-1,1.55-2.82,1.49-5.26,0-.61,0-3.66,2.62-3.81a4.82,4.82,0,0,1,1.14.07c3.56.62,6.08,5.27,6.42,11.87a27.8,27.8,0,0,1-1,8.93C148,84,135.24,89.75,124.92,92.3Z"/><g class="cls-3"><path d="M158.64,72.42C154,93.63,131.89,97.21,126.91,97.75l-.42-2c8-1.54,24.82-5.44,28.77-23.37,2.7-12.25-1.44-21.58-6.93-25.36a15.22,15.22,0,0,1,4,1.57C157.7,52.4,161.32,60.27,158.64,72.42Z"/></g><path class="cls-4" d="M135.9,65.73c3.82.12,5.35-2.38,5.23-6.58,0-.72.09-3.52,2.49-3.66a5.1,5.1,0,0,1,1.11.06l-1-1.3A.86.86,0,0,1,144,53l2.22-1.28a.85.85,0,0,0,0-1.48L144,49a.85.85,0,0,1-.16-1.37L145.61,46c-5.71-.72-11.49,2-13.73,8C129.27,61,133.2,65.65,135.9,65.73Z"/><path d="M125.91,98.76a.93.93,0,0,1,0-1.85A44.71,44.71,0,0,0,140,93.24c9.67-4.34,15.64-11.41,17.76-21,3.35-15.17-3.33-22.87-10.07-24.86-5.51-1.63-12.4.24-14.91,7-1.71,4.58-.25,7.51.45,8.56a3.65,3.65,0,0,0,5.75,1c.89-.89,1.32-2.46,1.26-4.68-.06-2,.79-4.46,3.36-4.61,2.22-.13,4.31,1.06,5.88,3.33,3.24,4.69,3.67,12.71,1,18.67C146,86.61,132.56,91.23,125,93.09a.92.92,0,0,1-1.12-.68.94.94,0,0,1,.68-1.12c7.27-1.78,20.07-6.15,24.24-15.48,2.76-6.18,1.63-13.3-.83-16.87-.84-1.21-2.26-2.65-4.26-2.53-1.56.09-1.63,2.1-1.61,2.71.07,2.75-.53,4.78-1.8,6a5.51,5.51,0,0,1-8.6-1.26c-1.82-2.72-2.06-6.45-.65-10.24,2.57-6.86,9.79-10.26,17.18-8.08a16.4,16.4,0,0,1,10,8.58c2.46,4.92,2.92,11.3,1.34,18.46-2.22,10.09-8.75,17.81-18.87,22.33A45.92,45.92,0,0,1,126,98.76Z"/><g class="cls-3"><path d="M133.8,64.87a3.63,3.63,0,0,0,2.1.86c3.82.12,5.35-2.38,5.23-6.58,0-.72.09-3.52,2.49-3.66a4.55,4.55,0,0,1,1.11.06c3.73.65,6,5.75,6.3,11.73l.88-.48s-1.27-12.22-8.38-13.75c-7.36-1.58-6.61,5.16-7.28,8.76C135.85,64,134.67,64.67,133.8,64.87Z"/></g><path class="cls-2" d="M181,92.7c-11.86,22.87-46.75,39.43-87.94,39.43S17,115.57,5.11,92.7Z"/><polygon class="cls-2" points="142.86 114.98 101.19 114.98 103.3 109.73 106.43 101.92 133.31 102.21 139.48 110.47 142.86 114.98"/><path d="M142.86,115.12H101.19a.13.13,0,0,1-.12-.06.14.14,0,0,1,0-.14l5.25-13a.14.14,0,0,1,.13-.09h0l26.88.28a.13.13,0,0,1,.11.06L143,114.89a.16.16,0,0,1,0,.15A.16.16,0,0,1,142.86,115.12Zm-41.46-.29h41.17l-9.34-12.48-26.7-.28Z"/><path d="M142.86,115.9H101.19a.93.93,0,0,1-.77-.4.9.9,0,0,1-.09-.87l5.24-13a1,1,0,0,1,.86-.58h0l26.88.28a.91.91,0,0,1,.73.37l9.55,12.77a.92.92,0,0,1,.08,1A.89.89,0,0,1,142.86,115.9Zm-40.3-1.85H141l-8.17-10.92-25.78-.27Z"/><g class="cls-5"><path d="M137.15,112c-2.57,0-5.15,0-7.72-.06l-3.85-.09-3.85,0-7.7-.06q-3.86,0-7.71-.15,3.86-.22,7.71-.3t7.71-.07c1.28,0,2.57,0,3.86.08s2.57.11,3.85.19C132,111.61,134.58,111.78,137.15,112Z"/></g><g class="cls-5"><path d="M135.43,109.15c-2.36,0-4.73,0-7.09,0s-4.72-.13-7.08-.19l-7.08-.25c-1.18,0-2.36-.09-3.54-.07s-2.36,0-3.54,0c2.35-.17,4.72-.37,7.08-.35s4.73.05,7.1.13l3.54.14,3.54.18Q131.89,108.87,135.43,109.15Z"/></g><g class="cls-5"><path d="M133.65,106.71c-2.17,0-4.33,0-6.5-.12l-6.49-.19-6.5-.24c-1.08,0-2.16-.08-3.24-.1s-2.18-.08-3.26-.15c1.09-.06,2.17-.09,3.25-.14s2.17-.06,3.26-.06c2.17,0,4.34.05,6.5.11s4.34.17,6.5.32S131.5,106.48,133.65,106.71Z"/></g><g class="cls-5"><path d="M132.07,104.36a12.3,12.3,0,0,1-1.48.12l-1.48,0c-1,0-2,0-3,0-2,0-3.94-.1-5.9-.16l-5.9-.22-2.94-.12-1.48-.05c-.48,0-1,0-1.46-.07l2.94-.17c1,0,2,0,3,0,2,0,3.94,0,5.91.1s3.93.16,5.9.28l2.94.19C130.1,104.3,131.08,104.37,132.07,104.36Z"/></g><polygon class="cls-2" points="163.69 108.45 122.02 108.45 127.27 95.4 131.29 95.44 154.14 95.68 163.69 108.45"/><path d="M163.69,108.6H122a.15.15,0,0,1-.12-.07.12.12,0,0,1,0-.13l5.25-13.06a.14.14,0,0,1,.13-.09h0l26.87.29a.14.14,0,0,1,.12.06l9.55,12.76a.15.15,0,0,1,0,.16A.13.13,0,0,1,163.69,108.6Zm-41.45-.29H163.4l-9.33-12.48-26.7-.29Z"/><path class="cls-2" d="M97.56,94.84l-15,13.53s13.36-.69,19.55-.67c5.06,0,22,1.31,22,1.31L128,95.4Z"/><path d="M124.09,109.15h0c-.17,0-17-1.29-22-1.31-6.12,0-19.41.67-19.54.67a.12.12,0,0,1-.14-.09.14.14,0,0,1,0-.16l15-13.52a.09.09,0,0,1,.1,0l30.45.55a.17.17,0,0,1,.12.06.15.15,0,0,1,0,.13l-3.93,13.61A.14.14,0,0,1,124.09,109.15Zm-22.2-1.6h.24c4.78,0,20.34,1.19,21.85,1.3l3.85-13.31L97.62,95,83,108.2C85.24,108.09,96.29,107.55,101.89,107.55Z"/><g class="cls-3"><path d="M139.48,110.47h-15l-.16.55s-15.1-1.16-21-1.29l3.13-7.81,26.88.29Z"/></g><polygon class="cls-2" points="163.69 108.45 122.02 108.45 127.27 95.4 131.29 95.44 154.14 95.68 163.69 108.45"/><path d="M163.69,108.6H122a.15.15,0,0,1-.12-.07.12.12,0,0,1,0-.13l5.25-13.06a.14.14,0,0,1,.13-.09h0l26.87.29a.14.14,0,0,1,.12.06l9.55,12.76a.15.15,0,0,1,0,.16A.13.13,0,0,1,163.69,108.6Zm-41.45-.29H163.4l-9.33-12.48-26.7-.29Z"/><path d="M163.69,109.38H122a.93.93,0,0,1-.77-.41.94.94,0,0,1-.09-.86l5.25-13.06a.94.94,0,0,1,.87-.58l26.87.29a.91.91,0,0,1,.73.37l9.55,12.77a.92.92,0,0,1,.09,1A.94.94,0,0,1,163.69,109.38Zm-40.3-1.86h38.45L153.67,96.6l-25.78-.27Z"/><g class="cls-5"><path d="M158,105.46q-3.85,0-7.71-.06l-3.85-.09c-1.28,0-2.57,0-3.85,0l-7.71-.07q-3.86,0-7.71-.15,3.85-.21,7.71-.3t7.71-.06c1.29,0,2.58,0,3.86.07l3.86.19C152.85,105.08,155.42,105.25,158,105.46Z"/></g><g class="cls-5"><path d="M156.27,102.63c-2.37,0-4.73,0-7.1,0s-4.72-.13-7.08-.2l-7.08-.25c-1.18,0-2.35-.08-3.53-.07s-2.36,0-3.55,0c2.36-.16,4.72-.37,7.09-.34s4.73,0,7.09.12l3.54.14,3.54.19C151.55,102.28,153.91,102.44,156.27,102.63Z"/></g><g class="cls-5"><path d="M154.49,100.18q-3.26,0-6.5-.12l-6.5-.18L135,99.64c-1.09,0-2.17-.09-3.25-.11s-2.17-.08-3.25-.14c1.09-.07,2.17-.1,3.25-.14s2.17-.06,3.25-.06c2.17,0,4.34,0,6.51.11s4.33.17,6.5.31S152.33,100,154.49,100.18Z"/></g><g class="cls-5"><path d="M152.9,97.83a12.14,12.14,0,0,1-1.47.12L150,98c-1,0-2,0-3,0-2,0-3.93-.1-5.9-.16s-3.93-.13-5.89-.22l-2.95-.12-1.47,0c-.49,0-1,0-1.47-.07l2.94-.16c1,0,2,0,3,0,2,0,3.94,0,5.9.1s3.94.15,5.9.28l2.94.18C150.94,97.78,151.92,97.85,152.9,97.83Z"/></g><path class="cls-2" d="M67.18,92.7a84.6,84.6,0,0,1,1.26-11.21s2.17-11.08,3.94-16l43.14-2.65,2.32,3.59s8.62,12.32,12.6,26.28"/><path d="M130.44,92.85a.13.13,0,0,1-.13-.11C126.37,79,117.8,66.62,117.72,66.5L115.45,63l-43,2.64c-1.73,4.91-3.88,15.79-3.9,15.9a83,83,0,0,0-1.26,11.19.15.15,0,0,1-.15.14A.15.15,0,0,1,67,92.7a85.39,85.39,0,0,1,1.26-11.24c0-.11,2.2-11.14,3.95-16a.14.14,0,0,1,.13-.09l43.14-2.66a.16.16,0,0,1,.13.07L118,66.34c.08.12,8.68,12.5,12.62,26.32a.14.14,0,0,1-.1.18Z"/><g class="cls-3"><path d="M70.47,72.58a16.74,16.74,0,0,0,3.67,1.87c5.49,1.93,28,5.27,40.77-6.06a32.21,32.21,0,0,0,3-3.12l-.08-.37L93,63.81l-17,.85L71.23,68l-.75,4.54A.2.2,0,0,1,70.47,72.58Z"/></g><path d="M130.44,93.63a.93.93,0,0,1-.89-.67c-3.89-13.65-12.39-25.89-12.47-26l0,0-2-3.13-42,2.58c-1.68,5-3.68,15.2-3.71,15.3A84,84,0,0,0,68.1,92.75a.92.92,0,0,1-1,.88.94.94,0,0,1-.88-1,88,88,0,0,1,1.28-11.34c.09-.45,2.21-11.2,4-16.14a.91.91,0,0,1,.81-.61l43.15-2.66a.91.91,0,0,1,.83.43l2.31,3.57c.35.51,8.81,12.82,12.73,26.55a.94.94,0,0,1-.64,1.15A1.15,1.15,0,0,1,130.44,93.63Z"/><path class="cls-6" d="M55.72,48.14s.11.52-.9,1.65c-.54-.23-.91-.53-1-.89a.82.82,0,0,1,.07-.53A17.22,17.22,0,0,0,55.72,48.14Z"/><path d="M54.82,49.94h-.06c-.63-.27-1-.61-1.06-1a1,1,0,0,1,.09-.61.14.14,0,0,1,.12-.09A16.27,16.27,0,0,0,55.69,48a.15.15,0,0,1,.17.11c0,.06.1.63-.93,1.78A.16.16,0,0,1,54.82,49.94ZM54,48.5a.79.79,0,0,0,0,.37c0,.28.31.53.79.75a3.12,3.12,0,0,0,.78-1.3C55.27,48.36,54.68,48.45,54,48.5Z"/><path class="cls-4" d="M76.29,15.6c-3.3-2-18.41-10.75-21.13-8.21-4.78,4.45.84,19.46,2.19,22.85"/><g class="cls-7"><path class="cls-2" d="M76.29,15.6l-2,1.56C69.4,14.32,56.91,7.44,54.46,9.73a4.7,4.7,0,0,0-1,1.43,6.31,6.31,0,0,1,1.74-3.77C57.88,4.85,73,13.62,76.29,15.6Z"/></g><path d="M57.35,31.16a.92.92,0,0,1-.86-.58c-1.76-4.39-7.08-19.1-2-23.87,1-1,3.25-1.56,11.38,2.25,4.7,2.2,9.51,5,10.87,5.84a.93.93,0,0,1,.32,1.27.92.92,0,0,1-1.27.32c-1.34-.8-6.08-3.58-10.7-5.75C57.3,7,55.92,7.94,55.79,8.07,52.4,11.22,55,21.8,58.21,29.89a.93.93,0,0,1-.52,1.21A1,1,0,0,1,57.35,31.16Z"/><path class="cls-8" d="M57,11.87s-.74-.23-.62,1.51c.2,3,1.81,10.4,5.38,12.95,0,0,4.76-7.83,6.1-8.77s-1.67-1.77-2.57-2.82S57.56,11.58,57,11.87Z"/><path d="M61.77,26.48a.16.16,0,0,1-.09,0c-3.57-2.56-5.23-10-5.43-13.06-.06-.8.06-1.33.35-1.55a.56.56,0,0,1,.41-.12c.93-.22,7.5,1.87,8.4,2.93a6,6,0,0,0,1.42,1c.81.47,1.5.88,1.52,1.38a.76.76,0,0,1-.4.63c-1.3.92-6,8.66-6.06,8.74a.2.2,0,0,1-.09.07ZM56.93,12a.25.25,0,0,0-.16.06c-.11.09-.3.39-.23,1.3.2,2.94,1.78,10.17,5.19,12.75.65-1.07,4.79-7.79,6.05-8.68.19-.14.28-.26.28-.39,0-.34-.71-.74-1.37-1.14a6.09,6.09,0,0,1-1.5-1.07c-.92-1.09-7.65-3-8.11-2.84A.2.2,0,0,1,57,12h0Z"/><path class="cls-9" d="M67.86,17.56c-.77.55-2.71,3.43-4.2,5.75-1.06,1.66-1.89,3-1.89,3-3.57-2.55-5.17-10-5.38-12.95-.12-1.74.62-1.51.62-1.51a10.69,10.69,0,0,1,3.36.72c2.08.65,4.43,1.56,4.93,2.15C66.2,15.79,69.2,16.61,67.86,17.56Z"/><g class="cls-3"><path d="M67.86,17.56c-.77.55-2.71,3.43-4.2,5.75a26.19,26.19,0,0,1-3.29-10.64v-.08c2.08.65,4.43,1.56,4.93,2.15C66.2,15.79,69.2,16.61,67.86,17.56Z"/></g><path d="M61.46,26.93A1.78,1.78,0,0,1,60,26.14a30.48,30.48,0,0,1-2.35-4.43,18.09,18.09,0,0,1-1.39-9.26,1.63,1.63,0,0,1,.68-1.16A1.66,1.66,0,0,1,58.25,11c2.14.53,7.51,2.1,11.24,5.3a.73.73,0,0,1,0,1.11A30.08,30.08,0,0,0,63.05,26h0a1.81,1.81,0,0,1-1.49.95Zm-3.6-14.49a.16.16,0,0,0-.11,0,.15.15,0,0,0-.07.12A16.8,16.8,0,0,0,59,21.12a30,30,0,0,0,2.23,4.21.34.34,0,0,0,.3.15.34.34,0,0,0,.29-.18h0a33.51,33.51,0,0,1,6.14-8.38,28.91,28.91,0,0,0-10-4.47Z"/><path class="cls-2" d="M52.27,56.21c.31,1.74,4.09-.58,4.09-.58s.26.54-.42,2.15c-.51,1.2-1,2.08-.69,2.69s1.44.71,2.75.48a2.87,2.87,0,0,1,2.81.95c.21.21.44.45.68.73h0a28.42,28.42,0,0,0,12.66,7.18s27.81,5.66,42.22-6.06a23.39,23.39,0,0,0,5.55-6.7,3.11,3.11,0,0,1,1.18-.13c1.33.07,2.46-.14,2.68-.82s-.29-1.54-.89-2.7a10.29,10.29,0,0,1-.77-1.8.07.07,0,0,1,.09-.1c.7.3,3.91,1.58,4,0a4.35,4.35,0,0,0-.44-1.49,30.83,30.83,0,0,1-1.69-4.54c-1-4.31-1.86-7.34-2.37-9.17a.83.83,0,0,0,0-.15s0-.1,0-.14a.74.74,0,0,0,0-.14c-.15-.53-.31-1.06-.49-1.58a53.45,53.45,0,0,0-3.36-7.47L109.06,16.75,101.94,10a33.16,33.16,0,0,0-13.26-2.4c-1,0-2,.07-2.88.16h-.07a23.81,23.81,0,0,0-5,1,47.78,47.78,0,0,0-4.56,1.75c-11.45,5-17,16.31-17,16.31a48.77,48.77,0,0,0-3.12,7.74c-.28,1-.52,1.93-.71,2.91-.06.28-.11.57-.16.85a.42.42,0,0,1,0,.07c-.09.54-.7,4.27-1.54,11.49C53.34,52.66,52.12,55.36,52.27,56.21Z"/><path class="cls-4" d="M55.36,37.55c5.17,1.26,11.1,1.21,16.69-2.24C84.73,27.48,82.74,15,80.76,8.84a47.78,47.78,0,0,0-4.56,1.75c-11.45,5-17,16.31-17,16.31a48.77,48.77,0,0,0-3.12,7.74C55.79,35.61,55.55,36.57,55.36,37.55Z"/><path d="M104.78,50.22a11,11,0,0,0-1.65-3.86A4.17,4.17,0,0,0,100,44.61a4.68,4.68,0,0,0-1.84.14,4,4,0,0,0-1.56.94,7.09,7.09,0,0,0-1.82,3.68h0a.35.35,0,0,1-.41.26.35.35,0,0,1-.27-.29,6.52,6.52,0,0,1,1.24-4.77A5.16,5.16,0,0,1,97.53,43a5.89,5.89,0,0,1,2.67-.36,5.63,5.63,0,0,1,2.59.82,5.36,5.36,0,0,1,1.86,2,7,7,0,0,1,.81,2.4,7.68,7.68,0,0,1,0,2.44.35.35,0,0,1-.4.28.33.33,0,0,1-.27-.25Z"/><path d="M73.8,48.89a10.61,10.61,0,0,0-1.58-3.63,3.92,3.92,0,0,0-2.92-1.63,4.42,4.42,0,0,0-1.71.13,3.6,3.6,0,0,0-1.46.87,6.72,6.72,0,0,0-1.75,3.45h0a.33.33,0,0,1-.4.26.34.34,0,0,1-.27-.29,6.1,6.1,0,0,1,1.16-4.54A5,5,0,0,1,66.94,42a5.62,5.62,0,0,1,2.55-.34A5.35,5.35,0,0,1,72,42.4a5.16,5.16,0,0,1,1.78,1.88,6.79,6.79,0,0,1,.76,2.29,7,7,0,0,1,0,2.32.34.34,0,0,1-.4.28.36.36,0,0,1-.27-.25Z"/><g class="cls-3"><path d="M78.65,56.79a3.25,3.25,0,0,0,4.26-1.1,3.48,3.48,0,0,0,4.49.87c1.62-1,.77-3.25.77-3.25l-10.24.6S77.24,56.06,78.65,56.79Z"/></g><path class="cls-2" d="M78.27,53.15s-.64,2,.67,2.65c1.68.87,3.2-.55,3.86-1.58,0,0,1.92,2.63,4.2,1.37,1.52-.83.71-3,.71-3"/><path d="M80,56.22a2.4,2.4,0,0,1-1.12-.29c-1.4-.72-.76-2.74-.74-2.83a.15.15,0,0,1,.19-.09.15.15,0,0,1,.09.18s-.59,1.88.59,2.49c2,1,3.51-1.28,3.68-1.54a.15.15,0,0,1,.12-.07.14.14,0,0,1,.12.06c.08.1,1.87,2.51,4,1.34,1.39-.77.65-2.8.65-2.82a.15.15,0,0,1,.27-.11s.83,2.29-.78,3.18c-2,1.11-3.78-.7-4.26-1.26A3.8,3.8,0,0,1,80,56.22Z"/><path d="M78.36,53.18a3.82,3.82,0,0,0,.34,1.66,1,1,0,0,0,.43.41,2,2,0,0,0,.32.12,2.21,2.21,0,0,0,.34.06,2.15,2.15,0,0,0,1.37-.36,3.92,3.92,0,0,0,1.16-1.17.58.58,0,0,1,.8-.18.86.86,0,0,1,.14.13v0a4.22,4.22,0,0,0,.63.64,4.3,4.3,0,0,0,.73.5,2.23,2.23,0,0,0,1.54.23l.18,0,.19-.08.18-.08.15-.08a1.38,1.38,0,0,0,.43-.52,5,5,0,0,0,.32-1.81h0a.11.11,0,0,1,.11-.1s.06,0,.07,0a2.66,2.66,0,0,1,.5,1,2.42,2.42,0,0,1,0,1.2,2.11,2.11,0,0,1-.72,1.14l-.28.2a1.47,1.47,0,0,1-.28.14l-.28.13-.31.09a3.31,3.31,0,0,1-.63.1,2.78,2.78,0,0,1-.64-.06,3.62,3.62,0,0,1-1.14-.42,5.34,5.34,0,0,1-.93-.69,5.71,5.71,0,0,1-.78-.84l1,0a6.09,6.09,0,0,1-1.45,1.55,3.46,3.46,0,0,1-1,.5,2.51,2.51,0,0,1-1.19.08,2.91,2.91,0,0,1-.58-.15l-.26-.13-.14-.06-.13-.1a1.84,1.84,0,0,1-.73-1,2.45,2.45,0,0,1,0-1.11,2.86,2.86,0,0,1,.4-1,.1.1,0,0,1,.14,0,.09.09,0,0,1,0,.08Z"/><g class="cls-3"><path d="M87,55.59c-2.28,1.26-4.2-1.37-4.2-1.37-.66,1-2.18,2.45-3.86,1.58-.86-.44-.58-1.89-.49-2.53A5.61,5.61,0,0,0,79,54.5c.87,1.08,2.64-1.1,3.31-2.14,0,0,2.49,3.26,4.52,1.63a2,2,0,0,0,.67-1.49C87.65,53.14,88.15,55,87,55.59Z"/></g><path d="M82.64,51c0,.25,0,.52,0,.77a6.48,6.48,0,0,0,.1.77,4.91,4.91,0,0,0,.18.71,2.33,2.33,0,0,0,.27.57.69.69,0,0,1-.14,1,.7.7,0,0,1-1-.14.55.55,0,0,1-.08-.15l0,0a3.39,3.39,0,0,1-.25-1,6.69,6.69,0,0,1,0-.89,7.88,7.88,0,0,1,.07-.86,8.22,8.22,0,0,1,.15-.84.34.34,0,0,1,.41-.27.35.35,0,0,1,.28.34Z"/><path d="M86.86,50c-.12,1.23-2.47,2.11-4.21,2.23-1.32.09-3.48-.63-3.56-2-.07-1,1.06-1.87,4.21-1.82C85.87,48.47,86.94,49.16,86.86,50Z"/><g class="cls-10"><path class="cls-2" d="M83.27,49.31c.12.34-.55.62-1.19.64-.28,0-1.11-.12-1.18-.37s.18-.48,1.11-.51S83.19,49.08,83.27,49.31Z"/><path d="M82.07,50.1c-.18,0-1.19-.08-1.31-.48a.37.37,0,0,1,0-.34c.15-.21.54-.33,1.19-.35.87,0,1.29,0,1.41.33a.39.39,0,0,1-.06.36,1.75,1.75,0,0,1-1.27.48Zm.36-.89H82c-.76,0-.93.18-1,.23a.1.1,0,0,0,0,.08c0,.13.71.29,1,.28a1.49,1.49,0,0,0,1-.35c0-.05,0-.08,0-.1h0C83.09,49.25,82.85,49.21,82.43,49.21Z"/></g><path class="cls-2" d="M99.34,13.85C102.31,11.4,115.92.44,119,2.54c5.39,3.68,1.36,21.68.53,25.24"/><g class="cls-7"><path class="cls-2" d="M52.28,56.21a.7.7,0,0,0,.51.6,27.52,27.52,0,0,0,1-4.34c.83-7.22,1.44-10.95,1.54-11.49a.17.17,0,0,1,0-.07,32,32,0,0,1,.86-3.76c.74-2.51,1.19-5.28,2.53-8,0,0,6.16-11.06,17.61-16a31.27,31.27,0,0,1,9.52-2.8H86c.93-.1,1.89-.15,2.87-.16,4.87-.09,9,.46,13.08,2.5l1.35.76c4.4-3.55,14-10.53,16.78-8.64A5,5,0,0,1,121.28,6,6.32,6.32,0,0,0,119,2.54c-2.64-1.8-11.75,4.73-16.18,8.18l.12-.26A31.43,31.43,0,0,0,88.68,7.62c-1,0-1.94.07-2.88.16h-.07a31.42,31.42,0,0,0-9.53,2.8c-11.45,5-17,16.31-17,16.31a49.44,49.44,0,0,0-3.12,7.75,31.41,31.41,0,0,0-.87,3.75.32.32,0,0,1,0,.07c-.09.54-.7,4.27-1.54,11.49C53.34,52.66,52.12,55.36,52.28,56.21Z"/></g><path class="cls-8" d="M117.84,7.26s.69-.34.84,1.4c.25,3-.22,10.55-3.36,13.61,0,0-5.89-7-7.35-7.76s1.38-2,2.11-3.17S117.26,7.05,117.84,7.26Z"/><path d="M115.32,22.42h0a.21.21,0,0,1-.1-.06c-.06-.07-5.89-7-7.31-7.72a.78.78,0,0,1-.49-.56c0-.5.57-1,1.29-1.59A6.41,6.41,0,0,0,110,11.27c.72-1.17,6.74-4.16,7.82-4.16h0a.54.54,0,0,1,.42,0c.32.18.52.68.58,1.48.26,3-.25,10.66-3.4,13.73A.12.12,0,0,1,115.32,22.42Zm2.43-15c-.72,0-6.82,2.85-7.55,4a6,6,0,0,1-1.32,1.29c-.6.49-1.22,1-1.18,1.34q0,.18.33.33c1.39.69,6.49,6.71,7.3,7.68,3-3.07,3.45-10.45,3.21-13.39-.08-.91-.31-1.18-.44-1.26a.24.24,0,0,0-.2,0,.14.14,0,0,1-.11,0Z"/><path class="cls-9" d="M108,14.51c.85.43,3.2,3,5,5,1.3,1.49,2.33,2.71,2.33,2.71,3.14-3.06,3.61-10.64,3.36-13.61-.14-1.74-.84-1.4-.84-1.4a10.5,10.5,0,0,0-3.21,1.22c-2,.95-4.15,2.21-4.55,2.86C109.35,12.52,106.5,13.78,108,14.51Z"/><g class="cls-3"><path d="M108,14.51c.85.43,3.2,3,5,5a26.14,26.14,0,0,0,1.65-11V8.48c-2,.95-4.15,2.21-4.55,2.86C109.35,12.52,106.5,13.78,108,14.51Z"/></g><path d="M115.29,22.71A1.65,1.65,0,0,1,114,22h0a30.13,30.13,0,0,0-7.6-7.39.73.73,0,0,1-.34-.51.75.75,0,0,1,.17-.59c3.17-3.69,8.21-6.05,10.23-6.9a1.87,1.87,0,0,1,2.5,1.13c.5,1.47.88,4.17-.16,8.69A22,22,0,0,1,117.17,21l-.36.77a1.67,1.67,0,0,1-1.35,1Zm-.18-1.54a.21.21,0,0,0,.21.09.2.2,0,0,0,.18-.13l.36-.76a20.55,20.55,0,0,0,1.47-4.22c1-4.41.57-6.85.21-7.9a.4.4,0,0,0-.23-.26A.43.43,0,0,0,117,8a28.92,28.92,0,0,0-9.14,5.9,33.93,33.93,0,0,1,7.28,7.28Z"/><path d="M76.77,70.71a34.48,34.48,0,0,1-6.44-1.47,25.89,25.89,0,0,1-6-2.94c-.46-.32-.93-.64-1.37-1-.23-.17-.44-.35-.66-.53l-.17-.14L62,64.57l0,0-.06-.06-.31-.29c-.2-.19-.4-.39-.61-.61l-.16-.17-.09-.11-.07-.09L60.47,63a4,4,0,0,0-1-.8,2,2,0,0,0-1.05-.27l-.12,0h-.15l-.45.07a7.34,7.34,0,0,1-1,.06,4,4,0,0,1-1.08-.15,2.19,2.19,0,0,1-.63-.29,1.52,1.52,0,0,1-.32-.26,2.11,2.11,0,0,1-.28-.37,2.25,2.25,0,0,1-.23-.76,3.14,3.14,0,0,1,0-.62,5.54,5.54,0,0,1,.23-1c.18-.57.39-1.08.56-1.57a8.21,8.21,0,0,0,.41-1.41v0s0,0,0,0a.34.34,0,0,0,0,.1,1,1,0,0,0,.14.46.85.85,0,0,0,.46.35.89.89,0,0,0,.7-.06l-.17.09-.38.21-.79.38a7,7,0,0,1-1.82.55,3,3,0,0,1-.6,0,1.77,1.77,0,0,1-.76-.23,1.59,1.59,0,0,1-.66-.7,1.86,1.86,0,0,1-.17-.78,3.1,3.1,0,0,1,0-.57c0-.17.06-.31.09-.46s.14-.56.22-.83c.3-1.06.61-2.07.82-3.09,0-.25.1-.5.14-.75s.07-.49.1-.77L53,48l.41-3.25c.28-2.16.57-4.31.93-6.49a.93.93,0,0,1,1.83.3h0v.07h0a.93.93,0,0,1-1.83-.29h0A41.32,41.32,0,0,1,58,27.14a32.71,32.71,0,0,1,3.09-5.09,42.12,42.12,0,0,1,3.78-4.54c.34-.37.71-.7,1.06-1.05l.53-.52.55-.49,1.12-1,1.18-.92c.2-.14.38-.31.59-.44l.62-.42c.41-.28.81-.57,1.23-.83l1.29-.75.65-.37.67-.32,1.35-.65L77.1,9.2c.9-.37,1.82-.73,2.76-1a27.92,27.92,0,0,1,2.88-.82c.49-.11,1-.21,1.48-.29L85,6.94l.36,0,.18,0h.21a34,34,0,0,1,4.52-.15,32.11,32.11,0,0,1,4.5.51,33.34,33.34,0,0,1,8.6,2.76l-1,.12c1.42-1.17,2.86-2.29,4.35-3.37s3-2.12,4.61-3.06c.8-.47,1.62-.92,2.48-1.32a12.65,12.65,0,0,1,2.78-1,5.22,5.22,0,0,1,1.65-.09,3.27,3.27,0,0,1,.92.26,3.63,3.63,0,0,1,.44.25l.32.25a6.57,6.57,0,0,1,1.83,2.54,12.86,12.86,0,0,1,.81,2.82,21.08,21.08,0,0,1,.3,2.83c0,.93,0,1.87,0,2.79s-.09,1.86-.18,2.77c-.17,1.84-.44,3.67-.77,5.47s-.71,3.6-1.21,5.41l-.09-.72a38.86,38.86,0,0,1,2.29,5c.32.84.63,1.69.92,2.54l.42,1.29.2.64.2.68,0-.06c.14.43.23.79.34,1.18l.31,1.14.59,2.29L127,45.21a26.91,26.91,0,0,0,1.58,4.28c.15.37.31.74.45,1.19a3,3,0,0,1,.09.38,2.47,2.47,0,0,1,0,.52c0,.09,0,.18,0,.28a1.86,1.86,0,0,1-.1.31,1.66,1.66,0,0,1-.41.57,2,2,0,0,1-1,.44,3.05,3.05,0,0,1-.8,0,6.71,6.71,0,0,1-1.32-.26c-.41-.12-.81-.26-1.19-.41l-.3-.12-.07,0s-.1,0,.12,0a.81.81,0,0,0,.51,0,.85.85,0,0,0,.52-.59.7.7,0,0,0,0-.32s0-.05,0-.08v0l.17.48c.14.33.29.66.46,1s.36.69.54,1.07a6.32,6.32,0,0,1,.5,1.29,2.63,2.63,0,0,1,0,1,1.72,1.72,0,0,1-.08.28,1,1,0,0,1-.13.29,1.66,1.66,0,0,1-.36.45,3.49,3.49,0,0,1-1.43.72,12.64,12.64,0,0,1-1.24.27,2.61,2.61,0,0,0-.42.1,2.76,2.76,0,0,0-.4.18,6,6,0,0,0-.82.59,13.55,13.55,0,0,0-1.58,1.55c-.5.57-1,1.16-1.47,1.77l-.74.92c-.12.16-.25.31-.39.47a4,4,0,0,1-.51.53l-.22.15a.67.67,0,0,0,.14-.09.18.18,0,0,0,.07,0l0,0h0l0,0-.07.07-.14.13-.29.27c-.2.17-.4.35-.6.51-.4.34-.81.66-1.24,1a17.63,17.63,0,0,1-2.67,1.63A21,21,0,0,1,109.23,69a18.44,18.44,0,0,1-3,.64.3.3,0,0,1-.34-.27.32.32,0,0,1,.17-.32h0c.91-.43,1.81-.84,2.68-1.29s1.73-.91,2.55-1.42c.42-.25.8-.5,1.2-.79s.79-.56,1.16-.86.75-.61,1.11-.92l.54-.49.26-.24.13-.13.06-.06,0,0v0h0l0-.05.07-.06.16-.09-.23.15c.06,0,.19-.2.31-.33l.36-.43.75-.9c.5-.61,1-1.22,1.58-1.82a19.65,19.65,0,0,1,1.8-1.72,8.32,8.32,0,0,1,1.11-.76,6.06,6.06,0,0,1,.68-.3,3.64,3.64,0,0,1,.72-.17c.37-.07.73-.14,1.06-.23a2,2,0,0,0,.67-.3h0v0h0a.47.47,0,0,0,0-.22,4.25,4.25,0,0,0-.36-.89c-.16-.34-.34-.68-.53-1s-.36-.75-.52-1.15c-.08-.2-.15-.4-.22-.63v-.06s0-.07,0-.1a.87.87,0,0,1,0-.39,1,1,0,0,1,.6-.7,1,1,0,0,1,.58,0c.25.07.17.06.19.07l.07,0,.25.11c.34.13.69.25,1,.35a5.69,5.69,0,0,0,1,.2h.38c.1,0,.12,0,.06,0a.65.65,0,0,0-.08.09s0,0,0,0h0s0,0,0-.07a.9.9,0,0,0-.05-.19,10.05,10.05,0,0,0-.38-1,29.1,29.1,0,0,1-1.67-4.55L124,41.09l-.58-2.27-.31-1.13c-.1-.37-.21-.77-.31-1.09l0-.06-.17-.6-.2-.62c-.13-.42-.27-.84-.41-1.25-.28-.83-.58-1.66-.89-2.47A35.41,35.41,0,0,0,119,26.89a.94.94,0,0,1-.09-.71h0c.48-1.69.86-3.46,1.18-5.22s.58-3.53.75-5.31c.08-.89.14-1.78.17-2.66a26,26,0,0,0,0-2.65,18.34,18.34,0,0,0-.27-2.58A10.84,10.84,0,0,0,120,5.34a4.82,4.82,0,0,0-1.3-1.84l-.21-.17c-.06-.05-.1-.05-.15-.09a1.84,1.84,0,0,0-.39-.1,3.54,3.54,0,0,0-1,.07,11.24,11.24,0,0,0-2.36.82c-.79.37-1.56.79-2.32,1.24a72.41,72.41,0,0,0-8.72,6.26.94.94,0,0,1-1,.12A31.77,31.77,0,0,0,94.4,9a30.24,30.24,0,0,0-4.24-.48,32.13,32.13,0,0,0-4.27.14h-.15l-.18,0-.36,0-.69.1c-.45.08-.91.16-1.36.27a25,25,0,0,0-2.69.76c-.89.3-1.78.64-2.65,1-.44.18-.89.36-1.32.56l-1.26.61-.63.3c-.21.11-.41.23-.61.35l-1.22.7c-.39.25-.77.52-1.16.78l-.59.4c-.19.13-.37.28-.56.42l-1.11.87-1.06.92-.53.47-.51.49c-.33.34-.68.65-1,1a39.76,39.76,0,0,0-3.62,4.35,31.07,31.07,0,0,0-2.91,4.79,53.12,53.12,0,0,0-2.21,5.25,31.76,31.76,0,0,0-1.4,5.42l-1.83-.27v-.07l1.83.3c-.35,2.11-.64,4.27-.93,6.41l-.4,3.23-.19,1.61c0,.26-.07.56-.11.85s-.1.56-.16.84c-.23,1.12-.55,2.19-.85,3.21-.07.26-.14.51-.19.75a3,3,0,0,0-.1.58s0,0,0,0h0v0a.29.29,0,0,0-.11-.11c-.08,0,.05,0,.23,0a4.82,4.82,0,0,0,1.28-.41l.68-.34L55.6,55l.19-.11a1,1,0,0,1,1.33.35,1.14,1.14,0,0,1,.17.55.53.53,0,0,1,0,.13V56a13.15,13.15,0,0,1-.47,1.73c-.19.54-.38,1-.52,1.5a3,3,0,0,0-.14.62c0,.17,0,.27,0,.2s-.06,0,.08,0a1.88,1.88,0,0,0,.53.06,5.59,5.59,0,0,0,.68-.05l.35-.06h.11L58,60l.28,0a4.1,4.1,0,0,1,2.08.49,5.74,5.74,0,0,1,1.54,1.2,4.1,4.1,0,0,1,.33.37l.06.08,0,0,.11.13.54.55.28.27.27.23c.2.17.39.35.6.5.4.34.82.65,1.24,1,3.42,2.42,7.45,3.93,11.54,5.38a.32.32,0,0,1,.19.4A.32.32,0,0,1,76.77,70.71Z"/><path d="M.8,91.88l5.71-.1,5.71-.08,11.42-.15q11.42-.12,22.84-.2c7.61-.06,15.22-.08,22.83-.11l22.84,0,22.84,0c7.61,0,15.22.05,22.83.11s15.23.12,22.84.2l11.42.15,5.71.08,5.71.1a.82.82,0,0,1,.8.84.81.81,0,0,1-.8.8l-5.71.11-5.71.08-11.42.15q-11.41.12-22.84.2c-7.61.06-15.22.08-22.83.11l-22.84,0-22.84,0c-7.61,0-15.22,0-22.83-.11s-15.23-.12-22.84-.2L12.22,93.7l-5.71-.07L.8,93.52a.81.81,0,0,1-.8-.83A.83.83,0,0,1,.8,91.88Z"/><path class="cls-1" d="M78,106.39,91.11,94.2A.25.25,0,0,0,91.2,94V91.82a.27.27,0,0,0-.28-.26L49,94.12,29.53,106.39Z"/><g class="cls-3"><path d="M91.2,93v1a.25.25,0,0,1-.09.19L78,106.39H29.53l3.55-2.24h44Z"/></g><path d="M78,107.31H29.53a.92.92,0,0,1-.89-.67.94.94,0,0,1,.4-1L48.5,93.34a1,1,0,0,1,.43-.14l41.94-2.56a1.2,1.2,0,0,1,.88.32,1.17,1.17,0,0,1,.37.86V94a1.23,1.23,0,0,1-.37.87L78.64,107.07A1,1,0,0,1,78,107.31Zm-45.26-1.85h44.9L90.27,93.72V92.53l-41,2.5Z"/><polygon class="cls-1" points="78 101.23 91.19 91.55 48.99 91.55 29.53 101.23 78 101.23"/><polygon class="cls-2" points="74.6 100.01 83.18 93.71 55.73 93.71 43.07 100.01 74.6 100.01"/><path d="M78,101.82a.59.59,0,0,1-.46-.24.58.58,0,0,1,.12-.81l12.56-9.22a.58.58,0,1,1,.68.93L78.35,101.7A.59.59,0,0,1,78,101.82Z"/><path d="M77.69,102.16H29.53a.92.92,0,0,1-.41-1.75l19.46-9.69a.86.86,0,0,1,.41-.1H90.41a.93.93,0,1,1,0,1.85H49.21l-15.74,7.84H77.69a.93.93,0,0,1,0,1.85Z"/><path class="cls-1" d="M76.75,107H21.61a1.31,1.31,0,0,1-.92-.39,1.37,1.37,0,0,1-.33-.59L11.09,68.34a2.58,2.58,0,0,1,2.5-3.19H65.07a3.86,3.86,0,0,1,3.68,2.7,2.17,2.17,0,0,1,.07.24L78,105.36A1.28,1.28,0,0,1,76.75,107Z"/><g class="cls-3"><path d="M76.75,107H21.61a1.31,1.31,0,0,1-.92-.39c6.76.33,30.26.51,41.48-11.59,7.18-7.76,7.3-19.9,6.58-27.13a2.17,2.17,0,0,1,.07.24L78,105.36A1.28,1.28,0,0,1,76.75,107Z"/></g><g class="cls-7"><path class="cls-2" d="M13.62,69.18l9.24,37.49H21.32a1.29,1.29,0,0,1-1.25-1L10.8,68.05a2.58,2.58,0,0,1,2.5-3.19H64.78a3.87,3.87,0,0,1,3.72,2.81,4.19,4.19,0,0,0-.5,0H14.83A1.24,1.24,0,0,0,13.62,69.18Z"/></g><path d="M76.75,107.89H21.61a2.22,2.22,0,0,1-2.15-1.69L10.19,68.56a3.5,3.5,0,0,1,3.4-4.34H65.07a4.78,4.78,0,0,1,4.65,3.64l9.18,37.28a2.19,2.19,0,0,1-.4,1.9A2.22,2.22,0,0,1,76.75,107.89ZM13.59,66.07a1.63,1.63,0,0,0-1.3.64,1.65,1.65,0,0,0-.3,1.41l9.27,37.64a.36.36,0,0,0,.35.27H76.75a.36.36,0,0,0,.29-.14.35.35,0,0,0,.06-.31L67.92,68.31a2.93,2.93,0,0,0-2.85-2.24Z"/><g class="cls-3"><polygon points="131.29 95.44 127.53 108.45 122.02 108.45 127.27 95.4 131.29 95.44"/></g><path class="cls-2" d="M97.56,94.84l-15,13.53s13.36-.69,19.55-.67c5.06,0,22,1.31,22,1.31L128,95.4Z"/><path d="M124.09,109.15h0c-.17,0-17-1.29-22-1.31-6.12,0-19.41.67-19.54.67a.12.12,0,0,1-.14-.09.14.14,0,0,1,0-.16l15-13.52a.09.09,0,0,1,.1,0l30.45.55a.17.17,0,0,1,.12.06.15.15,0,0,1,0,.13l-3.93,13.61A.14.14,0,0,1,124.09,109.15Zm-22.2-1.6h.24c4.78,0,20.34,1.19,21.85,1.3l3.85-13.31L97.62,95,83,108.2C85.24,108.09,96.29,107.55,101.89,107.55Z"/><path d="M124.09,109.93H124c-.17,0-16.93-1.29-21.89-1.31-6.11,0-19.37.67-19.5.67a.92.92,0,0,1-.67-1.61l15-13.52a.9.9,0,0,1,.64-.24l30.46.55a1,1,0,0,1,.73.38.93.93,0,0,1,.14.81L125,109.26A.92.92,0,0,1,124.09,109.93Zm-22.19-3.16h.24c4.48,0,17.9,1,21.27,1.26L126.8,96.3l-28.89-.52L85.13,107.32C89.27,107.12,97.36,106.77,101.9,106.77Z"/><path d="M110.46,96.85a8.72,8.72,0,0,1-1.16,4.4l-.32.55a1,1,0,0,1-1.66,0l-.33-.57a8.78,8.78,0,0,1-1.16-4.36V81.11c0-.54,1-1,2.29-1s2.28.44,2.28,1a.22.22,0,0,1,0,.08Z"/><g class="cls-3"><path d="M119.91,79.71s7.87,10,4,17.26C121.32,101.7,105,102.7,105,96c0-2.38,2-4.18,4-5.37,2.19-1.33,4.24-4,2.6-6.92"/></g><path class="cls-2" d="M119.42,75.08s7.86,10,3.94,17.26c-2.53,4.72-18.89,5.73-18.89-1,0-2.39,2-4.19,4-5.38,2.19-1.32,4.24-4,2.59-6.91"/><path d="M113,96.28a16.69,16.69,0,0,1-4-.45c-3-.75-4.59-2.33-4.59-4.45s1.4-3.9,4-5.5c2.35-1.42,4-4,2.54-6.72a.15.15,0,1,1,.26-.14c1.6,2.83-.18,5.61-2.65,7.11-1.78,1.08-3.9,2.86-3.9,5.25,0,2,1.55,3.46,4.37,4.17,4.8,1.21,12.57-.17,14.25-3.28,3.83-7.13-3.86-17-3.93-17.1a.14.14,0,0,1,.22-.18c.08.1,7.88,10.12,4,17.42C122.16,94.9,117.37,96.28,113,96.28Z"/><g class="cls-3"><path d="M123.36,92.34c-2.53,4.72-18.89,5.73-18.89-1a3.83,3.83,0,0,1,.12-1c4.23,3.06,15.18,1.66,17.22-2.13a11.29,11.29,0,0,0,.53-8.44C124.08,83.38,125.55,88.27,123.36,92.34Z"/></g><path d="M119.75,74.82a24.56,24.56,0,0,1,2.15,2.86,26.1,26.1,0,0,1,1.77,3.14,21.83,21.83,0,0,1,1.27,3.42,14.69,14.69,0,0,1,.53,3.7,10.85,10.85,0,0,1-.65,3.8c-.12.31-.24.61-.39.91l-.11.22-.15.25a3.83,3.83,0,0,1-.33.46A6.56,6.56,0,0,1,122.26,95a13,13,0,0,1-3.5,1.53,20.7,20.7,0,0,1-3.64.7,22.84,22.84,0,0,1-3.7,0,15.2,15.2,0,0,1-3.72-.72,9.17,9.17,0,0,1-1.82-.87,6.06,6.06,0,0,1-1.6-1.45,5.14,5.14,0,0,1-.56-1,4.44,4.44,0,0,1-.29-1.11,5.08,5.08,0,0,1,.18-2.2,6.24,6.24,0,0,1,1-1.87,9.33,9.33,0,0,1,1.36-1.44,13.62,13.62,0,0,1,1.54-1.11l.74-.46a4.53,4.53,0,0,0,.63-.45,6.28,6.28,0,0,0,1.83-2.33,3.92,3.92,0,0,0,.32-1.41,5.64,5.64,0,0,0-.2-1.59h0a.3.3,0,0,1,.22-.36.28.28,0,0,1,.29.09,3.69,3.69,0,0,1,.56.78,4.2,4.2,0,0,1,.37.93,4.31,4.31,0,0,1,0,2,5.28,5.28,0,0,1-.84,1.85A8,8,0,0,1,110.05,86c-.25.21-.51.41-.77.59l-.74.49a10.45,10.45,0,0,0-1.26,1,5.22,5.22,0,0,0-1.6,2.4,3.24,3.24,0,0,0-.08,1.27,2.49,2.49,0,0,0,.48,1.09,4.9,4.9,0,0,0,2.36,1.48,13,13,0,0,0,3.15.59,18.2,18.2,0,0,0,3.3,0,19.57,19.57,0,0,0,3.25-.58,11.43,11.43,0,0,0,2.93-1.21,4.59,4.59,0,0,0,1.07-.9,2,2,0,0,0,.18-.25l.08-.12.09-.17a6.14,6.14,0,0,0,.32-.69,8.75,8.75,0,0,0,.63-3.06,13.21,13.21,0,0,0-.29-3.24,20.93,20.93,0,0,0-1-3.23,33.33,33.33,0,0,0-3.1-6.1v0a.41.41,0,0,1,.13-.58A.43.43,0,0,1,119.75,74.82Z"/><g class="cls-5"><path d="M121.65,105.14c-2.55,0-5.08-.1-7.62-.21-1.27,0-2.54-.11-3.8-.14l-3.81-.12-7.61-.27c-1.27-.05-2.53-.07-3.8-.1s-2.55-.08-3.81-.15c2.54-.1,5.07-.21,7.62-.21s5.08.07,7.62.15,5.08.19,7.61.39S119.12,104.89,121.65,105.14Z"/></g><g class="cls-5"><path d="M123,102.9c-1.21,0-2.42,0-3.63,0s-2.41-.1-3.62-.17-2.41-.16-3.61-.26-2.41-.21-3.61-.39c1.21-.06,2.42-.07,3.63-.06.61,0,1.21,0,1.82,0s1.2.07,1.81.1c1.2.08,2.41.18,3.61.3S121.8,102.7,123,102.9Z"/></g><path class="cls-11" d="M38,82.67a1.24,1.24,0,0,0,1,.19,1.37,1.37,0,0,0,.93-.88,3.34,3.34,0,0,0-.13-2.8A2.09,2.09,0,0,0,38.54,78s0,0,0-.06H37.9s0,0,0,.06a1.41,1.41,0,0,0-.9.91,3.28,3.28,0,0,0,0,2.27A2.73,2.73,0,0,0,38,82.67Z"/><path class="cls-11" d="M37.08,85.13A2.19,2.19,0,0,0,37.19,84a2.89,2.89,0,0,0-1.47-2.18,1.37,1.37,0,0,0-1-.15,1.32,1.32,0,0,0-1,1s0,.11-.06.11v.9c.06,0,.05,0,.05.08a2.9,2.9,0,0,0,.24.7,2.57,2.57,0,0,0,1.48,1.41A1.25,1.25,0,0,0,37.08,85.13Z"/><path class="cls-11" d="M47,83.52a1.28,1.28,0,0,0-1.19-1,1.53,1.53,0,0,0-.88.23,3,3,0,0,0-1.42,2.9,1.34,1.34,0,0,0,1,1.17,1.53,1.53,0,0,0,1.09-.2,3,3,0,0,0,1.4-2s0-.11.07-.13v-.87C47,83.63,47,83.56,47,83.52Z"/><path class="cls-11" d="M43.2,86.37a6.27,6.27,0,0,0-1.82-1.66,2,2,0,0,0-2.08-.08,5.54,5.54,0,0,0-.63.38,8.15,8.15,0,0,0-2.28,2.54,4.36,4.36,0,0,0-.6,1.52.93.93,0,0,0,.52,1.09,2.18,2.18,0,0,0,1,.28v0h5s.08,0,.1,0H43l.14,0a2.3,2.3,0,0,0,1-.61.77.77,0,0,0,.27-.57,2.12,2.12,0,0,0-.13-.9A6.92,6.92,0,0,0,43.2,86.37Z"/><path class="cls-11" d="M42.43,83a1.58,1.58,0,0,0,.8-.36,3.4,3.4,0,0,0,1.23-2.29,2.5,2.5,0,0,0-.28-1.63,1.17,1.17,0,0,0-1.43-.55,1.7,1.7,0,0,0-.63.35A3.51,3.51,0,0,0,40.94,81a2.53,2.53,0,0,0,.29,1.38A1.17,1.17,0,0,0,42.43,83Z"/></g></g></svg>