<?xml version="1.0" encoding="UTF-8"?>
<!DOCTYPE svg PUBLIC "-//W3C//DTD SVG 1.1//EN" "http://www.w3.org/Graphics/SVG/1.1/DTD/svg11.dtd">
<!-- Creator: CorelDRAW X8 -->
<svg xmlns="http://www.w3.org/2000/svg" xml:space="preserve" width="6.8123cm" height="6.8123cm" version="1.1"
    style="shape-rendering:geometricPrecision; text-rendering:geometricPrecision; image-rendering:optimizeQuality; fill-rule:evenodd; clip-rule:evenodd"
    viewBox="0 0 11020 11020" xmlns:xlink="http://www.w3.org/1999/xlink">
    <defs>
        <style type="text/css">
            <![CDATA[
            .fil0 {
                fill: #FCE51F
            }

            .fil1 {
                fill: #3E3D3D;
                fill-rule: nonzero
            }

            .fil2 {
                fill: #FCE51F;
                fill-rule: nonzero
            }
            ]]>
        </style>
    </defs>
    <g id="Layer_x0020_1">
        <metadata id="CorelCorpID_0Corel-Layer" />
        <g id="_2428281283472">
            <circle class="fil0" cx="5510" cy="5510" r="5510" />
            <path class="fil1"
                d="M2912 6838c-5,-70 -18,-145 -32,-215 9,-89 78,-158 81,-248 3,-106 62,-164 161,-190 140,-37 282,-71 415,-131 477,-213 280,-457 1221,-442 29,1 57,2 83,-1 135,8 271,6 376,-72 20,-10 41,-32 63,-59 27,-33 58,-64 84,-98 142,-184 292,-360 462,-519 59,-56 119,-130 211,-100 97,32 109,127 118,214 10,109 23,218 22,328 -1,416 76,809 284,1176 101,178 172,371 203,574 59,380 184,748 203,1135 7,135 76,216 197,280 291,153 600,253 919,322 246,53 493,97 729,188 270,104 517,230 744,376 -1000,1027 -2399,1664 -3946,1664 -258,0 -512,-18 -761,-52 -126,-424 -182,-864 -234,-1305 -31,-264 -13,-532 -107,-790 -129,-354 -357,-644 -580,-937 -201,-264 -458,-473 -708,-688 -104,-89 -214,-178 -212,-336 0,-2 0,-3 0,-5 4,-23 5,-46 4,-69z" />
            <path class="fil1"
                d="M4335 1642c0,-149 48,-300 144,-453 95,-153 235,-279 418,-380 184,-100 397,-150 642,-150 227,0 428,42 602,126 174,84 308,198 402,342 95,144 142,301 142,470 0,133 -27,250 -81,351 -53,100 -118,187 -192,259 -74,73 -207,196 -400,368 -54,48 -96,91 -128,128 -33,37 -57,71 -72,101 -16,31 -28,61 -37,92 -8,30 -22,84 -38,161 -30,163 -123,244 -281,244 -81,0 -150,-27 -205,-80 -56,-53 -84,-132 -84,-237 0,-132 21,-246 61,-342 41,-96 95,-181 163,-254 67,-73 159,-160 273,-260 100,-87 173,-154 217,-198 45,-45 83,-95 113,-149 31,-55 46,-115 46,-179 0,-126 -47,-232 -140,-318 -94,-85 -213,-129 -361,-129 -172,0 -299,44 -381,131 -81,87 -150,215 -206,385 -54,176 -155,264 -304,264 -88,0 -162,-30 -222,-93 -60,-61 -91,-128 -91,-200zm1147 2576c-95,0 -179,-31 -250,-93 -72,-61 -107,-148 -107,-260 0,-98 34,-181 103,-249 70,-67 154,-101 254,-101 99,0 182,34 250,101 67,68 101,151 101,249 0,110 -35,197 -106,260 -71,62 -152,93 -245,93z" />
            <path class="fil2"
                d="M4340 5980c-109,1 -198,66 -200,145 -3,79 83,141 192,140 108,-2 197,-67 199,-146 3,-79 -83,-141 -191,-139z" />
        </g>
    </g>
</svg>