<svg xmlns="http://www.w3.org/2000/svg" viewBox="0 0 52 52">
    <defs>
        <style>
            .cls-1 {
                fill: #3e3d3d;
            }

            .cls-2 {
                fill: #fff;
            }
        </style>
    </defs>
    <g id="Layer_2" data-name="Layer 2">
        <g id="Layer_1-2" data-name="Layer 1">
            <circle class="cls-1" cx="26" cy="26" r="26" />
            <path class="cls-2"
                d="M31.18,39.37H20.82a8.19,8.19,0,0,1-8.19-8.19V20.82a8.19,8.19,0,0,1,8.19-8.19H31.18a8.19,8.19,0,0,1,8.19,8.19V31.18A8.19,8.19,0,0,1,31.18,39.37ZM20.82,14.63a6.2,6.2,0,0,0-6.19,6.19V31.18a6.2,6.2,0,0,0,6.19,6.19H31.18a6.2,6.2,0,0,0,6.19-6.19V20.82a6.2,6.2,0,0,0-6.19-6.19Z" />
            <path class="cls-2"
                d="M26,32.76A6.76,6.76,0,1,1,32.76,26,6.76,6.76,0,0,1,26,32.76Zm0-11.47A4.71,4.71,0,1,0,30.71,26,4.71,4.71,0,0,0,26,21.29Z" />
            <path class="cls-2" d="M35.26,18.5a1.76,1.76,0,1,1-1.76-1.76A1.76,1.76,0,0,1,35.26,18.5Z" />
        </g>
    </g>
</svg>