<svg xmlns="http://www.w3.org/2000/svg" viewBox="0 0 235.59 235.59">
    <defs>
        <style>
            .cls-1 {
                fill: #F9E21F;
                stroke: #3e3d3d;
                stroke-miterlimit: 10;
                stroke-width: 10px;
            }

            .cls-2 {
                fill: #F9E21F;
            }

            .cls-3 {
                fill: #F9E21F;
            }

            path {
                fill: #3e3d3d;
            }
        </style>
    </defs>
    <g id="Layer_2" data-name="Layer 2">
        <g id="Layer_1-2" data-name="Layer 1">
            <circle class="cls-1" cx="117.79" cy="117.79" r="113.29" />
            <circle class="cls-2" cx="117.79" cy="117.79" r="61.28" />
            <path
                d="M161.84,80.41A17.34,17.34,0,0,1,169.6,82a17.19,17.19,0,0,1,9.21,20.42,17.32,17.32,0,0,1-3.92,6.89Z" />
            <path
                d="M94.61,155c2.72-1.26,5.46-2.5,8.21-3.7l-6.28-13.93,4.57-2c4.25-1.92,6.52-7.63,4.38-12.37a9.41,9.41,0,0,0-12.12-4.79L80.6,123.87l14,31.08" />
            <path
                d="M59.35,116.7c-4.44,1.86-8.78,3.7-12.93,5.57l-.17.09a25.18,25.18,0,0,0,20.63,45.76l.18-.07h0c4.15-1.87,8.4-3.91,12.74-6q-7.1-15.71-14.17-31.42c-.66-1.48-1.33-3-2-4.42l-4.29-9.5" />
            <path
                d="M137.62,40.66l-.14.06a1.73,1.73,0,0,0-.94,1.62C135.24,72.92,115,90,91.17,102.39a25,25,0,0,1,18.57,46c25.72-10.19,52.55-14.71,77,5.24l1.09-1.34-1.09,1.34a1.73,1.73,0,0,0,2.43-.25,1.71,1.71,0,0,0,.22-1.82q-24.79-55-49.58-110a1.74,1.74,0,0,0-2.22-.89" />
            <path
                d="M173.13,72.65a28.27,28.27,0,0,1,15.51,32.56c-1.24,3.1-3.55,1.89-3.35-.85a24.76,24.76,0,0,0-1.44-16.27,24.89,24.89,0,0,0-5-7.25,24.59,24.59,0,0,0-7.2-5.06c-1.83-1.31-1-3.66,1.45-3.13" />
            <path
                d="M179.32,61.73a39.87,39.87,0,0,1,21.88,45.94c-1.36,3.81-4,2.46-3.34-.85a36.4,36.4,0,0,0-20-42c-2.54-1.27-2.27-4.14,1.45-3.13" />
            <path class="cls-3"
                d="M105.49,122.9c2.14,4.74-.13,10.45-4.38,12.37l-4.57,2,6.28,13.93c4-1.62,5.48-2.3,7-2.91a25.06,25.06,0,0,0-18.38-46.06c-8,2.83-23.57,10.47-32.08,14.42l4.29,9.5,2,4.42L79.8,162.05c4.85-2.35,9.79-4.76,14.81-7.1l-14-31.08,12.77-5.76a9.41,9.41,0,0,1,12.12,4.79" />
            <path
                d="M79.8,162.05Q87.45,179,95.11,196l15-6.74c-.34-.78-.69-1.55-1-2.32a4.12,4.12,0,0,1-3.22-7.13c0-.13-.11-.26-.17-.38a4.12,4.12,0,0,1-3.21-7.14c-.06-.12-.12-.25-.17-.38A4.12,4.12,0,0,1,99,164.78c-.06-.12-.11-.25-.17-.38a4.12,4.12,0,0,1-3.21-7.13l-1-2.32c-5,2.34-10,4.75-14.81,7.1" />
        </g>
    </g>
</svg>