<?xml version="1.0" encoding="UTF-8"?>
<!DOCTYPE svg PUBLIC "-//W3C//DTD SVG 1.1//EN" "http://www.w3.org/Graphics/SVG/1.1/DTD/svg11.dtd">
<!-- Creator: CorelDRAW X8 -->
<svg xmlns="http://www.w3.org/2000/svg" xml:space="preserve" width="6.81232cm" height="6.81231cm" version="1.1" style="shape-rendering:geometricPrecision; text-rendering:geometricPrecision; image-rendering:optimizeQuality; fill-rule:evenodd; clip-rule:evenodd"
viewBox="0 0 2568 2568"
 xmlns:xlink="http://www.w3.org/1999/xlink">
 <defs>
  <style type="text/css">
   <![CDATA[
    .fil1 {fill:#3E3D3D}
    .fil0 {fill:#DFDFDF}
    .fil2 {fill:#3E3D3D;fill-rule:nonzero}
   ]]>
  </style>
 </defs>
 <g id="Layer_x0020_1">
  <metadata id="CorelCorpID_0Corel-Layer"/>
  <g id="_2428281274608">
   <path class="fil0" d="M1284 0c709,0 1284,575 1284,1284 0,709 -575,1284 -1284,1284 -709,0 -1284,-575 -1284,-1284 0,-709 575,-1284 1284,-1284z"/>
   <path class="fil1" d="M1231 1178c79,-86 68,-171 51,-262 -16,-70 -22,-86 -103,-71 -66,18 -132,39 -199,57 -20,-33 -46,-46 -81,-69 -133,-52 -331,23 -444,138 -16,25 -46,59 -63,84 -11,17 73,-113 -18,21 -68,100 -215,317 -126,368 62,32 112,49 161,69 283,115 249,46 204,-174 68,162 100,359 -188,199 8,39 23,76 0,129 -86,134 -122,228 -179,340l-13 14c198,282 506,481 862,533 88,-200 60,-449 -24,-681 -21,-139 -4,-271 -40,-408 98,-107 330,-77 269,-253 -16,-14 -42,-17 -69,-34zm-404 -267c26,0 47,21 47,46 0,26 -21,47 -47,47 -26,0 -46,-21 -46,-47 0,-25 20,-46 46,-46z"/>
   <g>
    <path class="fil2" d="M1533 1211c-2,8 -1,17 3,25 8,21 33,31 54,22 0,0 0,0 0,0l0 0c33,-14 44,-94 46,-117 4,-35 1,-71 -9,-105 -21,-65 -65,-122 -123,-158 -19,-13 -45,-7 -58,12 -12,19 -7,45 12,57 96,64 118,154 78,256 -1,3 -2,5 -2,8l-1 0z"/>
    <path class="fil2" d="M2068 1360c-3,23 13,43 36,46 16,2 31,-5 40,-18 2,-4 4,-9 5,-12 31,-72 51,-148 57,-226 13,-152 -35,-304 -133,-421 -52,-62 -114,-115 -183,-158 -20,-11 -45,-4 -57,16 -10,19 -5,43 13,55 61,37 116,84 162,139 85,101 127,232 115,363 -5,69 -23,137 -50,200 -3,5 -4,11 -5,16z"/>
    <path class="fil2" d="M1793 1262c-4,22 10,44 33,49 17,4 35,-4 44,-20l0 0c26,-54 42,-112 49,-171 6,-54 0,-108 -16,-159 -17,-51 -44,-98 -80,-138 -41,-44 -89,-82 -141,-111 -23,-6 -46,7 -52,30 -4,14 1,30 12,41 44,24 84,56 119,93 29,31 51,68 64,109 13,41 17,84 12,127 -6,49 -20,96 -41,140 -1,3 -3,6 -4,10l1 0z"/>
   </g>
  </g>
 </g>
</svg>
