<?xml version="1.0" encoding="UTF-8"?>
<!DOCTYPE svg PUBLIC "-//W3C//DTD SVG 1.1//EN" "http://www.w3.org/Graphics/SVG/1.1/DTD/svg11.dtd">
<!-- Creator: CorelDRAW X8 -->
<svg xmlns="http://www.w3.org/2000/svg" xml:space="preserve" width="6.81232cm" height="6.81231cm" version="1.1" style="shape-rendering:geometricPrecision; text-rendering:geometricPrecision; image-rendering:optimizeQuality; fill-rule:evenodd; clip-rule:evenodd"
viewBox="0 0 2568 2568"
 xmlns:xlink="http://www.w3.org/1999/xlink">
 <defs>
  <style type="text/css">
   <![CDATA[
    .fil1 {fill:#3E3D3D}
    .fil0 {fill:#FCE51F}
    .fil2 {fill:#3E3D3D;fill-rule:nonzero}
   ]]>
  </style>
 </defs>
 <g id="Layer_x0020_1">
  <metadata id="CorelCorpID_0Corel-Layer"/>
  <path class="fil0" d="M1284 0c709,0 1284,575 1284,1284 0,709 -575,1284 -1284,1284 -709,0 -1284,-575 -1284,-1284 0,-709 575,-1284 1284,-1284z"/>
  <g id="_2428285506160">
   <g>
    <g id="_2358306189920">
     <path class="fil1" d="M2088 1410c-43,97 -139,147 -211,111 -72,-36 -90,-139 -43,-236 47,-97 143,-143 215,-107 68,32 86,136 39,232l0 0z"/>
     <path class="fil1" d="M1734 2073l-4 0c-157,-40 -318,-40 -480,0 -53,0 -100,-26 -136,-65 -35,-39 -57,-97 -57,-154 0,-61 22,-118 54,-157l0 0 111 -122c46,-47 86,-104 114,-168l11 -15 0 0c36,-43 86,-64 140,-64 53,0 104,25 139,64l0 0 18 36c29,50 61,100 101,140l121 132 0 0c36,40 58,93 58,158 7,114 -79,215 -190,215l0 0z"/>
     <path class="fil1" d="M896 1410c-47,-96 -29,-197 43,-232 72,-36 165,14 215,107 43,97 28,200 -43,236 -75,32 -168,-18 -215,-111z"/>
     <path class="fil1" d="M1243 837c79,-21 169,51 197,158 29,107 -14,215 -93,233 -82,21 -168,-47 -197,-158 -28,-107 11,-211 93,-233z"/>
     <path class="fil1" d="M1537 995c29,-104 114,-175 197,-158 79,22 122,126 93,233 -29,111 -118,176 -197,158 -82,-18 -122,-126 -93,-233z"/>
    </g>
   </g>
   <path class="fil2" d="M491 1267l-29 -432c-5,-84 -8,-144 -8,-181 0,-50 13,-89 39,-117 26,-28 60,-41 103,-41 52,0 86,17 103,53 18,36 26,88 26,155 0,39 -2,80 -6,121l-38 444c-5,53 -14,93 -28,122 -13,28 -36,42 -68,42 -32,0 -55,-14 -67,-41 -13,-28 -22,-69 -27,-125zm100 593c-37,0 -69,-12 -96,-35 -27,-24 -41,-57 -41,-100 0,-37 13,-69 39,-95 26,-26 58,-39 96,-39 38,0 70,13 96,39 27,26 40,58 40,95 0,42 -13,75 -40,99 -27,24 -58,36 -94,36z"/>
  </g>
 </g>
</svg>
