<svg xmlns="http://www.w3.org/2000/svg" viewBox="0 0 96.19 86.44"><defs><style>.cls-1{fill:#f9e21f;}.cls-2{opacity:0.25;}.cls-3{fill:#fff;}.cls-4{opacity:0.3;}.cls-5{opacity:0.2;}.cls-6{fill:#ffbd06;}.cls-7{fill:#f62872;}.cls-8{fill:#d6dbef;}.cls-9{fill:#ffdb9b;}.cls-10{opacity:0.55;}path{fill: #000;}</style></defs><g id="Layer_2" data-name="Layer 2"><g id="Layer_1-2" data-name="Layer 1"><circle class="cls-1" cx="58.07" cy="41.71" r="38.12"/><g class="cls-2"><path d="M93,18.33A4.53,4.53,0,0,0,90.38,16l-8.66-3-.31-3.38a4.54,4.54,0,0,0-4.93-4.1L63.66,6.7,51.5,2.45a4.53,4.53,0,0,0-5.77,2.79l-1.12,3.2-9.13.84a4.54,4.54,0,0,0-4.1,4.93l2.33,25.47L25.29,63.83a4.52,4.52,0,0,0,2.78,5.77l8.67,3L37.05,76a4.53,4.53,0,0,0,4.51,4.12l.41,0,12.82-1.18L67,83.17a4.54,4.54,0,0,0,5.77-2.79l1.12-3.2L83,76.34a4.53,4.53,0,0,0,4.1-4.93L84.74,45.94l8.43-24.15A4.56,4.56,0,0,0,93,18.33Z"/></g><path class="cls-3" d="M80.72,73.49l-6.46.59L48,76.5l-8.26.75a3.86,3.86,0,0,1-4.21-3.51l-.16-1.65L32.8,44.36,29.83,12a3.89,3.89,0,0,1,3.51-4.22L46,6.57l10.68-1L74.34,4a3.89,3.89,0,0,1,4.22,3.51l.54,5.94,3.4,37,1.73,18.82A3.88,3.88,0,0,1,80.72,73.49Z"/><path d="M39.35,77.37a4,4,0,0,1-4-3.62L29.73,12a4,4,0,0,1,3.6-4.33l41-3.76a4,4,0,0,1,4.33,3.6l5.67,61.8a4,4,0,0,1-3.6,4.32l-41,3.76ZM74.7,4.05l-.35,0-41,3.76a3.79,3.79,0,0,0-3.42,4.11l5.67,61.8a3.77,3.77,0,0,0,4.1,3.41l41-3.76a3.77,3.77,0,0,0,3.42-4.11L78.46,7.49A3.79,3.79,0,0,0,74.7,4.05Z"/><path d="M39.35,77.92a4.53,4.53,0,0,1-4.5-4.12L29.18,12a4.54,4.54,0,0,1,4.1-4.93l41-3.76a4.54,4.54,0,0,1,4.93,4.1l5.67,61.8a4.54,4.54,0,0,1-4.1,4.92h0l-41,3.76A3,3,0,0,1,39.35,77.92ZM74.7,4.61h-.3l-41,3.76a3.24,3.24,0,0,0-2.92,3.51l5.67,61.8a3.22,3.22,0,0,0,3.5,2.91l41-3.76.06.65-.06-.65a3.23,3.23,0,0,0,2.92-3.51L77.91,7.54A3.21,3.21,0,0,0,74.7,4.61Z"/><g class="cls-4"><path d="M82.5,50.46,74.26,74.08,48,76.5,35.34,72.09,32.8,44.36,46.18,6a3.87,3.87,0,0,1,4.93-2.39l28,9.77Z"/></g><rect class="cls-3" x="22.12" y="16.15" width="69.81" height="48.93" rx="3.88" transform="translate(-0.1 81.08) rotate(-70.76)"/><path d="M66.25,80.67a4,4,0,0,1-1.32-.22L26.06,66.88a4,4,0,0,1-2.45-5.07L44.06,3.22A4,4,0,0,1,49.12.78L88,14.34a4,4,0,0,1,2.45,5.07L70,78a4,4,0,0,1-2,2.27A3.84,3.84,0,0,1,66.25,80.67ZM47.82.75a3.78,3.78,0,0,0-3.57,2.54L23.8,61.88a3.78,3.78,0,0,0,2.32,4.81L65,80.26a3.78,3.78,0,0,0,4.81-2.32l20.45-58.6.09,0-.09,0a3.79,3.79,0,0,0-2.33-4.81L49.06,1A3.61,3.61,0,0,0,47.82.75Z"/><g class="cls-4"><path d="M89.88,19.2,69.43,77.79a3.86,3.86,0,0,1-4.93,2.38L25.62,66.6A3.86,3.86,0,0,1,23,63.31a3.83,3.83,0,0,0,1.78,1.29L63.7,78.17a3.89,3.89,0,0,0,4.94-2.39L89.08,17.19a3.77,3.77,0,0,0,.2-1.65A3.88,3.88,0,0,1,89.88,19.2Z"/></g><path d="M66.25,81.22a4.58,4.58,0,0,1-1.5-.25L25.87,67.4a4.53,4.53,0,0,1-2.78-5.77L43.53,3A4.52,4.52,0,0,1,49.3.26L88.18,13.82A4.54,4.54,0,0,1,91,19.59L70.52,78.18a4.53,4.53,0,0,1-4.27,3ZM47.81,1.31a3.12,3.12,0,0,0-1.4.32,3.17,3.17,0,0,0-1.64,1.84L24.32,62.06a3.23,3.23,0,0,0,2,4.11L65.18,79.74h0a3.25,3.25,0,0,0,2.47-.14,3.22,3.22,0,0,0,1.64-1.85L89.74,19.16a3.24,3.24,0,0,0-2-4.11L48.87,1.49A3.19,3.19,0,0,0,47.81,1.31Z"/><path d="M60.55,27.36h0a1.21,1.21,0,0,1,1.23,1L66,56.21a1.17,1.17,0,0,1-.28,1,1.23,1.23,0,0,1-.93.44,1.32,1.32,0,0,1-.39-.06L38.29,49.06A1.23,1.23,0,0,1,37.86,47l21.89-19.3a1.19,1.19,0,0,1,.8-.31m0-2.28a3.41,3.41,0,0,0-2.3.88L36.36,45.26a3.5,3.5,0,0,0,1.23,6l26.14,8.51a3.49,3.49,0,0,0,4.55-3.86L64,28.06a3.5,3.5,0,0,0-3.48-3Z"/><path d="M57.85,35.16c.78.26,1.85.77,1.58,1.64a8.74,8.74,0,0,1-.42,1c-.72,1.38-2.59,4.74-3.94,7.48L54,44.89c.57-2.75,1.12-6.6,1.38-8.26a6.08,6.08,0,0,1,.2-1.13C55.83,34.7,57,34.88,57.85,35.16ZM52.7,50.58a2,2,0,1,1,2.52-1.29A1.91,1.91,0,0,1,52.7,50.58Z"/><g class="cls-5"><path d="M72.87,55.6a1.71,1.71,0,0,0-1.66-1.16l-18.54.2a.48.48,0,0,0-.2,0L3.67,71.78a4.73,4.73,0,0,0-2.91,6l1.91,5.45A4.73,4.73,0,0,0,5.09,86a4.58,4.58,0,0,0,1.38.42,4.64,4.64,0,0,0,2.24-.22l48.81-17.1a1,1,0,0,0,.17-.1L72.31,57.55A1.71,1.71,0,0,0,72.87,55.6Z"/></g><path class="cls-6" d="M56.82,66,8,83.06a4.12,4.12,0,0,1-5.25-2.53L.85,75.09a4.13,4.13,0,0,1,2.53-5.26l48.8-17.1h.47l14-.15,4,0a1.13,1.13,0,0,1,.71,2L68.23,57l-11,8.63Z"/><path class="cls-7" d="M12.77,81.39,8,83.06a4.12,4.12,0,0,1-5.25-2.53L.85,75.09a4.13,4.13,0,0,1,2.53-5.26l4.76-1.67Z"/><rect class="cls-8" x="10.33" y="67.04" width="4.43" height="14.01" transform="translate(-23.79 8.32) rotate(-19.32)"/><path d="M12.71,81.51l0-.09L8,68.1l4.37-1.53,0,.1L17.08,80ZM8.27,68.22l4.57,13,4-1.4-4.57-13Z"/><path class="cls-9" d="M57.19,65.66c-.89-1.34-3-.34-3.76-2s1.55-2.64,1-4.28-2.92-.93-3.41-2.75,1.83-2.31,1.68-3.91l14-.15,4,0a1.13,1.13,0,0,1,.71,2L68.23,57Z"/><path d="M57.17,65.8l-.06-.09a2.28,2.28,0,0,0-1.72-.81,2,2,0,0,1-1.59-3.53,2.15,2.15,0,0,0,.49-2c-.26-.75-.91-1-1.61-1.23s-1.54-.54-1.81-1.53a2.31,2.31,0,0,1,.85-2.21,2.26,2.26,0,0,0,.83-1.71v-.11l18.18-.2a1.22,1.22,0,0,1,1.17.82,1.21,1.21,0,0,1-.4,1.37Zm-4.41-13a2.55,2.55,0,0,1-.89,1.75,2.15,2.15,0,0,0-.81,2c.24.88.94,1.12,1.69,1.39s1.44.5,1.72,1.35a2.31,2.31,0,0,1-.5,2.13,2.15,2.15,0,0,0-.45,2.14c.39.83,1.12.95,1.9,1.08a2.55,2.55,0,0,1,1.79.82L71.37,54.45a1,1,0,0,0,.33-1.14,1,1,0,0,0-1-.69Z"/><g class="cls-4"><path d="M56.82,66,8,83.06a4.12,4.12,0,0,1-5.25-2.53L1.53,77a4.13,4.13,0,0,0,5.25,2.53l48.36-17a2.7,2.7,0,0,0,.82-.44h0l15.9-8.52a1.12,1.12,0,0,1-.43.89L68.23,57l-11,8.63Z"/></g><g class="cls-10"><path class="cls-3" d="M71.73,54.17a1.11,1.11,0,0,0-.46-.09l-4.06,0-14,.16h-.47L3.92,71.39A4.11,4.11,0,0,0,1.4,76.64L.85,75.09a4.13,4.13,0,0,1,2.53-5.26l48.8-17.1h.47l14-.15,4,0A1.13,1.13,0,0,1,71.73,54.17Z"/></g><path d="M6,83.86a4.73,4.73,0,0,1-3.8-3.13L.27,75.29a4.74,4.74,0,0,1,2.9-6L52,52.14a.64.64,0,0,1,.2,0l18.54-.2A1.74,1.74,0,0,1,71.81,55L57.2,66.44a.76.76,0,0,1-.18.09L8.22,83.64A4.8,4.8,0,0,1,6,83.86ZM52.29,53.34,3.58,70.42a3.51,3.51,0,0,0-2.15,4.46l1.91,5.45a3.51,3.51,0,0,0,4.47,2.14L56.52,65.4,71.05,54a.48.48,0,0,0,.16-.56.5.5,0,0,0-.48-.34ZM56.82,66Z"/><path d="M57.1,66.27a.61.61,0,0,1-.43-.27c-.25-.39-.68-.47-1.37-.59a2.54,2.54,0,0,1-1.94-4.31c.4-.64.62-1,.44-1.51s-.58-.67-1.29-.92a2.8,2.8,0,0,1-2.14-1.88,2.83,2.83,0,0,1,1-2.7c.47-.51.75-.85.71-1.31a.63.63,0,0,1,.56-.68.62.62,0,0,1,.67.56,2.93,2.93,0,0,1-1,2.26c-.53.6-.83,1-.68,1.56s.59.76,1.35,1a2.53,2.53,0,0,1,1.49,4.24c-.43.69-.66,1.1-.41,1.66s.71.65,1.51.78a2.9,2.9,0,0,1,2.19,1.13.61.61,0,0,1-.17.85A.6.6,0,0,1,57.1,66.27Z"/><path d="M68.23,57a5.47,5.47,0,0,1-1.56-4.46l4,0a1.13,1.13,0,0,1,.71,2Z"/><path d="M12.69,82a.48.48,0,0,1-.18-.06.61.61,0,0,1-.32-.35L7.56,68.37a.59.59,0,0,1,0-.47.6.6,0,0,1,.36-.32l4.18-1.47a.61.61,0,0,1,.78.38l4.64,13.23a.61.61,0,0,1-.38.78L13,82A.74.74,0,0,1,12.69,82ZM8.93,68.54,13.15,80.6l3-1.06L11.94,67.49Z"/><path d="M68.14,57.64a.65.65,0,0,1-.36-.18,6.14,6.14,0,0,1-1.73-5,.62.62,0,1,1,1.23.11,4.86,4.86,0,0,0,1.4,4,.62.62,0,0,1-.54,1Z"/></g></g></svg>