<svg xmlns="http://www.w3.org/2000/svg" viewBox="0 0 73.41 73.41"><defs><style>.cls-1{fill:#eb1f26;stroke-width:5px;}.cls-1,.cls-2{stroke:#3e3d3d;stroke-miterlimit:10;}.cls-2,.cls-3{fill:#fff;}.cls-2{stroke-width:2px;}</style></defs><g id="Layer_2" data-name="Layer 2"><g id="bela_pozadina_i_okvir" data-name="bela pozadina i okvir"><circle class="cls-1" cx="36.71" cy="36.71" r="34.21"/><path class="cls-2" d="M17.06,24.32c.22,5.73,4.08,11.26,7.35,15.73A58.12,58.12,0,0,0,34.78,51a48.85,48.85,0,0,0,8,5.31c1.72.91,2.88,1.46,4.88.89,3.08-.87,10.15-4.5,9-8.47-.6-2-3.06-4-4.61-5.26-1.87-1.54-5.16-4.26-7.36-1.72C43.34,43,42,45.9,39.92,46.1c-2.21.22-4.17-2.34-5.55-3.74a55.38,55.38,0,0,1-6.11-7.46c-1.7-2.77.43-3.92,2.49-5.43.94-.69,2.14-1.34,2.6-2.47.86-2.12-1.16-4.74-2.32-6.37a25.5,25.5,0,0,0-3.76-4.21c-1.83-1.65-3.85-.34-5.38,1A16.57,16.57,0,0,0,17.06,24.32Z"/><path class="cls-3" d="M40.59,23.22c2,0,3,1.18,3,3.26v.41H41.66v-.54c0-.93-.37-1.28-1-1.28s-1,.35-1,1.28c0,2.67,4,3.17,4,6.88,0,2.07-1,3.26-3,3.26s-3-1.19-3-3.26v-.8h1.93v.93c0,.92.41,1.26,1.06,1.26s1-.34,1-1.26c0-2.67-4-3.17-4-6.88C37.59,24.4,38.61,23.22,40.59,23.22Z"/><path class="cls-3" d="M48.32,23.22c2,0,3.1,1.18,3.1,3.26v6.75c0,2.07-1.1,3.26-3.1,3.26s-3.09-1.19-3.09-3.26V26.48C45.23,24.4,46.32,23.22,48.32,23.22Zm0,11.42c.65,0,1.06-.36,1.06-1.28v-7c0-.93-.41-1.28-1.06-1.28s-1.06.35-1.06,1.28v7C47.26,34.28,47.67,34.64,48.32,34.64Z"/><path class="cls-3" d="M56.09,23.22c2,0,3,1.18,3,3.26v.41H57.16v-.54c0-.93-.37-1.28-1-1.28s-1,.35-1,1.28c0,2.67,4,3.17,4,6.88,0,2.07-1,3.26-3,3.26s-3-1.19-3-3.26v-.8H55v.93c0,.92.41,1.26,1,1.26s1.06-.34,1.06-1.26c0-2.67-4-3.17-4-6.88C53.09,24.4,54.11,23.22,56.09,23.22Z"/></g></g></svg>